%TF.GenerationSoftware,KiCad,Pcbnew,8.0.2-1*%
%TF.CreationDate,2024-06-20T14:35:33+08:00*%
%TF.ProjectId,troubleSeeker,74726f75-626c-4655-9365-656b65722e6b,rev?*%
%TF.SameCoordinates,Original*%
%TF.FileFunction,Legend,Top*%
%TF.FilePolarity,Positive*%
%FSLAX46Y46*%
G04 Gerber Fmt 4.6, Leading zero omitted, Abs format (unit mm)*
G04 Created by KiCad (PCBNEW 8.0.2-1) date 2024-06-20 14:35:33*
%MOMM*%
%LPD*%
G01*
G04 APERTURE LIST*
%ADD10C,0.150000*%
%ADD11C,0.100000*%
%ADD12C,0.120000*%
G04 APERTURE END LIST*
D10*
X118869819Y-90106077D02*
X118869819Y-89534649D01*
X119869819Y-89820363D02*
X118869819Y-89820363D01*
X119869819Y-89201315D02*
X119203152Y-89201315D01*
X119393628Y-89201315D02*
X119298390Y-89153696D01*
X119298390Y-89153696D02*
X119250771Y-89106077D01*
X119250771Y-89106077D02*
X119203152Y-89010839D01*
X119203152Y-89010839D02*
X119203152Y-88915601D01*
X119869819Y-88439410D02*
X119822200Y-88534648D01*
X119822200Y-88534648D02*
X119774580Y-88582267D01*
X119774580Y-88582267D02*
X119679342Y-88629886D01*
X119679342Y-88629886D02*
X119393628Y-88629886D01*
X119393628Y-88629886D02*
X119298390Y-88582267D01*
X119298390Y-88582267D02*
X119250771Y-88534648D01*
X119250771Y-88534648D02*
X119203152Y-88439410D01*
X119203152Y-88439410D02*
X119203152Y-88296553D01*
X119203152Y-88296553D02*
X119250771Y-88201315D01*
X119250771Y-88201315D02*
X119298390Y-88153696D01*
X119298390Y-88153696D02*
X119393628Y-88106077D01*
X119393628Y-88106077D02*
X119679342Y-88106077D01*
X119679342Y-88106077D02*
X119774580Y-88153696D01*
X119774580Y-88153696D02*
X119822200Y-88201315D01*
X119822200Y-88201315D02*
X119869819Y-88296553D01*
X119869819Y-88296553D02*
X119869819Y-88439410D01*
X119203152Y-87248934D02*
X119869819Y-87248934D01*
X119203152Y-87677505D02*
X119726961Y-87677505D01*
X119726961Y-87677505D02*
X119822200Y-87629886D01*
X119822200Y-87629886D02*
X119869819Y-87534648D01*
X119869819Y-87534648D02*
X119869819Y-87391791D01*
X119869819Y-87391791D02*
X119822200Y-87296553D01*
X119822200Y-87296553D02*
X119774580Y-87248934D01*
X119869819Y-86772743D02*
X118869819Y-86772743D01*
X119250771Y-86772743D02*
X119203152Y-86677505D01*
X119203152Y-86677505D02*
X119203152Y-86487029D01*
X119203152Y-86487029D02*
X119250771Y-86391791D01*
X119250771Y-86391791D02*
X119298390Y-86344172D01*
X119298390Y-86344172D02*
X119393628Y-86296553D01*
X119393628Y-86296553D02*
X119679342Y-86296553D01*
X119679342Y-86296553D02*
X119774580Y-86344172D01*
X119774580Y-86344172D02*
X119822200Y-86391791D01*
X119822200Y-86391791D02*
X119869819Y-86487029D01*
X119869819Y-86487029D02*
X119869819Y-86677505D01*
X119869819Y-86677505D02*
X119822200Y-86772743D01*
X119869819Y-85725124D02*
X119822200Y-85820362D01*
X119822200Y-85820362D02*
X119726961Y-85867981D01*
X119726961Y-85867981D02*
X118869819Y-85867981D01*
X119822200Y-84963219D02*
X119869819Y-85058457D01*
X119869819Y-85058457D02*
X119869819Y-85248933D01*
X119869819Y-85248933D02*
X119822200Y-85344171D01*
X119822200Y-85344171D02*
X119726961Y-85391790D01*
X119726961Y-85391790D02*
X119346009Y-85391790D01*
X119346009Y-85391790D02*
X119250771Y-85344171D01*
X119250771Y-85344171D02*
X119203152Y-85248933D01*
X119203152Y-85248933D02*
X119203152Y-85058457D01*
X119203152Y-85058457D02*
X119250771Y-84963219D01*
X119250771Y-84963219D02*
X119346009Y-84915600D01*
X119346009Y-84915600D02*
X119441247Y-84915600D01*
X119441247Y-84915600D02*
X119536485Y-85391790D01*
X119822200Y-84534647D02*
X119869819Y-84391790D01*
X119869819Y-84391790D02*
X119869819Y-84153695D01*
X119869819Y-84153695D02*
X119822200Y-84058457D01*
X119822200Y-84058457D02*
X119774580Y-84010838D01*
X119774580Y-84010838D02*
X119679342Y-83963219D01*
X119679342Y-83963219D02*
X119584104Y-83963219D01*
X119584104Y-83963219D02*
X119488866Y-84010838D01*
X119488866Y-84010838D02*
X119441247Y-84058457D01*
X119441247Y-84058457D02*
X119393628Y-84153695D01*
X119393628Y-84153695D02*
X119346009Y-84344171D01*
X119346009Y-84344171D02*
X119298390Y-84439409D01*
X119298390Y-84439409D02*
X119250771Y-84487028D01*
X119250771Y-84487028D02*
X119155533Y-84534647D01*
X119155533Y-84534647D02*
X119060295Y-84534647D01*
X119060295Y-84534647D02*
X118965057Y-84487028D01*
X118965057Y-84487028D02*
X118917438Y-84439409D01*
X118917438Y-84439409D02*
X118869819Y-84344171D01*
X118869819Y-84344171D02*
X118869819Y-84106076D01*
X118869819Y-84106076D02*
X118917438Y-83963219D01*
X119822200Y-83153695D02*
X119869819Y-83248933D01*
X119869819Y-83248933D02*
X119869819Y-83439409D01*
X119869819Y-83439409D02*
X119822200Y-83534647D01*
X119822200Y-83534647D02*
X119726961Y-83582266D01*
X119726961Y-83582266D02*
X119346009Y-83582266D01*
X119346009Y-83582266D02*
X119250771Y-83534647D01*
X119250771Y-83534647D02*
X119203152Y-83439409D01*
X119203152Y-83439409D02*
X119203152Y-83248933D01*
X119203152Y-83248933D02*
X119250771Y-83153695D01*
X119250771Y-83153695D02*
X119346009Y-83106076D01*
X119346009Y-83106076D02*
X119441247Y-83106076D01*
X119441247Y-83106076D02*
X119536485Y-83582266D01*
X119822200Y-82296552D02*
X119869819Y-82391790D01*
X119869819Y-82391790D02*
X119869819Y-82582266D01*
X119869819Y-82582266D02*
X119822200Y-82677504D01*
X119822200Y-82677504D02*
X119726961Y-82725123D01*
X119726961Y-82725123D02*
X119346009Y-82725123D01*
X119346009Y-82725123D02*
X119250771Y-82677504D01*
X119250771Y-82677504D02*
X119203152Y-82582266D01*
X119203152Y-82582266D02*
X119203152Y-82391790D01*
X119203152Y-82391790D02*
X119250771Y-82296552D01*
X119250771Y-82296552D02*
X119346009Y-82248933D01*
X119346009Y-82248933D02*
X119441247Y-82248933D01*
X119441247Y-82248933D02*
X119536485Y-82725123D01*
X119869819Y-81820361D02*
X118869819Y-81820361D01*
X119488866Y-81725123D02*
X119869819Y-81439409D01*
X119203152Y-81439409D02*
X119584104Y-81820361D01*
X119822200Y-80629885D02*
X119869819Y-80725123D01*
X119869819Y-80725123D02*
X119869819Y-80915599D01*
X119869819Y-80915599D02*
X119822200Y-81010837D01*
X119822200Y-81010837D02*
X119726961Y-81058456D01*
X119726961Y-81058456D02*
X119346009Y-81058456D01*
X119346009Y-81058456D02*
X119250771Y-81010837D01*
X119250771Y-81010837D02*
X119203152Y-80915599D01*
X119203152Y-80915599D02*
X119203152Y-80725123D01*
X119203152Y-80725123D02*
X119250771Y-80629885D01*
X119250771Y-80629885D02*
X119346009Y-80582266D01*
X119346009Y-80582266D02*
X119441247Y-80582266D01*
X119441247Y-80582266D02*
X119536485Y-81058456D01*
X119869819Y-80153694D02*
X119203152Y-80153694D01*
X119393628Y-80153694D02*
X119298390Y-80106075D01*
X119298390Y-80106075D02*
X119250771Y-80058456D01*
X119250771Y-80058456D02*
X119203152Y-79963218D01*
X119203152Y-79963218D02*
X119203152Y-79867980D01*
X118965057Y-78820360D02*
X118917438Y-78772741D01*
X118917438Y-78772741D02*
X118869819Y-78677503D01*
X118869819Y-78677503D02*
X118869819Y-78439408D01*
X118869819Y-78439408D02*
X118917438Y-78344170D01*
X118917438Y-78344170D02*
X118965057Y-78296551D01*
X118965057Y-78296551D02*
X119060295Y-78248932D01*
X119060295Y-78248932D02*
X119155533Y-78248932D01*
X119155533Y-78248932D02*
X119298390Y-78296551D01*
X119298390Y-78296551D02*
X119869819Y-78867979D01*
X119869819Y-78867979D02*
X119869819Y-78248932D01*
X118869819Y-77629884D02*
X118869819Y-77534646D01*
X118869819Y-77534646D02*
X118917438Y-77439408D01*
X118917438Y-77439408D02*
X118965057Y-77391789D01*
X118965057Y-77391789D02*
X119060295Y-77344170D01*
X119060295Y-77344170D02*
X119250771Y-77296551D01*
X119250771Y-77296551D02*
X119488866Y-77296551D01*
X119488866Y-77296551D02*
X119679342Y-77344170D01*
X119679342Y-77344170D02*
X119774580Y-77391789D01*
X119774580Y-77391789D02*
X119822200Y-77439408D01*
X119822200Y-77439408D02*
X119869819Y-77534646D01*
X119869819Y-77534646D02*
X119869819Y-77629884D01*
X119869819Y-77629884D02*
X119822200Y-77725122D01*
X119822200Y-77725122D02*
X119774580Y-77772741D01*
X119774580Y-77772741D02*
X119679342Y-77820360D01*
X119679342Y-77820360D02*
X119488866Y-77867979D01*
X119488866Y-77867979D02*
X119250771Y-77867979D01*
X119250771Y-77867979D02*
X119060295Y-77820360D01*
X119060295Y-77820360D02*
X118965057Y-77772741D01*
X118965057Y-77772741D02*
X118917438Y-77725122D01*
X118917438Y-77725122D02*
X118869819Y-77629884D01*
X118965057Y-76915598D02*
X118917438Y-76867979D01*
X118917438Y-76867979D02*
X118869819Y-76772741D01*
X118869819Y-76772741D02*
X118869819Y-76534646D01*
X118869819Y-76534646D02*
X118917438Y-76439408D01*
X118917438Y-76439408D02*
X118965057Y-76391789D01*
X118965057Y-76391789D02*
X119060295Y-76344170D01*
X119060295Y-76344170D02*
X119155533Y-76344170D01*
X119155533Y-76344170D02*
X119298390Y-76391789D01*
X119298390Y-76391789D02*
X119869819Y-76963217D01*
X119869819Y-76963217D02*
X119869819Y-76344170D01*
X119203152Y-75487027D02*
X119869819Y-75487027D01*
X118822200Y-75725122D02*
X119536485Y-75963217D01*
X119536485Y-75963217D02*
X119536485Y-75344170D01*
X119203152Y-74296550D02*
X119869819Y-74058455D01*
X119869819Y-74058455D02*
X119203152Y-73820360D01*
X118869819Y-73248931D02*
X118869819Y-73153693D01*
X118869819Y-73153693D02*
X118917438Y-73058455D01*
X118917438Y-73058455D02*
X118965057Y-73010836D01*
X118965057Y-73010836D02*
X119060295Y-72963217D01*
X119060295Y-72963217D02*
X119250771Y-72915598D01*
X119250771Y-72915598D02*
X119488866Y-72915598D01*
X119488866Y-72915598D02*
X119679342Y-72963217D01*
X119679342Y-72963217D02*
X119774580Y-73010836D01*
X119774580Y-73010836D02*
X119822200Y-73058455D01*
X119822200Y-73058455D02*
X119869819Y-73153693D01*
X119869819Y-73153693D02*
X119869819Y-73248931D01*
X119869819Y-73248931D02*
X119822200Y-73344169D01*
X119822200Y-73344169D02*
X119774580Y-73391788D01*
X119774580Y-73391788D02*
X119679342Y-73439407D01*
X119679342Y-73439407D02*
X119488866Y-73487026D01*
X119488866Y-73487026D02*
X119250771Y-73487026D01*
X119250771Y-73487026D02*
X119060295Y-73439407D01*
X119060295Y-73439407D02*
X118965057Y-73391788D01*
X118965057Y-73391788D02*
X118917438Y-73344169D01*
X118917438Y-73344169D02*
X118869819Y-73248931D01*
X119774580Y-72487026D02*
X119822200Y-72439407D01*
X119822200Y-72439407D02*
X119869819Y-72487026D01*
X119869819Y-72487026D02*
X119822200Y-72534645D01*
X119822200Y-72534645D02*
X119774580Y-72487026D01*
X119774580Y-72487026D02*
X119869819Y-72487026D01*
X119869819Y-71487027D02*
X119869819Y-72058455D01*
X119869819Y-71772741D02*
X118869819Y-71772741D01*
X118869819Y-71772741D02*
X119012676Y-71867979D01*
X119012676Y-71867979D02*
X119107914Y-71963217D01*
X119107914Y-71963217D02*
X119155533Y-72058455D01*
D11*
X119500000Y-115500000D02*
X145000000Y-115500000D01*
X145000000Y-162500000D01*
X119500000Y-162500000D01*
X119500000Y-115500000D01*
D10*
X131933333Y-66084819D02*
X131600000Y-65608628D01*
X131361905Y-66084819D02*
X131361905Y-65084819D01*
X131361905Y-65084819D02*
X131742857Y-65084819D01*
X131742857Y-65084819D02*
X131838095Y-65132438D01*
X131838095Y-65132438D02*
X131885714Y-65180057D01*
X131885714Y-65180057D02*
X131933333Y-65275295D01*
X131933333Y-65275295D02*
X131933333Y-65418152D01*
X131933333Y-65418152D02*
X131885714Y-65513390D01*
X131885714Y-65513390D02*
X131838095Y-65561009D01*
X131838095Y-65561009D02*
X131742857Y-65608628D01*
X131742857Y-65608628D02*
X131361905Y-65608628D01*
X132790476Y-65418152D02*
X132790476Y-66084819D01*
X132552381Y-65037200D02*
X132314286Y-65751485D01*
X132314286Y-65751485D02*
X132933333Y-65751485D01*
X131833333Y-60984819D02*
X131500000Y-60508628D01*
X131261905Y-60984819D02*
X131261905Y-59984819D01*
X131261905Y-59984819D02*
X131642857Y-59984819D01*
X131642857Y-59984819D02*
X131738095Y-60032438D01*
X131738095Y-60032438D02*
X131785714Y-60080057D01*
X131785714Y-60080057D02*
X131833333Y-60175295D01*
X131833333Y-60175295D02*
X131833333Y-60318152D01*
X131833333Y-60318152D02*
X131785714Y-60413390D01*
X131785714Y-60413390D02*
X131738095Y-60461009D01*
X131738095Y-60461009D02*
X131642857Y-60508628D01*
X131642857Y-60508628D02*
X131261905Y-60508628D01*
X132166667Y-59984819D02*
X132785714Y-59984819D01*
X132785714Y-59984819D02*
X132452381Y-60365771D01*
X132452381Y-60365771D02*
X132595238Y-60365771D01*
X132595238Y-60365771D02*
X132690476Y-60413390D01*
X132690476Y-60413390D02*
X132738095Y-60461009D01*
X132738095Y-60461009D02*
X132785714Y-60556247D01*
X132785714Y-60556247D02*
X132785714Y-60794342D01*
X132785714Y-60794342D02*
X132738095Y-60889580D01*
X132738095Y-60889580D02*
X132690476Y-60937200D01*
X132690476Y-60937200D02*
X132595238Y-60984819D01*
X132595238Y-60984819D02*
X132309524Y-60984819D01*
X132309524Y-60984819D02*
X132214286Y-60937200D01*
X132214286Y-60937200D02*
X132166667Y-60889580D01*
X138793333Y-98084819D02*
X138460000Y-97608628D01*
X138221905Y-98084819D02*
X138221905Y-97084819D01*
X138221905Y-97084819D02*
X138602857Y-97084819D01*
X138602857Y-97084819D02*
X138698095Y-97132438D01*
X138698095Y-97132438D02*
X138745714Y-97180057D01*
X138745714Y-97180057D02*
X138793333Y-97275295D01*
X138793333Y-97275295D02*
X138793333Y-97418152D01*
X138793333Y-97418152D02*
X138745714Y-97513390D01*
X138745714Y-97513390D02*
X138698095Y-97561009D01*
X138698095Y-97561009D02*
X138602857Y-97608628D01*
X138602857Y-97608628D02*
X138221905Y-97608628D01*
X139174286Y-97180057D02*
X139221905Y-97132438D01*
X139221905Y-97132438D02*
X139317143Y-97084819D01*
X139317143Y-97084819D02*
X139555238Y-97084819D01*
X139555238Y-97084819D02*
X139650476Y-97132438D01*
X139650476Y-97132438D02*
X139698095Y-97180057D01*
X139698095Y-97180057D02*
X139745714Y-97275295D01*
X139745714Y-97275295D02*
X139745714Y-97370533D01*
X139745714Y-97370533D02*
X139698095Y-97513390D01*
X139698095Y-97513390D02*
X139126667Y-98084819D01*
X139126667Y-98084819D02*
X139745714Y-98084819D01*
X126033333Y-98084819D02*
X125700000Y-97608628D01*
X125461905Y-98084819D02*
X125461905Y-97084819D01*
X125461905Y-97084819D02*
X125842857Y-97084819D01*
X125842857Y-97084819D02*
X125938095Y-97132438D01*
X125938095Y-97132438D02*
X125985714Y-97180057D01*
X125985714Y-97180057D02*
X126033333Y-97275295D01*
X126033333Y-97275295D02*
X126033333Y-97418152D01*
X126033333Y-97418152D02*
X125985714Y-97513390D01*
X125985714Y-97513390D02*
X125938095Y-97561009D01*
X125938095Y-97561009D02*
X125842857Y-97608628D01*
X125842857Y-97608628D02*
X125461905Y-97608628D01*
X126985714Y-98084819D02*
X126414286Y-98084819D01*
X126700000Y-98084819D02*
X126700000Y-97084819D01*
X126700000Y-97084819D02*
X126604762Y-97227676D01*
X126604762Y-97227676D02*
X126509524Y-97322914D01*
X126509524Y-97322914D02*
X126414286Y-97370533D01*
X131643333Y-51554819D02*
X131167143Y-51554819D01*
X131167143Y-51554819D02*
X131167143Y-50554819D01*
X132500476Y-51554819D02*
X131929048Y-51554819D01*
X132214762Y-51554819D02*
X132214762Y-50554819D01*
X132214762Y-50554819D02*
X132119524Y-50697676D01*
X132119524Y-50697676D02*
X132024286Y-50792914D01*
X132024286Y-50792914D02*
X131929048Y-50840533D01*
X137833333Y-85609580D02*
X137785714Y-85657200D01*
X137785714Y-85657200D02*
X137642857Y-85704819D01*
X137642857Y-85704819D02*
X137547619Y-85704819D01*
X137547619Y-85704819D02*
X137404762Y-85657200D01*
X137404762Y-85657200D02*
X137309524Y-85561961D01*
X137309524Y-85561961D02*
X137261905Y-85466723D01*
X137261905Y-85466723D02*
X137214286Y-85276247D01*
X137214286Y-85276247D02*
X137214286Y-85133390D01*
X137214286Y-85133390D02*
X137261905Y-84942914D01*
X137261905Y-84942914D02*
X137309524Y-84847676D01*
X137309524Y-84847676D02*
X137404762Y-84752438D01*
X137404762Y-84752438D02*
X137547619Y-84704819D01*
X137547619Y-84704819D02*
X137642857Y-84704819D01*
X137642857Y-84704819D02*
X137785714Y-84752438D01*
X137785714Y-84752438D02*
X137833333Y-84800057D01*
X138214286Y-84800057D02*
X138261905Y-84752438D01*
X138261905Y-84752438D02*
X138357143Y-84704819D01*
X138357143Y-84704819D02*
X138595238Y-84704819D01*
X138595238Y-84704819D02*
X138690476Y-84752438D01*
X138690476Y-84752438D02*
X138738095Y-84800057D01*
X138738095Y-84800057D02*
X138785714Y-84895295D01*
X138785714Y-84895295D02*
X138785714Y-84990533D01*
X138785714Y-84990533D02*
X138738095Y-85133390D01*
X138738095Y-85133390D02*
X138166667Y-85704819D01*
X138166667Y-85704819D02*
X138785714Y-85704819D01*
X125833333Y-85609580D02*
X125785714Y-85657200D01*
X125785714Y-85657200D02*
X125642857Y-85704819D01*
X125642857Y-85704819D02*
X125547619Y-85704819D01*
X125547619Y-85704819D02*
X125404762Y-85657200D01*
X125404762Y-85657200D02*
X125309524Y-85561961D01*
X125309524Y-85561961D02*
X125261905Y-85466723D01*
X125261905Y-85466723D02*
X125214286Y-85276247D01*
X125214286Y-85276247D02*
X125214286Y-85133390D01*
X125214286Y-85133390D02*
X125261905Y-84942914D01*
X125261905Y-84942914D02*
X125309524Y-84847676D01*
X125309524Y-84847676D02*
X125404762Y-84752438D01*
X125404762Y-84752438D02*
X125547619Y-84704819D01*
X125547619Y-84704819D02*
X125642857Y-84704819D01*
X125642857Y-84704819D02*
X125785714Y-84752438D01*
X125785714Y-84752438D02*
X125833333Y-84800057D01*
X126785714Y-85704819D02*
X126214286Y-85704819D01*
X126500000Y-85704819D02*
X126500000Y-84704819D01*
X126500000Y-84704819D02*
X126404762Y-84847676D01*
X126404762Y-84847676D02*
X126309524Y-84942914D01*
X126309524Y-84942914D02*
X126214286Y-84990533D01*
X137084819Y-78271904D02*
X137894342Y-78271904D01*
X137894342Y-78271904D02*
X137989580Y-78224285D01*
X137989580Y-78224285D02*
X138037200Y-78176666D01*
X138037200Y-78176666D02*
X138084819Y-78081428D01*
X138084819Y-78081428D02*
X138084819Y-77890952D01*
X138084819Y-77890952D02*
X138037200Y-77795714D01*
X138037200Y-77795714D02*
X137989580Y-77748095D01*
X137989580Y-77748095D02*
X137894342Y-77700476D01*
X137894342Y-77700476D02*
X137084819Y-77700476D01*
X138084819Y-76700476D02*
X138084819Y-77271904D01*
X138084819Y-76986190D02*
X137084819Y-76986190D01*
X137084819Y-76986190D02*
X137227676Y-77081428D01*
X137227676Y-77081428D02*
X137322914Y-77176666D01*
X137322914Y-77176666D02*
X137370533Y-77271904D01*
X127553809Y-179769104D02*
X128029999Y-179769104D01*
X127458571Y-180054819D02*
X127791904Y-179054819D01*
X127791904Y-179054819D02*
X128125237Y-180054819D01*
X128887142Y-179388152D02*
X128887142Y-180054819D01*
X128458571Y-179388152D02*
X128458571Y-179911961D01*
X128458571Y-179911961D02*
X128506190Y-180007200D01*
X128506190Y-180007200D02*
X128601428Y-180054819D01*
X128601428Y-180054819D02*
X128744285Y-180054819D01*
X128744285Y-180054819D02*
X128839523Y-180007200D01*
X128839523Y-180007200D02*
X128887142Y-179959580D01*
X129791904Y-180054819D02*
X129791904Y-179054819D01*
X129791904Y-180007200D02*
X129696666Y-180054819D01*
X129696666Y-180054819D02*
X129506190Y-180054819D01*
X129506190Y-180054819D02*
X129410952Y-180007200D01*
X129410952Y-180007200D02*
X129363333Y-179959580D01*
X129363333Y-179959580D02*
X129315714Y-179864342D01*
X129315714Y-179864342D02*
X129315714Y-179578628D01*
X129315714Y-179578628D02*
X129363333Y-179483390D01*
X129363333Y-179483390D02*
X129410952Y-179435771D01*
X129410952Y-179435771D02*
X129506190Y-179388152D01*
X129506190Y-179388152D02*
X129696666Y-179388152D01*
X129696666Y-179388152D02*
X129791904Y-179435771D01*
X130268095Y-180054819D02*
X130268095Y-179388152D01*
X130268095Y-179054819D02*
X130220476Y-179102438D01*
X130220476Y-179102438D02*
X130268095Y-179150057D01*
X130268095Y-179150057D02*
X130315714Y-179102438D01*
X130315714Y-179102438D02*
X130268095Y-179054819D01*
X130268095Y-179054819D02*
X130268095Y-179150057D01*
X130887142Y-180054819D02*
X130791904Y-180007200D01*
X130791904Y-180007200D02*
X130744285Y-179959580D01*
X130744285Y-179959580D02*
X130696666Y-179864342D01*
X130696666Y-179864342D02*
X130696666Y-179578628D01*
X130696666Y-179578628D02*
X130744285Y-179483390D01*
X130744285Y-179483390D02*
X130791904Y-179435771D01*
X130791904Y-179435771D02*
X130887142Y-179388152D01*
X130887142Y-179388152D02*
X131029999Y-179388152D01*
X131029999Y-179388152D02*
X131125237Y-179435771D01*
X131125237Y-179435771D02*
X131172856Y-179483390D01*
X131172856Y-179483390D02*
X131220475Y-179578628D01*
X131220475Y-179578628D02*
X131220475Y-179864342D01*
X131220475Y-179864342D02*
X131172856Y-179959580D01*
X131172856Y-179959580D02*
X131125237Y-180007200D01*
X131125237Y-180007200D02*
X131029999Y-180054819D01*
X131029999Y-180054819D02*
X130887142Y-180054819D01*
X132601428Y-179054819D02*
X132791904Y-179054819D01*
X132791904Y-179054819D02*
X132887142Y-179102438D01*
X132887142Y-179102438D02*
X132982380Y-179197676D01*
X132982380Y-179197676D02*
X133029999Y-179388152D01*
X133029999Y-179388152D02*
X133029999Y-179721485D01*
X133029999Y-179721485D02*
X132982380Y-179911961D01*
X132982380Y-179911961D02*
X132887142Y-180007200D01*
X132887142Y-180007200D02*
X132791904Y-180054819D01*
X132791904Y-180054819D02*
X132601428Y-180054819D01*
X132601428Y-180054819D02*
X132506190Y-180007200D01*
X132506190Y-180007200D02*
X132410952Y-179911961D01*
X132410952Y-179911961D02*
X132363333Y-179721485D01*
X132363333Y-179721485D02*
X132363333Y-179388152D01*
X132363333Y-179388152D02*
X132410952Y-179197676D01*
X132410952Y-179197676D02*
X132506190Y-179102438D01*
X132506190Y-179102438D02*
X132601428Y-179054819D01*
X133887142Y-179388152D02*
X133887142Y-180054819D01*
X133458571Y-179388152D02*
X133458571Y-179911961D01*
X133458571Y-179911961D02*
X133506190Y-180007200D01*
X133506190Y-180007200D02*
X133601428Y-180054819D01*
X133601428Y-180054819D02*
X133744285Y-180054819D01*
X133744285Y-180054819D02*
X133839523Y-180007200D01*
X133839523Y-180007200D02*
X133887142Y-179959580D01*
X134220476Y-179388152D02*
X134601428Y-179388152D01*
X134363333Y-179054819D02*
X134363333Y-179911961D01*
X134363333Y-179911961D02*
X134410952Y-180007200D01*
X134410952Y-180007200D02*
X134506190Y-180054819D01*
X134506190Y-180054819D02*
X134601428Y-180054819D01*
X131643333Y-54859580D02*
X131595714Y-54907200D01*
X131595714Y-54907200D02*
X131452857Y-54954819D01*
X131452857Y-54954819D02*
X131357619Y-54954819D01*
X131357619Y-54954819D02*
X131214762Y-54907200D01*
X131214762Y-54907200D02*
X131119524Y-54811961D01*
X131119524Y-54811961D02*
X131071905Y-54716723D01*
X131071905Y-54716723D02*
X131024286Y-54526247D01*
X131024286Y-54526247D02*
X131024286Y-54383390D01*
X131024286Y-54383390D02*
X131071905Y-54192914D01*
X131071905Y-54192914D02*
X131119524Y-54097676D01*
X131119524Y-54097676D02*
X131214762Y-54002438D01*
X131214762Y-54002438D02*
X131357619Y-53954819D01*
X131357619Y-53954819D02*
X131452857Y-53954819D01*
X131452857Y-53954819D02*
X131595714Y-54002438D01*
X131595714Y-54002438D02*
X131643333Y-54050057D01*
X132500476Y-54288152D02*
X132500476Y-54954819D01*
X132262381Y-53907200D02*
X132024286Y-54621485D01*
X132024286Y-54621485D02*
X132643333Y-54621485D01*
X132233333Y-163859580D02*
X132185714Y-163907200D01*
X132185714Y-163907200D02*
X132042857Y-163954819D01*
X132042857Y-163954819D02*
X131947619Y-163954819D01*
X131947619Y-163954819D02*
X131804762Y-163907200D01*
X131804762Y-163907200D02*
X131709524Y-163811961D01*
X131709524Y-163811961D02*
X131661905Y-163716723D01*
X131661905Y-163716723D02*
X131614286Y-163526247D01*
X131614286Y-163526247D02*
X131614286Y-163383390D01*
X131614286Y-163383390D02*
X131661905Y-163192914D01*
X131661905Y-163192914D02*
X131709524Y-163097676D01*
X131709524Y-163097676D02*
X131804762Y-163002438D01*
X131804762Y-163002438D02*
X131947619Y-162954819D01*
X131947619Y-162954819D02*
X132042857Y-162954819D01*
X132042857Y-162954819D02*
X132185714Y-163002438D01*
X132185714Y-163002438D02*
X132233333Y-163050057D01*
X132566667Y-162954819D02*
X133185714Y-162954819D01*
X133185714Y-162954819D02*
X132852381Y-163335771D01*
X132852381Y-163335771D02*
X132995238Y-163335771D01*
X132995238Y-163335771D02*
X133090476Y-163383390D01*
X133090476Y-163383390D02*
X133138095Y-163431009D01*
X133138095Y-163431009D02*
X133185714Y-163526247D01*
X133185714Y-163526247D02*
X133185714Y-163764342D01*
X133185714Y-163764342D02*
X133138095Y-163859580D01*
X133138095Y-163859580D02*
X133090476Y-163907200D01*
X133090476Y-163907200D02*
X132995238Y-163954819D01*
X132995238Y-163954819D02*
X132709524Y-163954819D01*
X132709524Y-163954819D02*
X132614286Y-163907200D01*
X132614286Y-163907200D02*
X132566667Y-163859580D01*
X128757142Y-140454819D02*
X128947618Y-140454819D01*
X128947618Y-140454819D02*
X129042856Y-140407200D01*
X129042856Y-140407200D02*
X129090475Y-140359580D01*
X129090475Y-140359580D02*
X129185713Y-140216723D01*
X129185713Y-140216723D02*
X129233332Y-140026247D01*
X129233332Y-140026247D02*
X129233332Y-139645295D01*
X129233332Y-139645295D02*
X129185713Y-139550057D01*
X129185713Y-139550057D02*
X129138094Y-139502438D01*
X129138094Y-139502438D02*
X129042856Y-139454819D01*
X129042856Y-139454819D02*
X128852380Y-139454819D01*
X128852380Y-139454819D02*
X128757142Y-139502438D01*
X128757142Y-139502438D02*
X128709523Y-139550057D01*
X128709523Y-139550057D02*
X128661904Y-139645295D01*
X128661904Y-139645295D02*
X128661904Y-139883390D01*
X128661904Y-139883390D02*
X128709523Y-139978628D01*
X128709523Y-139978628D02*
X128757142Y-140026247D01*
X128757142Y-140026247D02*
X128852380Y-140073866D01*
X128852380Y-140073866D02*
X129042856Y-140073866D01*
X129042856Y-140073866D02*
X129138094Y-140026247D01*
X129138094Y-140026247D02*
X129185713Y-139978628D01*
X129185713Y-139978628D02*
X129233332Y-139883390D01*
X129519047Y-139454819D02*
X129852380Y-140454819D01*
X129852380Y-140454819D02*
X130185713Y-139454819D01*
X131614285Y-139931009D02*
X131757142Y-139978628D01*
X131757142Y-139978628D02*
X131804761Y-140026247D01*
X131804761Y-140026247D02*
X131852380Y-140121485D01*
X131852380Y-140121485D02*
X131852380Y-140264342D01*
X131852380Y-140264342D02*
X131804761Y-140359580D01*
X131804761Y-140359580D02*
X131757142Y-140407200D01*
X131757142Y-140407200D02*
X131661904Y-140454819D01*
X131661904Y-140454819D02*
X131280952Y-140454819D01*
X131280952Y-140454819D02*
X131280952Y-139454819D01*
X131280952Y-139454819D02*
X131614285Y-139454819D01*
X131614285Y-139454819D02*
X131709523Y-139502438D01*
X131709523Y-139502438D02*
X131757142Y-139550057D01*
X131757142Y-139550057D02*
X131804761Y-139645295D01*
X131804761Y-139645295D02*
X131804761Y-139740533D01*
X131804761Y-139740533D02*
X131757142Y-139835771D01*
X131757142Y-139835771D02*
X131709523Y-139883390D01*
X131709523Y-139883390D02*
X131614285Y-139931009D01*
X131614285Y-139931009D02*
X131280952Y-139931009D01*
X132709523Y-140454819D02*
X132709523Y-139931009D01*
X132709523Y-139931009D02*
X132661904Y-139835771D01*
X132661904Y-139835771D02*
X132566666Y-139788152D01*
X132566666Y-139788152D02*
X132376190Y-139788152D01*
X132376190Y-139788152D02*
X132280952Y-139835771D01*
X132709523Y-140407200D02*
X132614285Y-140454819D01*
X132614285Y-140454819D02*
X132376190Y-140454819D01*
X132376190Y-140454819D02*
X132280952Y-140407200D01*
X132280952Y-140407200D02*
X132233333Y-140311961D01*
X132233333Y-140311961D02*
X132233333Y-140216723D01*
X132233333Y-140216723D02*
X132280952Y-140121485D01*
X132280952Y-140121485D02*
X132376190Y-140073866D01*
X132376190Y-140073866D02*
X132614285Y-140073866D01*
X132614285Y-140073866D02*
X132709523Y-140026247D01*
X133042857Y-139788152D02*
X133423809Y-139788152D01*
X133185714Y-139454819D02*
X133185714Y-140311961D01*
X133185714Y-140311961D02*
X133233333Y-140407200D01*
X133233333Y-140407200D02*
X133328571Y-140454819D01*
X133328571Y-140454819D02*
X133423809Y-140454819D01*
X133614286Y-139788152D02*
X133995238Y-139788152D01*
X133757143Y-139454819D02*
X133757143Y-140311961D01*
X133757143Y-140311961D02*
X133804762Y-140407200D01*
X133804762Y-140407200D02*
X133900000Y-140454819D01*
X133900000Y-140454819D02*
X133995238Y-140454819D01*
X134709524Y-140407200D02*
X134614286Y-140454819D01*
X134614286Y-140454819D02*
X134423810Y-140454819D01*
X134423810Y-140454819D02*
X134328572Y-140407200D01*
X134328572Y-140407200D02*
X134280953Y-140311961D01*
X134280953Y-140311961D02*
X134280953Y-139931009D01*
X134280953Y-139931009D02*
X134328572Y-139835771D01*
X134328572Y-139835771D02*
X134423810Y-139788152D01*
X134423810Y-139788152D02*
X134614286Y-139788152D01*
X134614286Y-139788152D02*
X134709524Y-139835771D01*
X134709524Y-139835771D02*
X134757143Y-139931009D01*
X134757143Y-139931009D02*
X134757143Y-140026247D01*
X134757143Y-140026247D02*
X134280953Y-140121485D01*
X135185715Y-140454819D02*
X135185715Y-139788152D01*
X135185715Y-139978628D02*
X135233334Y-139883390D01*
X135233334Y-139883390D02*
X135280953Y-139835771D01*
X135280953Y-139835771D02*
X135376191Y-139788152D01*
X135376191Y-139788152D02*
X135471429Y-139788152D01*
X135709525Y-139788152D02*
X135947620Y-140454819D01*
X136185715Y-139788152D02*
X135947620Y-140454819D01*
X135947620Y-140454819D02*
X135852382Y-140692914D01*
X135852382Y-140692914D02*
X135804763Y-140740533D01*
X135804763Y-140740533D02*
X135709525Y-140788152D01*
D12*
%TO.C,R4*%
X136140000Y-68000000D02*
X135370000Y-68000000D01*
X135370000Y-69370000D02*
X135370000Y-66630000D01*
X135370000Y-66630000D02*
X128830000Y-66630000D01*
X128830000Y-69370000D02*
X135370000Y-69370000D01*
X128830000Y-66630000D02*
X128830000Y-69370000D01*
X128060000Y-68000000D02*
X128830000Y-68000000D01*
%TO.C,R3*%
X136040000Y-62900000D02*
X135270000Y-62900000D01*
X135270000Y-64270000D02*
X135270000Y-61530000D01*
X135270000Y-61530000D02*
X128730000Y-61530000D01*
X128730000Y-64270000D02*
X135270000Y-64270000D01*
X128730000Y-61530000D02*
X128730000Y-64270000D01*
X127960000Y-62900000D02*
X128730000Y-62900000D01*
%TO.C,R2*%
X143000000Y-100000000D02*
X142230000Y-100000000D01*
X142230000Y-101370000D02*
X142230000Y-98630000D01*
X142230000Y-98630000D02*
X135690000Y-98630000D01*
X135690000Y-101370000D02*
X142230000Y-101370000D01*
X135690000Y-98630000D02*
X135690000Y-101370000D01*
X134920000Y-100000000D02*
X135690000Y-100000000D01*
%TO.C,R1*%
X130240000Y-100000000D02*
X129470000Y-100000000D01*
X129470000Y-101370000D02*
X129470000Y-98630000D01*
X129470000Y-98630000D02*
X122930000Y-98630000D01*
X122930000Y-101370000D02*
X129470000Y-101370000D01*
X122930000Y-98630000D02*
X122930000Y-101370000D01*
X122160000Y-100000000D02*
X122930000Y-100000000D01*
%TO.C,L1*%
X136280000Y-45500000D02*
G75*
G02*
X127340000Y-45500000I-4470000J0D01*
G01*
X127340000Y-45500000D02*
G75*
G02*
X136280000Y-45500000I4470000J0D01*
G01*
%TO.C,C2*%
X133590302Y-88185000D02*
X134390302Y-88185000D01*
X133990302Y-87785000D02*
X133990302Y-88585000D01*
X138000000Y-86420000D02*
X138000000Y-94580000D01*
X138040000Y-86420000D02*
X138040000Y-94580000D01*
X138080000Y-86420000D02*
X138080000Y-94580000D01*
X138120000Y-86421000D02*
X138120000Y-94579000D01*
X138160000Y-86423000D02*
X138160000Y-94577000D01*
X138200000Y-86424000D02*
X138200000Y-94576000D01*
X138240000Y-86426000D02*
X138240000Y-94574000D01*
X138280000Y-86429000D02*
X138280000Y-94571000D01*
X138320000Y-86432000D02*
X138320000Y-94568000D01*
X138360000Y-86435000D02*
X138360000Y-94565000D01*
X138400000Y-86439000D02*
X138400000Y-94561000D01*
X138440000Y-86443000D02*
X138440000Y-94557000D01*
X138480000Y-86448000D02*
X138480000Y-94552000D01*
X138520000Y-86452000D02*
X138520000Y-94548000D01*
X138560000Y-86458000D02*
X138560000Y-94542000D01*
X138600000Y-86463000D02*
X138600000Y-94537000D01*
X138640000Y-86470000D02*
X138640000Y-94530000D01*
X138680000Y-86476000D02*
X138680000Y-94524000D01*
X138721000Y-86483000D02*
X138721000Y-94517000D01*
X138761000Y-86490000D02*
X138761000Y-94510000D01*
X138801000Y-86498000D02*
X138801000Y-94502000D01*
X138841000Y-86506000D02*
X138841000Y-94494000D01*
X138881000Y-86515000D02*
X138881000Y-94485000D01*
X138921000Y-86524000D02*
X138921000Y-94476000D01*
X138961000Y-86533000D02*
X138961000Y-94467000D01*
X139001000Y-86543000D02*
X139001000Y-94457000D01*
X139041000Y-86553000D02*
X139041000Y-94447000D01*
X139081000Y-86564000D02*
X139081000Y-94436000D01*
X139121000Y-86575000D02*
X139121000Y-94425000D01*
X139161000Y-86586000D02*
X139161000Y-94414000D01*
X139201000Y-86598000D02*
X139201000Y-94402000D01*
X139241000Y-86611000D02*
X139241000Y-94389000D01*
X139281000Y-86623000D02*
X139281000Y-94377000D01*
X139321000Y-86637000D02*
X139321000Y-94363000D01*
X139361000Y-86650000D02*
X139361000Y-94350000D01*
X139401000Y-86665000D02*
X139401000Y-94335000D01*
X139441000Y-86679000D02*
X139441000Y-94321000D01*
X139481000Y-86695000D02*
X139481000Y-89460000D01*
X139481000Y-91540000D02*
X139481000Y-94305000D01*
X139521000Y-86710000D02*
X139521000Y-89460000D01*
X139521000Y-91540000D02*
X139521000Y-94290000D01*
X139561000Y-86726000D02*
X139561000Y-89460000D01*
X139561000Y-91540000D02*
X139561000Y-94274000D01*
X139601000Y-86743000D02*
X139601000Y-89460000D01*
X139601000Y-91540000D02*
X139601000Y-94257000D01*
X139641000Y-86760000D02*
X139641000Y-89460000D01*
X139641000Y-91540000D02*
X139641000Y-94240000D01*
X139681000Y-86778000D02*
X139681000Y-89460000D01*
X139681000Y-91540000D02*
X139681000Y-94222000D01*
X139721000Y-86796000D02*
X139721000Y-89460000D01*
X139721000Y-91540000D02*
X139721000Y-94204000D01*
X139761000Y-86814000D02*
X139761000Y-89460000D01*
X139761000Y-91540000D02*
X139761000Y-94186000D01*
X139801000Y-86834000D02*
X139801000Y-89460000D01*
X139801000Y-91540000D02*
X139801000Y-94166000D01*
X139841000Y-86853000D02*
X139841000Y-89460000D01*
X139841000Y-91540000D02*
X139841000Y-94147000D01*
X139881000Y-86873000D02*
X139881000Y-89460000D01*
X139881000Y-91540000D02*
X139881000Y-94127000D01*
X139921000Y-86894000D02*
X139921000Y-89460000D01*
X139921000Y-91540000D02*
X139921000Y-94106000D01*
X139961000Y-86916000D02*
X139961000Y-89460000D01*
X139961000Y-91540000D02*
X139961000Y-94084000D01*
X140001000Y-86938000D02*
X140001000Y-89460000D01*
X140001000Y-91540000D02*
X140001000Y-94062000D01*
X140041000Y-86960000D02*
X140041000Y-89460000D01*
X140041000Y-91540000D02*
X140041000Y-94040000D01*
X140081000Y-86983000D02*
X140081000Y-89460000D01*
X140081000Y-91540000D02*
X140081000Y-94017000D01*
X140121000Y-87007000D02*
X140121000Y-89460000D01*
X140121000Y-91540000D02*
X140121000Y-93993000D01*
X140161000Y-87031000D02*
X140161000Y-89460000D01*
X140161000Y-91540000D02*
X140161000Y-93969000D01*
X140201000Y-87056000D02*
X140201000Y-89460000D01*
X140201000Y-91540000D02*
X140201000Y-93944000D01*
X140241000Y-87082000D02*
X140241000Y-89460000D01*
X140241000Y-91540000D02*
X140241000Y-93918000D01*
X140281000Y-87108000D02*
X140281000Y-89460000D01*
X140281000Y-91540000D02*
X140281000Y-93892000D01*
X140321000Y-87135000D02*
X140321000Y-89460000D01*
X140321000Y-91540000D02*
X140321000Y-93865000D01*
X140361000Y-87162000D02*
X140361000Y-89460000D01*
X140361000Y-91540000D02*
X140361000Y-93838000D01*
X140401000Y-87191000D02*
X140401000Y-89460000D01*
X140401000Y-91540000D02*
X140401000Y-93809000D01*
X140441000Y-87220000D02*
X140441000Y-89460000D01*
X140441000Y-91540000D02*
X140441000Y-93780000D01*
X140481000Y-87250000D02*
X140481000Y-89460000D01*
X140481000Y-91540000D02*
X140481000Y-93750000D01*
X140521000Y-87280000D02*
X140521000Y-89460000D01*
X140521000Y-91540000D02*
X140521000Y-93720000D01*
X140561000Y-87311000D02*
X140561000Y-89460000D01*
X140561000Y-91540000D02*
X140561000Y-93689000D01*
X140601000Y-87344000D02*
X140601000Y-89460000D01*
X140601000Y-91540000D02*
X140601000Y-93656000D01*
X140641000Y-87376000D02*
X140641000Y-89460000D01*
X140641000Y-91540000D02*
X140641000Y-93624000D01*
X140681000Y-87410000D02*
X140681000Y-89460000D01*
X140681000Y-91540000D02*
X140681000Y-93590000D01*
X140721000Y-87445000D02*
X140721000Y-89460000D01*
X140721000Y-91540000D02*
X140721000Y-93555000D01*
X140761000Y-87481000D02*
X140761000Y-89460000D01*
X140761000Y-91540000D02*
X140761000Y-93519000D01*
X140801000Y-87517000D02*
X140801000Y-89460000D01*
X140801000Y-91540000D02*
X140801000Y-93483000D01*
X140841000Y-87555000D02*
X140841000Y-89460000D01*
X140841000Y-91540000D02*
X140841000Y-93445000D01*
X140881000Y-87593000D02*
X140881000Y-89460000D01*
X140881000Y-91540000D02*
X140881000Y-93407000D01*
X140921000Y-87633000D02*
X140921000Y-89460000D01*
X140921000Y-91540000D02*
X140921000Y-93367000D01*
X140961000Y-87674000D02*
X140961000Y-89460000D01*
X140961000Y-91540000D02*
X140961000Y-93326000D01*
X141001000Y-87716000D02*
X141001000Y-89460000D01*
X141001000Y-91540000D02*
X141001000Y-93284000D01*
X141041000Y-87759000D02*
X141041000Y-89460000D01*
X141041000Y-91540000D02*
X141041000Y-93241000D01*
X141081000Y-87803000D02*
X141081000Y-89460000D01*
X141081000Y-91540000D02*
X141081000Y-93197000D01*
X141121000Y-87849000D02*
X141121000Y-89460000D01*
X141121000Y-91540000D02*
X141121000Y-93151000D01*
X141161000Y-87896000D02*
X141161000Y-89460000D01*
X141161000Y-91540000D02*
X141161000Y-93104000D01*
X141201000Y-87944000D02*
X141201000Y-89460000D01*
X141201000Y-91540000D02*
X141201000Y-93056000D01*
X141241000Y-87995000D02*
X141241000Y-89460000D01*
X141241000Y-91540000D02*
X141241000Y-93005000D01*
X141281000Y-88046000D02*
X141281000Y-89460000D01*
X141281000Y-91540000D02*
X141281000Y-92954000D01*
X141321000Y-88100000D02*
X141321000Y-89460000D01*
X141321000Y-91540000D02*
X141321000Y-92900000D01*
X141361000Y-88155000D02*
X141361000Y-89460000D01*
X141361000Y-91540000D02*
X141361000Y-92845000D01*
X141401000Y-88213000D02*
X141401000Y-89460000D01*
X141401000Y-91540000D02*
X141401000Y-92787000D01*
X141441000Y-88272000D02*
X141441000Y-89460000D01*
X141441000Y-91540000D02*
X141441000Y-92728000D01*
X141481000Y-88334000D02*
X141481000Y-89460000D01*
X141481000Y-91540000D02*
X141481000Y-92666000D01*
X141521000Y-88398000D02*
X141521000Y-89460000D01*
X141521000Y-91540000D02*
X141521000Y-92602000D01*
X141561000Y-88466000D02*
X141561000Y-92534000D01*
X141601000Y-88536000D02*
X141601000Y-92464000D01*
X141641000Y-88610000D02*
X141641000Y-92390000D01*
X141681000Y-88687000D02*
X141681000Y-92313000D01*
X141721000Y-88769000D02*
X141721000Y-92231000D01*
X141761000Y-88855000D02*
X141761000Y-92145000D01*
X141801000Y-88948000D02*
X141801000Y-92052000D01*
X141841000Y-89047000D02*
X141841000Y-91953000D01*
X141881000Y-89154000D02*
X141881000Y-91846000D01*
X141921000Y-89271000D02*
X141921000Y-91729000D01*
X141961000Y-89402000D02*
X141961000Y-91598000D01*
X142001000Y-89552000D02*
X142001000Y-91448000D01*
X142041000Y-89732000D02*
X142041000Y-91268000D01*
X142081000Y-89967000D02*
X142081000Y-91033000D01*
X142120000Y-90500000D02*
G75*
G02*
X133880000Y-90500000I-4120000J0D01*
G01*
X133880000Y-90500000D02*
G75*
G02*
X142120000Y-90500000I4120000J0D01*
G01*
%TO.C,C1*%
X130120000Y-90500000D02*
G75*
G02*
X121880000Y-90500000I-4120000J0D01*
G01*
X121880000Y-90500000D02*
G75*
G02*
X130120000Y-90500000I4120000J0D01*
G01*
X130081000Y-89967000D02*
X130081000Y-91033000D01*
X130041000Y-89732000D02*
X130041000Y-91268000D01*
X130001000Y-89552000D02*
X130001000Y-91448000D01*
X129961000Y-89402000D02*
X129961000Y-91598000D01*
X129921000Y-89271000D02*
X129921000Y-91729000D01*
X129881000Y-89154000D02*
X129881000Y-91846000D01*
X129841000Y-89047000D02*
X129841000Y-91953000D01*
X129801000Y-88948000D02*
X129801000Y-92052000D01*
X129761000Y-88855000D02*
X129761000Y-92145000D01*
X129721000Y-88769000D02*
X129721000Y-92231000D01*
X129681000Y-88687000D02*
X129681000Y-92313000D01*
X129641000Y-88610000D02*
X129641000Y-92390000D01*
X129601000Y-88536000D02*
X129601000Y-92464000D01*
X129561000Y-88466000D02*
X129561000Y-92534000D01*
X129521000Y-91540000D02*
X129521000Y-92602000D01*
X129521000Y-88398000D02*
X129521000Y-89460000D01*
X129481000Y-91540000D02*
X129481000Y-92666000D01*
X129481000Y-88334000D02*
X129481000Y-89460000D01*
X129441000Y-91540000D02*
X129441000Y-92728000D01*
X129441000Y-88272000D02*
X129441000Y-89460000D01*
X129401000Y-91540000D02*
X129401000Y-92787000D01*
X129401000Y-88213000D02*
X129401000Y-89460000D01*
X129361000Y-91540000D02*
X129361000Y-92845000D01*
X129361000Y-88155000D02*
X129361000Y-89460000D01*
X129321000Y-91540000D02*
X129321000Y-92900000D01*
X129321000Y-88100000D02*
X129321000Y-89460000D01*
X129281000Y-91540000D02*
X129281000Y-92954000D01*
X129281000Y-88046000D02*
X129281000Y-89460000D01*
X129241000Y-91540000D02*
X129241000Y-93005000D01*
X129241000Y-87995000D02*
X129241000Y-89460000D01*
X129201000Y-91540000D02*
X129201000Y-93056000D01*
X129201000Y-87944000D02*
X129201000Y-89460000D01*
X129161000Y-91540000D02*
X129161000Y-93104000D01*
X129161000Y-87896000D02*
X129161000Y-89460000D01*
X129121000Y-91540000D02*
X129121000Y-93151000D01*
X129121000Y-87849000D02*
X129121000Y-89460000D01*
X129081000Y-91540000D02*
X129081000Y-93197000D01*
X129081000Y-87803000D02*
X129081000Y-89460000D01*
X129041000Y-91540000D02*
X129041000Y-93241000D01*
X129041000Y-87759000D02*
X129041000Y-89460000D01*
X129001000Y-91540000D02*
X129001000Y-93284000D01*
X129001000Y-87716000D02*
X129001000Y-89460000D01*
X128961000Y-91540000D02*
X128961000Y-93326000D01*
X128961000Y-87674000D02*
X128961000Y-89460000D01*
X128921000Y-91540000D02*
X128921000Y-93367000D01*
X128921000Y-87633000D02*
X128921000Y-89460000D01*
X128881000Y-91540000D02*
X128881000Y-93407000D01*
X128881000Y-87593000D02*
X128881000Y-89460000D01*
X128841000Y-91540000D02*
X128841000Y-93445000D01*
X128841000Y-87555000D02*
X128841000Y-89460000D01*
X128801000Y-91540000D02*
X128801000Y-93483000D01*
X128801000Y-87517000D02*
X128801000Y-89460000D01*
X128761000Y-91540000D02*
X128761000Y-93519000D01*
X128761000Y-87481000D02*
X128761000Y-89460000D01*
X128721000Y-91540000D02*
X128721000Y-93555000D01*
X128721000Y-87445000D02*
X128721000Y-89460000D01*
X128681000Y-91540000D02*
X128681000Y-93590000D01*
X128681000Y-87410000D02*
X128681000Y-89460000D01*
X128641000Y-91540000D02*
X128641000Y-93624000D01*
X128641000Y-87376000D02*
X128641000Y-89460000D01*
X128601000Y-91540000D02*
X128601000Y-93656000D01*
X128601000Y-87344000D02*
X128601000Y-89460000D01*
X128561000Y-91540000D02*
X128561000Y-93689000D01*
X128561000Y-87311000D02*
X128561000Y-89460000D01*
X128521000Y-91540000D02*
X128521000Y-93720000D01*
X128521000Y-87280000D02*
X128521000Y-89460000D01*
X128481000Y-91540000D02*
X128481000Y-93750000D01*
X128481000Y-87250000D02*
X128481000Y-89460000D01*
X128441000Y-91540000D02*
X128441000Y-93780000D01*
X128441000Y-87220000D02*
X128441000Y-89460000D01*
X128401000Y-91540000D02*
X128401000Y-93809000D01*
X128401000Y-87191000D02*
X128401000Y-89460000D01*
X128361000Y-91540000D02*
X128361000Y-93838000D01*
X128361000Y-87162000D02*
X128361000Y-89460000D01*
X128321000Y-91540000D02*
X128321000Y-93865000D01*
X128321000Y-87135000D02*
X128321000Y-89460000D01*
X128281000Y-91540000D02*
X128281000Y-93892000D01*
X128281000Y-87108000D02*
X128281000Y-89460000D01*
X128241000Y-91540000D02*
X128241000Y-93918000D01*
X128241000Y-87082000D02*
X128241000Y-89460000D01*
X128201000Y-91540000D02*
X128201000Y-93944000D01*
X128201000Y-87056000D02*
X128201000Y-89460000D01*
X128161000Y-91540000D02*
X128161000Y-93969000D01*
X128161000Y-87031000D02*
X128161000Y-89460000D01*
X128121000Y-91540000D02*
X128121000Y-93993000D01*
X128121000Y-87007000D02*
X128121000Y-89460000D01*
X128081000Y-91540000D02*
X128081000Y-94017000D01*
X128081000Y-86983000D02*
X128081000Y-89460000D01*
X128041000Y-91540000D02*
X128041000Y-94040000D01*
X128041000Y-86960000D02*
X128041000Y-89460000D01*
X128001000Y-91540000D02*
X128001000Y-94062000D01*
X128001000Y-86938000D02*
X128001000Y-89460000D01*
X127961000Y-91540000D02*
X127961000Y-94084000D01*
X127961000Y-86916000D02*
X127961000Y-89460000D01*
X127921000Y-91540000D02*
X127921000Y-94106000D01*
X127921000Y-86894000D02*
X127921000Y-89460000D01*
X127881000Y-91540000D02*
X127881000Y-94127000D01*
X127881000Y-86873000D02*
X127881000Y-89460000D01*
X127841000Y-91540000D02*
X127841000Y-94147000D01*
X127841000Y-86853000D02*
X127841000Y-89460000D01*
X127801000Y-91540000D02*
X127801000Y-94166000D01*
X127801000Y-86834000D02*
X127801000Y-89460000D01*
X127761000Y-91540000D02*
X127761000Y-94186000D01*
X127761000Y-86814000D02*
X127761000Y-89460000D01*
X127721000Y-91540000D02*
X127721000Y-94204000D01*
X127721000Y-86796000D02*
X127721000Y-89460000D01*
X127681000Y-91540000D02*
X127681000Y-94222000D01*
X127681000Y-86778000D02*
X127681000Y-89460000D01*
X127641000Y-91540000D02*
X127641000Y-94240000D01*
X127641000Y-86760000D02*
X127641000Y-89460000D01*
X127601000Y-91540000D02*
X127601000Y-94257000D01*
X127601000Y-86743000D02*
X127601000Y-89460000D01*
X127561000Y-91540000D02*
X127561000Y-94274000D01*
X127561000Y-86726000D02*
X127561000Y-89460000D01*
X127521000Y-91540000D02*
X127521000Y-94290000D01*
X127521000Y-86710000D02*
X127521000Y-89460000D01*
X127481000Y-91540000D02*
X127481000Y-94305000D01*
X127481000Y-86695000D02*
X127481000Y-89460000D01*
X127441000Y-86679000D02*
X127441000Y-94321000D01*
X127401000Y-86665000D02*
X127401000Y-94335000D01*
X127361000Y-86650000D02*
X127361000Y-94350000D01*
X127321000Y-86637000D02*
X127321000Y-94363000D01*
X127281000Y-86623000D02*
X127281000Y-94377000D01*
X127241000Y-86611000D02*
X127241000Y-94389000D01*
X127201000Y-86598000D02*
X127201000Y-94402000D01*
X127161000Y-86586000D02*
X127161000Y-94414000D01*
X127121000Y-86575000D02*
X127121000Y-94425000D01*
X127081000Y-86564000D02*
X127081000Y-94436000D01*
X127041000Y-86553000D02*
X127041000Y-94447000D01*
X127001000Y-86543000D02*
X127001000Y-94457000D01*
X126961000Y-86533000D02*
X126961000Y-94467000D01*
X126921000Y-86524000D02*
X126921000Y-94476000D01*
X126881000Y-86515000D02*
X126881000Y-94485000D01*
X126841000Y-86506000D02*
X126841000Y-94494000D01*
X126801000Y-86498000D02*
X126801000Y-94502000D01*
X126761000Y-86490000D02*
X126761000Y-94510000D01*
X126721000Y-86483000D02*
X126721000Y-94517000D01*
X126680000Y-86476000D02*
X126680000Y-94524000D01*
X126640000Y-86470000D02*
X126640000Y-94530000D01*
X126600000Y-86463000D02*
X126600000Y-94537000D01*
X126560000Y-86458000D02*
X126560000Y-94542000D01*
X126520000Y-86452000D02*
X126520000Y-94548000D01*
X126480000Y-86448000D02*
X126480000Y-94552000D01*
X126440000Y-86443000D02*
X126440000Y-94557000D01*
X126400000Y-86439000D02*
X126400000Y-94561000D01*
X126360000Y-86435000D02*
X126360000Y-94565000D01*
X126320000Y-86432000D02*
X126320000Y-94568000D01*
X126280000Y-86429000D02*
X126280000Y-94571000D01*
X126240000Y-86426000D02*
X126240000Y-94574000D01*
X126200000Y-86424000D02*
X126200000Y-94576000D01*
X126160000Y-86423000D02*
X126160000Y-94577000D01*
X126120000Y-86421000D02*
X126120000Y-94579000D01*
X126080000Y-86420000D02*
X126080000Y-94580000D01*
X126040000Y-86420000D02*
X126040000Y-94580000D01*
X126000000Y-86420000D02*
X126000000Y-94580000D01*
X121990302Y-87785000D02*
X121990302Y-88585000D01*
X121590302Y-88185000D02*
X122390302Y-88185000D01*
%TO.C,U1*%
X136690000Y-72260000D02*
X126290000Y-72260000D01*
X126290000Y-72260000D02*
X126290000Y-82760000D01*
X136630000Y-75260000D02*
X126350000Y-75260000D01*
X126350000Y-75260000D02*
X126350000Y-79760000D01*
X136630000Y-76510000D02*
X136630000Y-75260000D01*
X136630000Y-79760000D02*
X136630000Y-78510000D01*
X126350000Y-79760000D02*
X136630000Y-79760000D01*
X136690000Y-82760000D02*
X136690000Y-72260000D01*
X126290000Y-82760000D02*
X136690000Y-82760000D01*
X136630000Y-78510000D02*
G75*
G02*
X136630000Y-76510000I0J1000000D01*
G01*
%TO.C,Audio Out*%
X133580000Y-174000000D02*
G75*
G02*
X129980000Y-174000000I-1800000J0D01*
G01*
X129980000Y-174000000D02*
G75*
G02*
X133580000Y-174000000I1800000J0D01*
G01*
X137780000Y-169500000D02*
X137780000Y-173200000D01*
X127280000Y-169500000D02*
X137780000Y-169500000D01*
X127280000Y-169500000D02*
X127280000Y-173280000D01*
X127280000Y-174720000D02*
X127280000Y-178500000D01*
X137780000Y-174800000D02*
X137780000Y-178500000D01*
X124130000Y-175230000D02*
X124130000Y-174370000D01*
X124130000Y-175230000D02*
X124930000Y-175230000D01*
X127280000Y-178500000D02*
X137780000Y-178500000D01*
%TO.C,C4*%
X128090000Y-58620000D02*
X128090000Y-55380000D01*
X135530000Y-55380000D02*
X128090000Y-55380000D01*
X135530000Y-58620000D02*
X128090000Y-58620000D01*
X135530000Y-58620000D02*
X135530000Y-55380000D01*
%TO.C,C3*%
X136120000Y-164480000D02*
X136120000Y-167720000D01*
X128680000Y-167720000D02*
X136120000Y-167720000D01*
X128680000Y-164480000D02*
X136120000Y-164480000D01*
X128680000Y-164480000D02*
X128680000Y-167720000D01*
%TO.C,9V Battery*%
X136305000Y-108700000D02*
G75*
G02*
X133195000Y-108700000I-1555000J0D01*
G01*
X133195000Y-108700000D02*
G75*
G02*
X136305000Y-108700000I1555000J0D01*
G01*
X131182109Y-108092258D02*
G75*
G02*
X131182000Y-109308000I-1432112J-607743D01*
G01*
X130357587Y-110131385D02*
G75*
G02*
X129750000Y-110255000I-607587J1431385D01*
G01*
X129777011Y-110255493D02*
G75*
G02*
X129142000Y-110132000I-27013J1555481D01*
G01*
X129142258Y-107267891D02*
G75*
G02*
X130358000Y-107268000I607742J-1432109D01*
G01*
X128317891Y-109307742D02*
G75*
G02*
X128318000Y-108092000I1432109J607742D01*
G01*
X137310000Y-103840000D02*
X137310000Y-114160000D01*
X127190000Y-114160000D02*
X137310000Y-114160000D01*
X127190000Y-113600000D02*
X137310000Y-113600000D01*
X127190000Y-112500000D02*
X137310000Y-112500000D01*
X127190000Y-103840000D02*
X137310000Y-103840000D01*
X127190000Y-103840000D02*
X127190000Y-114160000D01*
X126950000Y-114400000D02*
X127450000Y-114400000D01*
X126950000Y-113660000D02*
X126950000Y-114400000D01*
%TD*%
M02*
