M48
; DRILL file {KiCad 8.0.2-1} date 2024-06-20T14:35:37+0800
; FORMAT={-:-/ absolute / inch / decimal}
; #@! TF.CreationDate,2024-06-20T14:35:37+08:00
; #@! TF.GenerationSoftware,Kicad,Pcbnew,8.0.2-1
; #@! TF.FileFunction,Plated,1,2,PTH
FMAT,2
INCH
; #@! TA.AperFunction,Plated,PTH,ComponentDrill
T1C0.0315
; #@! TA.AperFunction,Plated,PTH,ComponentDrill
T2C0.0472
; #@! TA.AperFunction,Plated,PTH,ComponentDrill
T3C0.0480
; #@! TA.AperFunction,Plated,PTH,ComponentDrill
T4C0.0512
; #@! TA.AperFunction,Plated,PTH,ComponentDrill
T5C0.0559
; #@! TA.AperFunction,Plated,PTH,ComponentDrill
T6C0.0563
%
G90
G05
T1
X4.7685Y-3.937
X4.8622Y-3.563
X4.9969Y-2.4764
X5.0008Y-2.6772
X5.0268Y-2.9016
X5.0268Y-3.2016
X5.0591Y-3.563
X5.0909Y-2.2441
X5.1142Y-6.5394
X5.1268Y-2.9016
X5.1268Y-3.2016
X5.1685Y-3.937
X5.2268Y-2.9016
X5.2268Y-3.2016
X5.2709Y-3.937
X5.2878Y-2.2441
X5.311Y-6.5394
X5.3268Y-2.9016
X5.3268Y-3.2016
X5.3346Y-3.563
X5.3969Y-2.4764
X5.4008Y-2.6772
X5.5315Y-3.563
X5.6709Y-3.937
T2
X5.1083Y-4.2795
X5.3051Y-4.2795
T3
X4.9331Y-6.8504
T4
X5.0909Y-1.7913
X5.2878Y-1.7913
T5
X5.0551Y-6.8504
T6
X5.3819Y-6.8504
M30
