%TF.GenerationSoftware,KiCad,Pcbnew,8.0.5*%
%TF.CreationDate,2025-02-18T01:30:24+08:00*%
%TF.ProjectId,troubleSeeker,74726f75-626c-4655-9365-656b65722e6b,rev?*%
%TF.SameCoordinates,Original*%
%TF.FileFunction,Drillmap*%
%TF.FilePolarity,Positive*%
%FSLAX45Y45*%
G04 Gerber Fmt 4.5, Leading zero omitted, Abs format (unit mm)*
G04 Created by KiCad (PCBNEW 8.0.5) date 2025-02-18 01:30:24*
%MOMM*%
%LPD*%
G01*
G04 APERTURE LIST*
%ADD10C,0.050000*%
%ADD11C,0.200000*%
%ADD12C,0.120000*%
%ADD13C,0.260000*%
G04 APERTURE END LIST*
D10*
X15590000Y-6840000D02*
G75*
G02*
X15270000Y-6840000I-160000J0D01*
G01*
X15270000Y-6840000D02*
G75*
G02*
X15590000Y-6840000I160000J0D01*
G01*
D11*
X12528381Y-4253373D02*
G75*
G02*
X13674610Y-3980000I681229J-316627D01*
G01*
X15951228Y-16620010D02*
X15620000Y-17960000D01*
X14945000Y-3980000D02*
X14805000Y-4615000D01*
X13674610Y-3980000D02*
X13814610Y-4615000D01*
D10*
X14470000Y-16590000D02*
G75*
G02*
X14150000Y-16590000I-160000J0D01*
G01*
X14150000Y-16590000D02*
G75*
G02*
X14470000Y-16590000I160000J0D01*
G01*
D11*
X13100282Y-18109275D02*
G75*
G02*
X12980000Y-17960000I69718J179275D01*
G01*
X12528381Y-4253373D02*
X12668382Y-4888373D01*
X15951228Y-12768387D02*
X15951228Y-16620010D01*
X16091228Y-4253373D02*
X15951228Y-4888373D01*
X14719615Y-4692870D02*
X13899995Y-4692870D01*
X15620000Y-17960000D02*
G75*
G02*
X15499718Y-18109275I-190000J30000D01*
G01*
X12668382Y-16620010D02*
X12980000Y-17960000D01*
X12668382Y-12768387D02*
X12668382Y-16620010D01*
X15951228Y-12768387D02*
X15951228Y-4888373D01*
X15020000Y-18110000D02*
X15499718Y-18109275D01*
X13899995Y-4692870D02*
G75*
G02*
X13814609Y-4615000I-7185J77870D01*
G01*
X12668382Y-12768387D02*
X12668382Y-4888373D01*
X14805000Y-4615000D02*
G75*
G02*
X14719615Y-4692869I-78200J0D01*
G01*
X14945000Y-3980000D02*
G75*
G02*
X16091228Y-4253373I465000J-590000D01*
G01*
X13720000Y-18110000D02*
X13100282Y-18109275D01*
D10*
X13350000Y-6840000D02*
G75*
G02*
X13030000Y-6840000I-160000J0D01*
G01*
X13030000Y-6840000D02*
G75*
G02*
X13350000Y-6840000I160000J0D01*
G01*
D12*
X14150000Y-18010000D02*
X14150000Y-18110000D01*
X14150000Y-18110000D02*
X13720000Y-18110000D01*
X14550000Y-17970000D02*
X14190000Y-17970000D01*
X14590000Y-18010000D02*
X14590000Y-18110000D01*
X14590000Y-18110000D02*
X15020000Y-18110000D01*
X14150000Y-18010000D02*
G75*
G02*
X14190000Y-17970000I40000J0D01*
G01*
X14550000Y-17970000D02*
G75*
G02*
X14590000Y-18010000I0J-40000D01*
G01*
D11*
D12*
X13810000Y-17600000D02*
X13930000Y-17720000D01*
X13930000Y-17600000D02*
X13810000Y-17720000D01*
X13810000Y-17850000D02*
X13930000Y-17970000D01*
X13930000Y-17850000D02*
X13810000Y-17970000D01*
X14310000Y-17100000D02*
X14430000Y-17220000D01*
X14430000Y-17100000D02*
X14310000Y-17220000D01*
X14810000Y-17600000D02*
X14930000Y-17720000D01*
X14930000Y-17600000D02*
X14810000Y-17720000D01*
X14810000Y-17850000D02*
X14930000Y-17970000D01*
X14930000Y-17850000D02*
X14810000Y-17970000D01*
D13*
X13320000Y-13540000D02*
G75*
G02*
X13060000Y-13540000I-130000J0D01*
G01*
X13060000Y-13540000D02*
G75*
G02*
X13320000Y-13540000I130000J0D01*
G01*
X15540000Y-12215000D02*
G75*
G02*
X15280000Y-12215000I-130000J0D01*
G01*
X15280000Y-12215000D02*
G75*
G02*
X15540000Y-12215000I130000J0D01*
G01*
X15540000Y-15015000D02*
G75*
G02*
X15280000Y-15015000I-130000J0D01*
G01*
X15280000Y-15015000D02*
G75*
G02*
X15540000Y-15015000I130000J0D01*
G01*
D11*
X12779158Y-18431484D02*
X12779158Y-18231484D01*
X12779158Y-18231484D02*
X12826777Y-18231484D01*
X12826777Y-18231484D02*
X12855349Y-18241008D01*
X12855349Y-18241008D02*
X12874396Y-18260055D01*
X12874396Y-18260055D02*
X12883920Y-18279103D01*
X12883920Y-18279103D02*
X12893444Y-18317198D01*
X12893444Y-18317198D02*
X12893444Y-18345770D01*
X12893444Y-18345770D02*
X12883920Y-18383865D01*
X12883920Y-18383865D02*
X12874396Y-18402912D01*
X12874396Y-18402912D02*
X12855349Y-18421960D01*
X12855349Y-18421960D02*
X12826777Y-18431484D01*
X12826777Y-18431484D02*
X12779158Y-18431484D01*
X12979158Y-18431484D02*
X12979158Y-18298150D01*
X12979158Y-18336246D02*
X12988682Y-18317198D01*
X12988682Y-18317198D02*
X12998206Y-18307674D01*
X12998206Y-18307674D02*
X13017253Y-18298150D01*
X13017253Y-18298150D02*
X13036301Y-18298150D01*
X13102968Y-18431484D02*
X13102968Y-18298150D01*
X13102968Y-18231484D02*
X13093444Y-18241008D01*
X13093444Y-18241008D02*
X13102968Y-18250531D01*
X13102968Y-18250531D02*
X13112492Y-18241008D01*
X13112492Y-18241008D02*
X13102968Y-18231484D01*
X13102968Y-18231484D02*
X13102968Y-18250531D01*
X13226777Y-18431484D02*
X13207730Y-18421960D01*
X13207730Y-18421960D02*
X13198206Y-18402912D01*
X13198206Y-18402912D02*
X13198206Y-18231484D01*
X13331539Y-18431484D02*
X13312492Y-18421960D01*
X13312492Y-18421960D02*
X13302968Y-18402912D01*
X13302968Y-18402912D02*
X13302968Y-18231484D01*
X13560111Y-18431484D02*
X13560111Y-18231484D01*
X13560111Y-18231484D02*
X13626777Y-18374341D01*
X13626777Y-18374341D02*
X13693444Y-18231484D01*
X13693444Y-18231484D02*
X13693444Y-18431484D01*
X13874396Y-18431484D02*
X13874396Y-18326722D01*
X13874396Y-18326722D02*
X13864873Y-18307674D01*
X13864873Y-18307674D02*
X13845825Y-18298150D01*
X13845825Y-18298150D02*
X13807730Y-18298150D01*
X13807730Y-18298150D02*
X13788682Y-18307674D01*
X13874396Y-18421960D02*
X13855349Y-18431484D01*
X13855349Y-18431484D02*
X13807730Y-18431484D01*
X13807730Y-18431484D02*
X13788682Y-18421960D01*
X13788682Y-18421960D02*
X13779158Y-18402912D01*
X13779158Y-18402912D02*
X13779158Y-18383865D01*
X13779158Y-18383865D02*
X13788682Y-18364817D01*
X13788682Y-18364817D02*
X13807730Y-18355293D01*
X13807730Y-18355293D02*
X13855349Y-18355293D01*
X13855349Y-18355293D02*
X13874396Y-18345770D01*
X13969634Y-18298150D02*
X13969634Y-18498150D01*
X13969634Y-18307674D02*
X13988682Y-18298150D01*
X13988682Y-18298150D02*
X14026777Y-18298150D01*
X14026777Y-18298150D02*
X14045825Y-18307674D01*
X14045825Y-18307674D02*
X14055349Y-18317198D01*
X14055349Y-18317198D02*
X14064873Y-18336246D01*
X14064873Y-18336246D02*
X14064873Y-18393389D01*
X14064873Y-18393389D02*
X14055349Y-18412436D01*
X14055349Y-18412436D02*
X14045825Y-18421960D01*
X14045825Y-18421960D02*
X14026777Y-18431484D01*
X14026777Y-18431484D02*
X13988682Y-18431484D01*
X13988682Y-18431484D02*
X13969634Y-18421960D01*
X14150587Y-18412436D02*
X14160111Y-18421960D01*
X14160111Y-18421960D02*
X14150587Y-18431484D01*
X14150587Y-18431484D02*
X14141063Y-18421960D01*
X14141063Y-18421960D02*
X14150587Y-18412436D01*
X14150587Y-18412436D02*
X14150587Y-18431484D01*
X14150587Y-18307674D02*
X14160111Y-18317198D01*
X14160111Y-18317198D02*
X14150587Y-18326722D01*
X14150587Y-18326722D02*
X14141063Y-18317198D01*
X14141063Y-18317198D02*
X14150587Y-18307674D01*
X14150587Y-18307674D02*
X14150587Y-18326722D01*
D12*
X12398381Y-18700000D02*
X12518381Y-18820000D01*
X12518381Y-18700000D02*
X12398381Y-18820000D01*
D11*
X12883920Y-18851484D02*
X12769634Y-18851484D01*
X12826777Y-18851484D02*
X12826777Y-18651484D01*
X12826777Y-18651484D02*
X12807730Y-18680055D01*
X12807730Y-18680055D02*
X12788682Y-18699103D01*
X12788682Y-18699103D02*
X12769634Y-18708627D01*
X12969634Y-18832436D02*
X12979158Y-18841960D01*
X12979158Y-18841960D02*
X12969634Y-18851484D01*
X12969634Y-18851484D02*
X12960111Y-18841960D01*
X12960111Y-18841960D02*
X12969634Y-18832436D01*
X12969634Y-18832436D02*
X12969634Y-18851484D01*
X13055349Y-18670531D02*
X13064873Y-18661008D01*
X13064873Y-18661008D02*
X13083920Y-18651484D01*
X13083920Y-18651484D02*
X13131539Y-18651484D01*
X13131539Y-18651484D02*
X13150587Y-18661008D01*
X13150587Y-18661008D02*
X13160111Y-18670531D01*
X13160111Y-18670531D02*
X13169634Y-18689579D01*
X13169634Y-18689579D02*
X13169634Y-18708627D01*
X13169634Y-18708627D02*
X13160111Y-18737198D01*
X13160111Y-18737198D02*
X13045825Y-18851484D01*
X13045825Y-18851484D02*
X13169634Y-18851484D01*
X13293444Y-18651484D02*
X13312492Y-18651484D01*
X13312492Y-18651484D02*
X13331539Y-18661008D01*
X13331539Y-18661008D02*
X13341063Y-18670531D01*
X13341063Y-18670531D02*
X13350587Y-18689579D01*
X13350587Y-18689579D02*
X13360111Y-18727674D01*
X13360111Y-18727674D02*
X13360111Y-18775293D01*
X13360111Y-18775293D02*
X13350587Y-18813389D01*
X13350587Y-18813389D02*
X13341063Y-18832436D01*
X13341063Y-18832436D02*
X13331539Y-18841960D01*
X13331539Y-18841960D02*
X13312492Y-18851484D01*
X13312492Y-18851484D02*
X13293444Y-18851484D01*
X13293444Y-18851484D02*
X13274396Y-18841960D01*
X13274396Y-18841960D02*
X13264873Y-18832436D01*
X13264873Y-18832436D02*
X13255349Y-18813389D01*
X13255349Y-18813389D02*
X13245825Y-18775293D01*
X13245825Y-18775293D02*
X13245825Y-18727674D01*
X13245825Y-18727674D02*
X13255349Y-18689579D01*
X13255349Y-18689579D02*
X13264873Y-18670531D01*
X13264873Y-18670531D02*
X13274396Y-18661008D01*
X13274396Y-18661008D02*
X13293444Y-18651484D01*
X13483920Y-18651484D02*
X13502968Y-18651484D01*
X13502968Y-18651484D02*
X13522015Y-18661008D01*
X13522015Y-18661008D02*
X13531539Y-18670531D01*
X13531539Y-18670531D02*
X13541063Y-18689579D01*
X13541063Y-18689579D02*
X13550587Y-18727674D01*
X13550587Y-18727674D02*
X13550587Y-18775293D01*
X13550587Y-18775293D02*
X13541063Y-18813389D01*
X13541063Y-18813389D02*
X13531539Y-18832436D01*
X13531539Y-18832436D02*
X13522015Y-18841960D01*
X13522015Y-18841960D02*
X13502968Y-18851484D01*
X13502968Y-18851484D02*
X13483920Y-18851484D01*
X13483920Y-18851484D02*
X13464873Y-18841960D01*
X13464873Y-18841960D02*
X13455349Y-18832436D01*
X13455349Y-18832436D02*
X13445825Y-18813389D01*
X13445825Y-18813389D02*
X13436301Y-18775293D01*
X13436301Y-18775293D02*
X13436301Y-18727674D01*
X13436301Y-18727674D02*
X13445825Y-18689579D01*
X13445825Y-18689579D02*
X13455349Y-18670531D01*
X13455349Y-18670531D02*
X13464873Y-18661008D01*
X13464873Y-18661008D02*
X13483920Y-18651484D01*
X13636301Y-18851484D02*
X13636301Y-18718150D01*
X13636301Y-18737198D02*
X13645825Y-18727674D01*
X13645825Y-18727674D02*
X13664873Y-18718150D01*
X13664873Y-18718150D02*
X13693444Y-18718150D01*
X13693444Y-18718150D02*
X13712492Y-18727674D01*
X13712492Y-18727674D02*
X13722015Y-18746722D01*
X13722015Y-18746722D02*
X13722015Y-18851484D01*
X13722015Y-18746722D02*
X13731539Y-18727674D01*
X13731539Y-18727674D02*
X13750587Y-18718150D01*
X13750587Y-18718150D02*
X13779158Y-18718150D01*
X13779158Y-18718150D02*
X13798206Y-18727674D01*
X13798206Y-18727674D02*
X13807730Y-18746722D01*
X13807730Y-18746722D02*
X13807730Y-18851484D01*
X13902968Y-18851484D02*
X13902968Y-18718150D01*
X13902968Y-18737198D02*
X13912492Y-18727674D01*
X13912492Y-18727674D02*
X13931539Y-18718150D01*
X13931539Y-18718150D02*
X13960111Y-18718150D01*
X13960111Y-18718150D02*
X13979158Y-18727674D01*
X13979158Y-18727674D02*
X13988682Y-18746722D01*
X13988682Y-18746722D02*
X13988682Y-18851484D01*
X13988682Y-18746722D02*
X13998206Y-18727674D01*
X13998206Y-18727674D02*
X14017254Y-18718150D01*
X14017254Y-18718150D02*
X14045825Y-18718150D01*
X14045825Y-18718150D02*
X14064873Y-18727674D01*
X14064873Y-18727674D02*
X14074396Y-18746722D01*
X14074396Y-18746722D02*
X14074396Y-18851484D01*
X14464873Y-18641960D02*
X14293444Y-18899103D01*
X14722016Y-18651484D02*
X14741063Y-18651484D01*
X14741063Y-18651484D02*
X14760111Y-18661008D01*
X14760111Y-18661008D02*
X14769635Y-18670531D01*
X14769635Y-18670531D02*
X14779158Y-18689579D01*
X14779158Y-18689579D02*
X14788682Y-18727674D01*
X14788682Y-18727674D02*
X14788682Y-18775293D01*
X14788682Y-18775293D02*
X14779158Y-18813389D01*
X14779158Y-18813389D02*
X14769635Y-18832436D01*
X14769635Y-18832436D02*
X14760111Y-18841960D01*
X14760111Y-18841960D02*
X14741063Y-18851484D01*
X14741063Y-18851484D02*
X14722016Y-18851484D01*
X14722016Y-18851484D02*
X14702968Y-18841960D01*
X14702968Y-18841960D02*
X14693444Y-18832436D01*
X14693444Y-18832436D02*
X14683920Y-18813389D01*
X14683920Y-18813389D02*
X14674397Y-18775293D01*
X14674397Y-18775293D02*
X14674397Y-18727674D01*
X14674397Y-18727674D02*
X14683920Y-18689579D01*
X14683920Y-18689579D02*
X14693444Y-18670531D01*
X14693444Y-18670531D02*
X14702968Y-18661008D01*
X14702968Y-18661008D02*
X14722016Y-18651484D01*
X14874397Y-18832436D02*
X14883920Y-18841960D01*
X14883920Y-18841960D02*
X14874397Y-18851484D01*
X14874397Y-18851484D02*
X14864873Y-18841960D01*
X14864873Y-18841960D02*
X14874397Y-18832436D01*
X14874397Y-18832436D02*
X14874397Y-18851484D01*
X15007730Y-18651484D02*
X15026778Y-18651484D01*
X15026778Y-18651484D02*
X15045825Y-18661008D01*
X15045825Y-18661008D02*
X15055349Y-18670531D01*
X15055349Y-18670531D02*
X15064873Y-18689579D01*
X15064873Y-18689579D02*
X15074397Y-18727674D01*
X15074397Y-18727674D02*
X15074397Y-18775293D01*
X15074397Y-18775293D02*
X15064873Y-18813389D01*
X15064873Y-18813389D02*
X15055349Y-18832436D01*
X15055349Y-18832436D02*
X15045825Y-18841960D01*
X15045825Y-18841960D02*
X15026778Y-18851484D01*
X15026778Y-18851484D02*
X15007730Y-18851484D01*
X15007730Y-18851484D02*
X14988682Y-18841960D01*
X14988682Y-18841960D02*
X14979158Y-18832436D01*
X14979158Y-18832436D02*
X14969635Y-18813389D01*
X14969635Y-18813389D02*
X14960111Y-18775293D01*
X14960111Y-18775293D02*
X14960111Y-18727674D01*
X14960111Y-18727674D02*
X14969635Y-18689579D01*
X14969635Y-18689579D02*
X14979158Y-18670531D01*
X14979158Y-18670531D02*
X14988682Y-18661008D01*
X14988682Y-18661008D02*
X15007730Y-18651484D01*
X15245825Y-18718150D02*
X15245825Y-18851484D01*
X15198206Y-18641960D02*
X15150587Y-18784817D01*
X15150587Y-18784817D02*
X15274397Y-18784817D01*
X15331539Y-18651484D02*
X15464873Y-18651484D01*
X15464873Y-18651484D02*
X15379158Y-18851484D01*
X15531539Y-18670531D02*
X15541063Y-18661008D01*
X15541063Y-18661008D02*
X15560111Y-18651484D01*
X15560111Y-18651484D02*
X15607730Y-18651484D01*
X15607730Y-18651484D02*
X15626778Y-18661008D01*
X15626778Y-18661008D02*
X15636301Y-18670531D01*
X15636301Y-18670531D02*
X15645825Y-18689579D01*
X15645825Y-18689579D02*
X15645825Y-18708627D01*
X15645825Y-18708627D02*
X15636301Y-18737198D01*
X15636301Y-18737198D02*
X15522016Y-18851484D01*
X15522016Y-18851484D02*
X15645825Y-18851484D01*
X15722016Y-18651484D02*
X15722016Y-18689579D01*
X15798206Y-18651484D02*
X15798206Y-18689579D01*
X16093444Y-18927674D02*
X16083920Y-18918150D01*
X16083920Y-18918150D02*
X16064873Y-18889579D01*
X16064873Y-18889579D02*
X16055349Y-18870531D01*
X16055349Y-18870531D02*
X16045825Y-18841960D01*
X16045825Y-18841960D02*
X16036301Y-18794341D01*
X16036301Y-18794341D02*
X16036301Y-18756246D01*
X16036301Y-18756246D02*
X16045825Y-18708627D01*
X16045825Y-18708627D02*
X16055349Y-18680055D01*
X16055349Y-18680055D02*
X16064873Y-18661008D01*
X16064873Y-18661008D02*
X16083920Y-18632436D01*
X16083920Y-18632436D02*
X16093444Y-18622912D01*
X16264873Y-18651484D02*
X16169635Y-18651484D01*
X16169635Y-18651484D02*
X16160111Y-18746722D01*
X16160111Y-18746722D02*
X16169635Y-18737198D01*
X16169635Y-18737198D02*
X16188682Y-18727674D01*
X16188682Y-18727674D02*
X16236301Y-18727674D01*
X16236301Y-18727674D02*
X16255349Y-18737198D01*
X16255349Y-18737198D02*
X16264873Y-18746722D01*
X16264873Y-18746722D02*
X16274397Y-18765770D01*
X16274397Y-18765770D02*
X16274397Y-18813389D01*
X16274397Y-18813389D02*
X16264873Y-18832436D01*
X16264873Y-18832436D02*
X16255349Y-18841960D01*
X16255349Y-18841960D02*
X16236301Y-18851484D01*
X16236301Y-18851484D02*
X16188682Y-18851484D01*
X16188682Y-18851484D02*
X16169635Y-18841960D01*
X16169635Y-18841960D02*
X16160111Y-18832436D01*
X16512492Y-18851484D02*
X16512492Y-18651484D01*
X16598206Y-18851484D02*
X16598206Y-18746722D01*
X16598206Y-18746722D02*
X16588682Y-18727674D01*
X16588682Y-18727674D02*
X16569635Y-18718150D01*
X16569635Y-18718150D02*
X16541063Y-18718150D01*
X16541063Y-18718150D02*
X16522016Y-18727674D01*
X16522016Y-18727674D02*
X16512492Y-18737198D01*
X16722016Y-18851484D02*
X16702968Y-18841960D01*
X16702968Y-18841960D02*
X16693444Y-18832436D01*
X16693444Y-18832436D02*
X16683921Y-18813389D01*
X16683921Y-18813389D02*
X16683921Y-18756246D01*
X16683921Y-18756246D02*
X16693444Y-18737198D01*
X16693444Y-18737198D02*
X16702968Y-18727674D01*
X16702968Y-18727674D02*
X16722016Y-18718150D01*
X16722016Y-18718150D02*
X16750587Y-18718150D01*
X16750587Y-18718150D02*
X16769635Y-18727674D01*
X16769635Y-18727674D02*
X16779159Y-18737198D01*
X16779159Y-18737198D02*
X16788683Y-18756246D01*
X16788683Y-18756246D02*
X16788683Y-18813389D01*
X16788683Y-18813389D02*
X16779159Y-18832436D01*
X16779159Y-18832436D02*
X16769635Y-18841960D01*
X16769635Y-18841960D02*
X16750587Y-18851484D01*
X16750587Y-18851484D02*
X16722016Y-18851484D01*
X16902968Y-18851484D02*
X16883921Y-18841960D01*
X16883921Y-18841960D02*
X16874397Y-18822912D01*
X16874397Y-18822912D02*
X16874397Y-18651484D01*
X17055349Y-18841960D02*
X17036302Y-18851484D01*
X17036302Y-18851484D02*
X16998206Y-18851484D01*
X16998206Y-18851484D02*
X16979159Y-18841960D01*
X16979159Y-18841960D02*
X16969635Y-18822912D01*
X16969635Y-18822912D02*
X16969635Y-18746722D01*
X16969635Y-18746722D02*
X16979159Y-18727674D01*
X16979159Y-18727674D02*
X16998206Y-18718150D01*
X16998206Y-18718150D02*
X17036302Y-18718150D01*
X17036302Y-18718150D02*
X17055349Y-18727674D01*
X17055349Y-18727674D02*
X17064873Y-18746722D01*
X17064873Y-18746722D02*
X17064873Y-18765770D01*
X17064873Y-18765770D02*
X16969635Y-18784817D01*
X17141064Y-18841960D02*
X17160111Y-18851484D01*
X17160111Y-18851484D02*
X17198206Y-18851484D01*
X17198206Y-18851484D02*
X17217254Y-18841960D01*
X17217254Y-18841960D02*
X17226778Y-18822912D01*
X17226778Y-18822912D02*
X17226778Y-18813389D01*
X17226778Y-18813389D02*
X17217254Y-18794341D01*
X17217254Y-18794341D02*
X17198206Y-18784817D01*
X17198206Y-18784817D02*
X17169635Y-18784817D01*
X17169635Y-18784817D02*
X17150587Y-18775293D01*
X17150587Y-18775293D02*
X17141064Y-18756246D01*
X17141064Y-18756246D02*
X17141064Y-18746722D01*
X17141064Y-18746722D02*
X17150587Y-18727674D01*
X17150587Y-18727674D02*
X17169635Y-18718150D01*
X17169635Y-18718150D02*
X17198206Y-18718150D01*
X17198206Y-18718150D02*
X17217254Y-18727674D01*
X17293445Y-18927674D02*
X17302968Y-18918150D01*
X17302968Y-18918150D02*
X17322016Y-18889579D01*
X17322016Y-18889579D02*
X17331540Y-18870531D01*
X17331540Y-18870531D02*
X17341064Y-18841960D01*
X17341064Y-18841960D02*
X17350587Y-18794341D01*
X17350587Y-18794341D02*
X17350587Y-18756246D01*
X17350587Y-18756246D02*
X17341064Y-18708627D01*
X17341064Y-18708627D02*
X17331540Y-18680055D01*
X17331540Y-18680055D02*
X17322016Y-18661008D01*
X17322016Y-18661008D02*
X17302968Y-18632436D01*
X17302968Y-18632436D02*
X17293445Y-18622912D01*
X17655349Y-18927674D02*
X17645825Y-18918150D01*
X17645825Y-18918150D02*
X17626778Y-18889579D01*
X17626778Y-18889579D02*
X17617254Y-18870531D01*
X17617254Y-18870531D02*
X17607730Y-18841960D01*
X17607730Y-18841960D02*
X17598206Y-18794341D01*
X17598206Y-18794341D02*
X17598206Y-18756246D01*
X17598206Y-18756246D02*
X17607730Y-18708627D01*
X17607730Y-18708627D02*
X17617254Y-18680055D01*
X17617254Y-18680055D02*
X17626778Y-18661008D01*
X17626778Y-18661008D02*
X17645825Y-18632436D01*
X17645825Y-18632436D02*
X17655349Y-18622912D01*
X17731540Y-18718150D02*
X17731540Y-18851484D01*
X17731540Y-18737198D02*
X17741064Y-18727674D01*
X17741064Y-18727674D02*
X17760111Y-18718150D01*
X17760111Y-18718150D02*
X17788683Y-18718150D01*
X17788683Y-18718150D02*
X17807730Y-18727674D01*
X17807730Y-18727674D02*
X17817254Y-18746722D01*
X17817254Y-18746722D02*
X17817254Y-18851484D01*
X17941064Y-18851484D02*
X17922016Y-18841960D01*
X17922016Y-18841960D02*
X17912492Y-18832436D01*
X17912492Y-18832436D02*
X17902968Y-18813389D01*
X17902968Y-18813389D02*
X17902968Y-18756246D01*
X17902968Y-18756246D02*
X17912492Y-18737198D01*
X17912492Y-18737198D02*
X17922016Y-18727674D01*
X17922016Y-18727674D02*
X17941064Y-18718150D01*
X17941064Y-18718150D02*
X17969635Y-18718150D01*
X17969635Y-18718150D02*
X17988683Y-18727674D01*
X17988683Y-18727674D02*
X17998206Y-18737198D01*
X17998206Y-18737198D02*
X18007730Y-18756246D01*
X18007730Y-18756246D02*
X18007730Y-18813389D01*
X18007730Y-18813389D02*
X17998206Y-18832436D01*
X17998206Y-18832436D02*
X17988683Y-18841960D01*
X17988683Y-18841960D02*
X17969635Y-18851484D01*
X17969635Y-18851484D02*
X17941064Y-18851484D01*
X18064873Y-18718150D02*
X18141064Y-18718150D01*
X18093445Y-18651484D02*
X18093445Y-18822912D01*
X18093445Y-18822912D02*
X18102968Y-18841960D01*
X18102968Y-18841960D02*
X18122016Y-18851484D01*
X18122016Y-18851484D02*
X18141064Y-18851484D01*
X18360111Y-18718150D02*
X18360111Y-18918150D01*
X18360111Y-18727674D02*
X18379159Y-18718150D01*
X18379159Y-18718150D02*
X18417254Y-18718150D01*
X18417254Y-18718150D02*
X18436302Y-18727674D01*
X18436302Y-18727674D02*
X18445826Y-18737198D01*
X18445826Y-18737198D02*
X18455349Y-18756246D01*
X18455349Y-18756246D02*
X18455349Y-18813389D01*
X18455349Y-18813389D02*
X18445826Y-18832436D01*
X18445826Y-18832436D02*
X18436302Y-18841960D01*
X18436302Y-18841960D02*
X18417254Y-18851484D01*
X18417254Y-18851484D02*
X18379159Y-18851484D01*
X18379159Y-18851484D02*
X18360111Y-18841960D01*
X18569635Y-18851484D02*
X18550587Y-18841960D01*
X18550587Y-18841960D02*
X18541064Y-18822912D01*
X18541064Y-18822912D02*
X18541064Y-18651484D01*
X18731540Y-18851484D02*
X18731540Y-18746722D01*
X18731540Y-18746722D02*
X18722016Y-18727674D01*
X18722016Y-18727674D02*
X18702968Y-18718150D01*
X18702968Y-18718150D02*
X18664873Y-18718150D01*
X18664873Y-18718150D02*
X18645826Y-18727674D01*
X18731540Y-18841960D02*
X18712492Y-18851484D01*
X18712492Y-18851484D02*
X18664873Y-18851484D01*
X18664873Y-18851484D02*
X18645826Y-18841960D01*
X18645826Y-18841960D02*
X18636302Y-18822912D01*
X18636302Y-18822912D02*
X18636302Y-18803865D01*
X18636302Y-18803865D02*
X18645826Y-18784817D01*
X18645826Y-18784817D02*
X18664873Y-18775293D01*
X18664873Y-18775293D02*
X18712492Y-18775293D01*
X18712492Y-18775293D02*
X18731540Y-18765770D01*
X18798207Y-18718150D02*
X18874397Y-18718150D01*
X18826778Y-18651484D02*
X18826778Y-18822912D01*
X18826778Y-18822912D02*
X18836302Y-18841960D01*
X18836302Y-18841960D02*
X18855349Y-18851484D01*
X18855349Y-18851484D02*
X18874397Y-18851484D01*
X19017254Y-18841960D02*
X18998207Y-18851484D01*
X18998207Y-18851484D02*
X18960111Y-18851484D01*
X18960111Y-18851484D02*
X18941064Y-18841960D01*
X18941064Y-18841960D02*
X18931540Y-18822912D01*
X18931540Y-18822912D02*
X18931540Y-18746722D01*
X18931540Y-18746722D02*
X18941064Y-18727674D01*
X18941064Y-18727674D02*
X18960111Y-18718150D01*
X18960111Y-18718150D02*
X18998207Y-18718150D01*
X18998207Y-18718150D02*
X19017254Y-18727674D01*
X19017254Y-18727674D02*
X19026778Y-18746722D01*
X19026778Y-18746722D02*
X19026778Y-18765770D01*
X19026778Y-18765770D02*
X18931540Y-18784817D01*
X19198207Y-18851484D02*
X19198207Y-18651484D01*
X19198207Y-18841960D02*
X19179159Y-18851484D01*
X19179159Y-18851484D02*
X19141064Y-18851484D01*
X19141064Y-18851484D02*
X19122016Y-18841960D01*
X19122016Y-18841960D02*
X19112492Y-18832436D01*
X19112492Y-18832436D02*
X19102968Y-18813389D01*
X19102968Y-18813389D02*
X19102968Y-18756246D01*
X19102968Y-18756246D02*
X19112492Y-18737198D01*
X19112492Y-18737198D02*
X19122016Y-18727674D01*
X19122016Y-18727674D02*
X19141064Y-18718150D01*
X19141064Y-18718150D02*
X19179159Y-18718150D01*
X19179159Y-18718150D02*
X19198207Y-18727674D01*
X19274397Y-18927674D02*
X19283921Y-18918150D01*
X19283921Y-18918150D02*
X19302968Y-18889579D01*
X19302968Y-18889579D02*
X19312492Y-18870531D01*
X19312492Y-18870531D02*
X19322016Y-18841960D01*
X19322016Y-18841960D02*
X19331540Y-18794341D01*
X19331540Y-18794341D02*
X19331540Y-18756246D01*
X19331540Y-18756246D02*
X19322016Y-18708627D01*
X19322016Y-18708627D02*
X19312492Y-18680055D01*
X19312492Y-18680055D02*
X19302968Y-18661008D01*
X19302968Y-18661008D02*
X19283921Y-18632436D01*
X19283921Y-18632436D02*
X19274397Y-18622912D01*
X12518381Y-19024000D02*
G75*
G02*
X12318381Y-19024000I-100000J0D01*
G01*
X12318381Y-19024000D02*
G75*
G02*
X12518381Y-19024000I100000J0D01*
G01*
X12769634Y-18934531D02*
X12779158Y-18925008D01*
X12779158Y-18925008D02*
X12798206Y-18915484D01*
X12798206Y-18915484D02*
X12845825Y-18915484D01*
X12845825Y-18915484D02*
X12864873Y-18925008D01*
X12864873Y-18925008D02*
X12874396Y-18934531D01*
X12874396Y-18934531D02*
X12883920Y-18953579D01*
X12883920Y-18953579D02*
X12883920Y-18972627D01*
X12883920Y-18972627D02*
X12874396Y-19001198D01*
X12874396Y-19001198D02*
X12760111Y-19115484D01*
X12760111Y-19115484D02*
X12883920Y-19115484D01*
X12969634Y-19096436D02*
X12979158Y-19105960D01*
X12979158Y-19105960D02*
X12969634Y-19115484D01*
X12969634Y-19115484D02*
X12960111Y-19105960D01*
X12960111Y-19105960D02*
X12969634Y-19096436D01*
X12969634Y-19096436D02*
X12969634Y-19115484D01*
X13150587Y-18915484D02*
X13112492Y-18915484D01*
X13112492Y-18915484D02*
X13093444Y-18925008D01*
X13093444Y-18925008D02*
X13083920Y-18934531D01*
X13083920Y-18934531D02*
X13064873Y-18963103D01*
X13064873Y-18963103D02*
X13055349Y-19001198D01*
X13055349Y-19001198D02*
X13055349Y-19077389D01*
X13055349Y-19077389D02*
X13064873Y-19096436D01*
X13064873Y-19096436D02*
X13074396Y-19105960D01*
X13074396Y-19105960D02*
X13093444Y-19115484D01*
X13093444Y-19115484D02*
X13131539Y-19115484D01*
X13131539Y-19115484D02*
X13150587Y-19105960D01*
X13150587Y-19105960D02*
X13160111Y-19096436D01*
X13160111Y-19096436D02*
X13169634Y-19077389D01*
X13169634Y-19077389D02*
X13169634Y-19029770D01*
X13169634Y-19029770D02*
X13160111Y-19010722D01*
X13160111Y-19010722D02*
X13150587Y-19001198D01*
X13150587Y-19001198D02*
X13131539Y-18991674D01*
X13131539Y-18991674D02*
X13093444Y-18991674D01*
X13093444Y-18991674D02*
X13074396Y-19001198D01*
X13074396Y-19001198D02*
X13064873Y-19010722D01*
X13064873Y-19010722D02*
X13055349Y-19029770D01*
X13293444Y-18915484D02*
X13312492Y-18915484D01*
X13312492Y-18915484D02*
X13331539Y-18925008D01*
X13331539Y-18925008D02*
X13341063Y-18934531D01*
X13341063Y-18934531D02*
X13350587Y-18953579D01*
X13350587Y-18953579D02*
X13360111Y-18991674D01*
X13360111Y-18991674D02*
X13360111Y-19039293D01*
X13360111Y-19039293D02*
X13350587Y-19077389D01*
X13350587Y-19077389D02*
X13341063Y-19096436D01*
X13341063Y-19096436D02*
X13331539Y-19105960D01*
X13331539Y-19105960D02*
X13312492Y-19115484D01*
X13312492Y-19115484D02*
X13293444Y-19115484D01*
X13293444Y-19115484D02*
X13274396Y-19105960D01*
X13274396Y-19105960D02*
X13264873Y-19096436D01*
X13264873Y-19096436D02*
X13255349Y-19077389D01*
X13255349Y-19077389D02*
X13245825Y-19039293D01*
X13245825Y-19039293D02*
X13245825Y-18991674D01*
X13245825Y-18991674D02*
X13255349Y-18953579D01*
X13255349Y-18953579D02*
X13264873Y-18934531D01*
X13264873Y-18934531D02*
X13274396Y-18925008D01*
X13274396Y-18925008D02*
X13293444Y-18915484D01*
X13483920Y-18915484D02*
X13502968Y-18915484D01*
X13502968Y-18915484D02*
X13522015Y-18925008D01*
X13522015Y-18925008D02*
X13531539Y-18934531D01*
X13531539Y-18934531D02*
X13541063Y-18953579D01*
X13541063Y-18953579D02*
X13550587Y-18991674D01*
X13550587Y-18991674D02*
X13550587Y-19039293D01*
X13550587Y-19039293D02*
X13541063Y-19077389D01*
X13541063Y-19077389D02*
X13531539Y-19096436D01*
X13531539Y-19096436D02*
X13522015Y-19105960D01*
X13522015Y-19105960D02*
X13502968Y-19115484D01*
X13502968Y-19115484D02*
X13483920Y-19115484D01*
X13483920Y-19115484D02*
X13464873Y-19105960D01*
X13464873Y-19105960D02*
X13455349Y-19096436D01*
X13455349Y-19096436D02*
X13445825Y-19077389D01*
X13445825Y-19077389D02*
X13436301Y-19039293D01*
X13436301Y-19039293D02*
X13436301Y-18991674D01*
X13436301Y-18991674D02*
X13445825Y-18953579D01*
X13445825Y-18953579D02*
X13455349Y-18934531D01*
X13455349Y-18934531D02*
X13464873Y-18925008D01*
X13464873Y-18925008D02*
X13483920Y-18915484D01*
X13636301Y-19115484D02*
X13636301Y-18982150D01*
X13636301Y-19001198D02*
X13645825Y-18991674D01*
X13645825Y-18991674D02*
X13664873Y-18982150D01*
X13664873Y-18982150D02*
X13693444Y-18982150D01*
X13693444Y-18982150D02*
X13712492Y-18991674D01*
X13712492Y-18991674D02*
X13722015Y-19010722D01*
X13722015Y-19010722D02*
X13722015Y-19115484D01*
X13722015Y-19010722D02*
X13731539Y-18991674D01*
X13731539Y-18991674D02*
X13750587Y-18982150D01*
X13750587Y-18982150D02*
X13779158Y-18982150D01*
X13779158Y-18982150D02*
X13798206Y-18991674D01*
X13798206Y-18991674D02*
X13807730Y-19010722D01*
X13807730Y-19010722D02*
X13807730Y-19115484D01*
X13902968Y-19115484D02*
X13902968Y-18982150D01*
X13902968Y-19001198D02*
X13912492Y-18991674D01*
X13912492Y-18991674D02*
X13931539Y-18982150D01*
X13931539Y-18982150D02*
X13960111Y-18982150D01*
X13960111Y-18982150D02*
X13979158Y-18991674D01*
X13979158Y-18991674D02*
X13988682Y-19010722D01*
X13988682Y-19010722D02*
X13988682Y-19115484D01*
X13988682Y-19010722D02*
X13998206Y-18991674D01*
X13998206Y-18991674D02*
X14017254Y-18982150D01*
X14017254Y-18982150D02*
X14045825Y-18982150D01*
X14045825Y-18982150D02*
X14064873Y-18991674D01*
X14064873Y-18991674D02*
X14074396Y-19010722D01*
X14074396Y-19010722D02*
X14074396Y-19115484D01*
X14464873Y-18905960D02*
X14293444Y-19163103D01*
X14722016Y-18915484D02*
X14741063Y-18915484D01*
X14741063Y-18915484D02*
X14760111Y-18925008D01*
X14760111Y-18925008D02*
X14769635Y-18934531D01*
X14769635Y-18934531D02*
X14779158Y-18953579D01*
X14779158Y-18953579D02*
X14788682Y-18991674D01*
X14788682Y-18991674D02*
X14788682Y-19039293D01*
X14788682Y-19039293D02*
X14779158Y-19077389D01*
X14779158Y-19077389D02*
X14769635Y-19096436D01*
X14769635Y-19096436D02*
X14760111Y-19105960D01*
X14760111Y-19105960D02*
X14741063Y-19115484D01*
X14741063Y-19115484D02*
X14722016Y-19115484D01*
X14722016Y-19115484D02*
X14702968Y-19105960D01*
X14702968Y-19105960D02*
X14693444Y-19096436D01*
X14693444Y-19096436D02*
X14683920Y-19077389D01*
X14683920Y-19077389D02*
X14674397Y-19039293D01*
X14674397Y-19039293D02*
X14674397Y-18991674D01*
X14674397Y-18991674D02*
X14683920Y-18953579D01*
X14683920Y-18953579D02*
X14693444Y-18934531D01*
X14693444Y-18934531D02*
X14702968Y-18925008D01*
X14702968Y-18925008D02*
X14722016Y-18915484D01*
X14874397Y-19096436D02*
X14883920Y-19105960D01*
X14883920Y-19105960D02*
X14874397Y-19115484D01*
X14874397Y-19115484D02*
X14864873Y-19105960D01*
X14864873Y-19105960D02*
X14874397Y-19096436D01*
X14874397Y-19096436D02*
X14874397Y-19115484D01*
X15074397Y-19115484D02*
X14960111Y-19115484D01*
X15017254Y-19115484D02*
X15017254Y-18915484D01*
X15017254Y-18915484D02*
X14998206Y-18944055D01*
X14998206Y-18944055D02*
X14979158Y-18963103D01*
X14979158Y-18963103D02*
X14960111Y-18972627D01*
X15198206Y-18915484D02*
X15217254Y-18915484D01*
X15217254Y-18915484D02*
X15236301Y-18925008D01*
X15236301Y-18925008D02*
X15245825Y-18934531D01*
X15245825Y-18934531D02*
X15255349Y-18953579D01*
X15255349Y-18953579D02*
X15264873Y-18991674D01*
X15264873Y-18991674D02*
X15264873Y-19039293D01*
X15264873Y-19039293D02*
X15255349Y-19077389D01*
X15255349Y-19077389D02*
X15245825Y-19096436D01*
X15245825Y-19096436D02*
X15236301Y-19105960D01*
X15236301Y-19105960D02*
X15217254Y-19115484D01*
X15217254Y-19115484D02*
X15198206Y-19115484D01*
X15198206Y-19115484D02*
X15179158Y-19105960D01*
X15179158Y-19105960D02*
X15169635Y-19096436D01*
X15169635Y-19096436D02*
X15160111Y-19077389D01*
X15160111Y-19077389D02*
X15150587Y-19039293D01*
X15150587Y-19039293D02*
X15150587Y-18991674D01*
X15150587Y-18991674D02*
X15160111Y-18953579D01*
X15160111Y-18953579D02*
X15169635Y-18934531D01*
X15169635Y-18934531D02*
X15179158Y-18925008D01*
X15179158Y-18925008D02*
X15198206Y-18915484D01*
X15341063Y-18934531D02*
X15350587Y-18925008D01*
X15350587Y-18925008D02*
X15369635Y-18915484D01*
X15369635Y-18915484D02*
X15417254Y-18915484D01*
X15417254Y-18915484D02*
X15436301Y-18925008D01*
X15436301Y-18925008D02*
X15445825Y-18934531D01*
X15445825Y-18934531D02*
X15455349Y-18953579D01*
X15455349Y-18953579D02*
X15455349Y-18972627D01*
X15455349Y-18972627D02*
X15445825Y-19001198D01*
X15445825Y-19001198D02*
X15331539Y-19115484D01*
X15331539Y-19115484D02*
X15455349Y-19115484D01*
X15626778Y-18982150D02*
X15626778Y-19115484D01*
X15579158Y-18905960D02*
X15531539Y-19048817D01*
X15531539Y-19048817D02*
X15655349Y-19048817D01*
X15722016Y-18915484D02*
X15722016Y-18953579D01*
X15798206Y-18915484D02*
X15798206Y-18953579D01*
X16093444Y-19191674D02*
X16083920Y-19182150D01*
X16083920Y-19182150D02*
X16064873Y-19153579D01*
X16064873Y-19153579D02*
X16055349Y-19134531D01*
X16055349Y-19134531D02*
X16045825Y-19105960D01*
X16045825Y-19105960D02*
X16036301Y-19058341D01*
X16036301Y-19058341D02*
X16036301Y-19020246D01*
X16036301Y-19020246D02*
X16045825Y-18972627D01*
X16045825Y-18972627D02*
X16055349Y-18944055D01*
X16055349Y-18944055D02*
X16064873Y-18925008D01*
X16064873Y-18925008D02*
X16083920Y-18896436D01*
X16083920Y-18896436D02*
X16093444Y-18886912D01*
X16150587Y-18915484D02*
X16274397Y-18915484D01*
X16274397Y-18915484D02*
X16207730Y-18991674D01*
X16207730Y-18991674D02*
X16236301Y-18991674D01*
X16236301Y-18991674D02*
X16255349Y-19001198D01*
X16255349Y-19001198D02*
X16264873Y-19010722D01*
X16264873Y-19010722D02*
X16274397Y-19029770D01*
X16274397Y-19029770D02*
X16274397Y-19077389D01*
X16274397Y-19077389D02*
X16264873Y-19096436D01*
X16264873Y-19096436D02*
X16255349Y-19105960D01*
X16255349Y-19105960D02*
X16236301Y-19115484D01*
X16236301Y-19115484D02*
X16179159Y-19115484D01*
X16179159Y-19115484D02*
X16160111Y-19105960D01*
X16160111Y-19105960D02*
X16150587Y-19096436D01*
X16512492Y-19115484D02*
X16512492Y-18915484D01*
X16598206Y-19115484D02*
X16598206Y-19010722D01*
X16598206Y-19010722D02*
X16588682Y-18991674D01*
X16588682Y-18991674D02*
X16569635Y-18982150D01*
X16569635Y-18982150D02*
X16541063Y-18982150D01*
X16541063Y-18982150D02*
X16522016Y-18991674D01*
X16522016Y-18991674D02*
X16512492Y-19001198D01*
X16722016Y-19115484D02*
X16702968Y-19105960D01*
X16702968Y-19105960D02*
X16693444Y-19096436D01*
X16693444Y-19096436D02*
X16683921Y-19077389D01*
X16683921Y-19077389D02*
X16683921Y-19020246D01*
X16683921Y-19020246D02*
X16693444Y-19001198D01*
X16693444Y-19001198D02*
X16702968Y-18991674D01*
X16702968Y-18991674D02*
X16722016Y-18982150D01*
X16722016Y-18982150D02*
X16750587Y-18982150D01*
X16750587Y-18982150D02*
X16769635Y-18991674D01*
X16769635Y-18991674D02*
X16779159Y-19001198D01*
X16779159Y-19001198D02*
X16788683Y-19020246D01*
X16788683Y-19020246D02*
X16788683Y-19077389D01*
X16788683Y-19077389D02*
X16779159Y-19096436D01*
X16779159Y-19096436D02*
X16769635Y-19105960D01*
X16769635Y-19105960D02*
X16750587Y-19115484D01*
X16750587Y-19115484D02*
X16722016Y-19115484D01*
X16902968Y-19115484D02*
X16883921Y-19105960D01*
X16883921Y-19105960D02*
X16874397Y-19086912D01*
X16874397Y-19086912D02*
X16874397Y-18915484D01*
X17055349Y-19105960D02*
X17036302Y-19115484D01*
X17036302Y-19115484D02*
X16998206Y-19115484D01*
X16998206Y-19115484D02*
X16979159Y-19105960D01*
X16979159Y-19105960D02*
X16969635Y-19086912D01*
X16969635Y-19086912D02*
X16969635Y-19010722D01*
X16969635Y-19010722D02*
X16979159Y-18991674D01*
X16979159Y-18991674D02*
X16998206Y-18982150D01*
X16998206Y-18982150D02*
X17036302Y-18982150D01*
X17036302Y-18982150D02*
X17055349Y-18991674D01*
X17055349Y-18991674D02*
X17064873Y-19010722D01*
X17064873Y-19010722D02*
X17064873Y-19029770D01*
X17064873Y-19029770D02*
X16969635Y-19048817D01*
X17141064Y-19105960D02*
X17160111Y-19115484D01*
X17160111Y-19115484D02*
X17198206Y-19115484D01*
X17198206Y-19115484D02*
X17217254Y-19105960D01*
X17217254Y-19105960D02*
X17226778Y-19086912D01*
X17226778Y-19086912D02*
X17226778Y-19077389D01*
X17226778Y-19077389D02*
X17217254Y-19058341D01*
X17217254Y-19058341D02*
X17198206Y-19048817D01*
X17198206Y-19048817D02*
X17169635Y-19048817D01*
X17169635Y-19048817D02*
X17150587Y-19039293D01*
X17150587Y-19039293D02*
X17141064Y-19020246D01*
X17141064Y-19020246D02*
X17141064Y-19010722D01*
X17141064Y-19010722D02*
X17150587Y-18991674D01*
X17150587Y-18991674D02*
X17169635Y-18982150D01*
X17169635Y-18982150D02*
X17198206Y-18982150D01*
X17198206Y-18982150D02*
X17217254Y-18991674D01*
X17293445Y-19191674D02*
X17302968Y-19182150D01*
X17302968Y-19182150D02*
X17322016Y-19153579D01*
X17322016Y-19153579D02*
X17331540Y-19134531D01*
X17331540Y-19134531D02*
X17341064Y-19105960D01*
X17341064Y-19105960D02*
X17350587Y-19058341D01*
X17350587Y-19058341D02*
X17350587Y-19020246D01*
X17350587Y-19020246D02*
X17341064Y-18972627D01*
X17341064Y-18972627D02*
X17331540Y-18944055D01*
X17331540Y-18944055D02*
X17322016Y-18925008D01*
X17322016Y-18925008D02*
X17302968Y-18896436D01*
X17302968Y-18896436D02*
X17293445Y-18886912D01*
X17655349Y-19191674D02*
X17645825Y-19182150D01*
X17645825Y-19182150D02*
X17626778Y-19153579D01*
X17626778Y-19153579D02*
X17617254Y-19134531D01*
X17617254Y-19134531D02*
X17607730Y-19105960D01*
X17607730Y-19105960D02*
X17598206Y-19058341D01*
X17598206Y-19058341D02*
X17598206Y-19020246D01*
X17598206Y-19020246D02*
X17607730Y-18972627D01*
X17607730Y-18972627D02*
X17617254Y-18944055D01*
X17617254Y-18944055D02*
X17626778Y-18925008D01*
X17626778Y-18925008D02*
X17645825Y-18896436D01*
X17645825Y-18896436D02*
X17655349Y-18886912D01*
X17731540Y-18982150D02*
X17731540Y-19115484D01*
X17731540Y-19001198D02*
X17741064Y-18991674D01*
X17741064Y-18991674D02*
X17760111Y-18982150D01*
X17760111Y-18982150D02*
X17788683Y-18982150D01*
X17788683Y-18982150D02*
X17807730Y-18991674D01*
X17807730Y-18991674D02*
X17817254Y-19010722D01*
X17817254Y-19010722D02*
X17817254Y-19115484D01*
X17941064Y-19115484D02*
X17922016Y-19105960D01*
X17922016Y-19105960D02*
X17912492Y-19096436D01*
X17912492Y-19096436D02*
X17902968Y-19077389D01*
X17902968Y-19077389D02*
X17902968Y-19020246D01*
X17902968Y-19020246D02*
X17912492Y-19001198D01*
X17912492Y-19001198D02*
X17922016Y-18991674D01*
X17922016Y-18991674D02*
X17941064Y-18982150D01*
X17941064Y-18982150D02*
X17969635Y-18982150D01*
X17969635Y-18982150D02*
X17988683Y-18991674D01*
X17988683Y-18991674D02*
X17998206Y-19001198D01*
X17998206Y-19001198D02*
X18007730Y-19020246D01*
X18007730Y-19020246D02*
X18007730Y-19077389D01*
X18007730Y-19077389D02*
X17998206Y-19096436D01*
X17998206Y-19096436D02*
X17988683Y-19105960D01*
X17988683Y-19105960D02*
X17969635Y-19115484D01*
X17969635Y-19115484D02*
X17941064Y-19115484D01*
X18064873Y-18982150D02*
X18141064Y-18982150D01*
X18093445Y-18915484D02*
X18093445Y-19086912D01*
X18093445Y-19086912D02*
X18102968Y-19105960D01*
X18102968Y-19105960D02*
X18122016Y-19115484D01*
X18122016Y-19115484D02*
X18141064Y-19115484D01*
X18360111Y-18982150D02*
X18360111Y-19182150D01*
X18360111Y-18991674D02*
X18379159Y-18982150D01*
X18379159Y-18982150D02*
X18417254Y-18982150D01*
X18417254Y-18982150D02*
X18436302Y-18991674D01*
X18436302Y-18991674D02*
X18445826Y-19001198D01*
X18445826Y-19001198D02*
X18455349Y-19020246D01*
X18455349Y-19020246D02*
X18455349Y-19077389D01*
X18455349Y-19077389D02*
X18445826Y-19096436D01*
X18445826Y-19096436D02*
X18436302Y-19105960D01*
X18436302Y-19105960D02*
X18417254Y-19115484D01*
X18417254Y-19115484D02*
X18379159Y-19115484D01*
X18379159Y-19115484D02*
X18360111Y-19105960D01*
X18569635Y-19115484D02*
X18550587Y-19105960D01*
X18550587Y-19105960D02*
X18541064Y-19086912D01*
X18541064Y-19086912D02*
X18541064Y-18915484D01*
X18731540Y-19115484D02*
X18731540Y-19010722D01*
X18731540Y-19010722D02*
X18722016Y-18991674D01*
X18722016Y-18991674D02*
X18702968Y-18982150D01*
X18702968Y-18982150D02*
X18664873Y-18982150D01*
X18664873Y-18982150D02*
X18645826Y-18991674D01*
X18731540Y-19105960D02*
X18712492Y-19115484D01*
X18712492Y-19115484D02*
X18664873Y-19115484D01*
X18664873Y-19115484D02*
X18645826Y-19105960D01*
X18645826Y-19105960D02*
X18636302Y-19086912D01*
X18636302Y-19086912D02*
X18636302Y-19067865D01*
X18636302Y-19067865D02*
X18645826Y-19048817D01*
X18645826Y-19048817D02*
X18664873Y-19039293D01*
X18664873Y-19039293D02*
X18712492Y-19039293D01*
X18712492Y-19039293D02*
X18731540Y-19029770D01*
X18798207Y-18982150D02*
X18874397Y-18982150D01*
X18826778Y-18915484D02*
X18826778Y-19086912D01*
X18826778Y-19086912D02*
X18836302Y-19105960D01*
X18836302Y-19105960D02*
X18855349Y-19115484D01*
X18855349Y-19115484D02*
X18874397Y-19115484D01*
X19017254Y-19105960D02*
X18998207Y-19115484D01*
X18998207Y-19115484D02*
X18960111Y-19115484D01*
X18960111Y-19115484D02*
X18941064Y-19105960D01*
X18941064Y-19105960D02*
X18931540Y-19086912D01*
X18931540Y-19086912D02*
X18931540Y-19010722D01*
X18931540Y-19010722D02*
X18941064Y-18991674D01*
X18941064Y-18991674D02*
X18960111Y-18982150D01*
X18960111Y-18982150D02*
X18998207Y-18982150D01*
X18998207Y-18982150D02*
X19017254Y-18991674D01*
X19017254Y-18991674D02*
X19026778Y-19010722D01*
X19026778Y-19010722D02*
X19026778Y-19029770D01*
X19026778Y-19029770D02*
X18931540Y-19048817D01*
X19198207Y-19115484D02*
X19198207Y-18915484D01*
X19198207Y-19105960D02*
X19179159Y-19115484D01*
X19179159Y-19115484D02*
X19141064Y-19115484D01*
X19141064Y-19115484D02*
X19122016Y-19105960D01*
X19122016Y-19105960D02*
X19112492Y-19096436D01*
X19112492Y-19096436D02*
X19102968Y-19077389D01*
X19102968Y-19077389D02*
X19102968Y-19020246D01*
X19102968Y-19020246D02*
X19112492Y-19001198D01*
X19112492Y-19001198D02*
X19122016Y-18991674D01*
X19122016Y-18991674D02*
X19141064Y-18982150D01*
X19141064Y-18982150D02*
X19179159Y-18982150D01*
X19179159Y-18982150D02*
X19198207Y-18991674D01*
X19274397Y-19191674D02*
X19283921Y-19182150D01*
X19283921Y-19182150D02*
X19302968Y-19153579D01*
X19302968Y-19153579D02*
X19312492Y-19134531D01*
X19312492Y-19134531D02*
X19322016Y-19105960D01*
X19322016Y-19105960D02*
X19331540Y-19058341D01*
X19331540Y-19058341D02*
X19331540Y-19020246D01*
X19331540Y-19020246D02*
X19322016Y-18972627D01*
X19322016Y-18972627D02*
X19312492Y-18944055D01*
X19312492Y-18944055D02*
X19302968Y-18925008D01*
X19302968Y-18925008D02*
X19283921Y-18896436D01*
X19283921Y-18896436D02*
X19274397Y-18886912D01*
M02*
