%TF.GenerationSoftware,KiCad,Pcbnew,8.0.5*%
%TF.CreationDate,2025-02-18T01:30:18+08:00*%
%TF.ProjectId,troubleSeeker,74726f75-626c-4655-9365-656b65722e6b,rev?*%
%TF.SameCoordinates,Original*%
%TF.FileFunction,Copper,L2,Bot*%
%TF.FilePolarity,Positive*%
%FSLAX46Y46*%
G04 Gerber Fmt 4.6, Leading zero omitted, Abs format (unit mm)*
G04 Created by KiCad (PCBNEW 8.0.5) date 2025-02-18 01:30:18*
%MOMM*%
%LPD*%
G01*
G04 APERTURE LIST*
G04 Aperture macros list*
%AMFreePoly0*
4,1,19,0.500000,-0.750000,0.000000,-0.750000,0.000000,-0.744911,-0.071157,-0.744911,-0.207708,-0.704816,-0.327430,-0.627875,-0.420627,-0.520320,-0.479746,-0.390866,-0.500000,-0.250000,-0.500000,0.250000,-0.479746,0.390866,-0.420627,0.520320,-0.327430,0.627875,-0.207708,0.704816,-0.071157,0.744911,0.000000,0.744911,0.000000,0.750000,0.500000,0.750000,0.500000,-0.750000,0.500000,-0.750000,
$1*%
%AMFreePoly1*
4,1,19,0.000000,0.744911,0.071157,0.744911,0.207708,0.704816,0.327430,0.627875,0.420627,0.520320,0.479746,0.390866,0.500000,0.250000,0.500000,-0.250000,0.479746,-0.390866,0.420627,-0.520320,0.327430,-0.627875,0.207708,-0.704816,0.071157,-0.744911,0.000000,-0.744911,0.000000,-0.750000,-0.500000,-0.750000,-0.500000,0.750000,0.000000,0.750000,0.000000,0.744911,0.000000,0.744911,
$1*%
G04 Aperture macros list end*
%TA.AperFunction,ComponentPad*%
%ADD10R,1.700000X1.700000*%
%TD*%
%TA.AperFunction,ComponentPad*%
%ADD11O,1.700000X1.700000*%
%TD*%
%TA.AperFunction,ComponentPad*%
%ADD12C,2.600000*%
%TD*%
%TA.AperFunction,ComponentPad*%
%ADD13C,1.600000*%
%TD*%
%TA.AperFunction,ComponentPad*%
%ADD14O,1.600000X1.600000*%
%TD*%
%TA.AperFunction,ComponentPad*%
%ADD15R,2.800000X2.800000*%
%TD*%
%TA.AperFunction,ComponentPad*%
%ADD16C,2.800000*%
%TD*%
%TA.AperFunction,ComponentPad*%
%ADD17R,1.600000X1.600000*%
%TD*%
%TA.AperFunction,ComponentPad*%
%ADD18O,3.500000X2.200000*%
%TD*%
%TA.AperFunction,ComponentPad*%
%ADD19R,2.500000X1.500000*%
%TD*%
%TA.AperFunction,ComponentPad*%
%ADD20O,2.500000X1.500000*%
%TD*%
%TA.AperFunction,ComponentPad*%
%ADD21R,1.600000X2.400000*%
%TD*%
%TA.AperFunction,ComponentPad*%
%ADD22O,1.600000X2.400000*%
%TD*%
%TA.AperFunction,ComponentPad*%
%ADD23O,1.200000X2.200000*%
%TD*%
%TA.AperFunction,ComponentPad*%
%ADD24O,1.600000X2.300000*%
%TD*%
%TA.AperFunction,ComponentPad*%
%ADD25O,2.200000X1.200000*%
%TD*%
%TA.AperFunction,ComponentPad*%
%ADD26O,1.600000X2.500000*%
%TD*%
%TA.AperFunction,SMDPad,CuDef*%
%ADD27FreePoly0,90.000000*%
%TD*%
%TA.AperFunction,SMDPad,CuDef*%
%ADD28FreePoly1,90.000000*%
%TD*%
%TA.AperFunction,ComponentPad*%
%ADD29R,3.000000X3.000000*%
%TD*%
%TA.AperFunction,ComponentPad*%
%ADD30C,3.000000*%
%TD*%
%TA.AperFunction,Conductor*%
%ADD31C,0.500000*%
%TD*%
G04 APERTURE END LIST*
D10*
%TO.P,j_breakout2,1,Pin_1*%
%TO.N,unconnected-(j_breakout2-Pin_1-Pad1)*%
X153450000Y-167400000D03*
D11*
%TO.P,j_breakout2,2,Pin_2*%
%TO.N,unconnected-(j_breakout2-Pin_2-Pad2)*%
X153450000Y-169940000D03*
%TO.P,j_breakout2,3,Pin_3*%
%TO.N,unconnected-(j_breakout2-Pin_3-Pad3)*%
X153450000Y-172480000D03*
%TO.P,j_breakout2,4,Pin_4*%
%TO.N,unconnected-(j_breakout2-Pin_4-Pad4)*%
X153450000Y-175020000D03*
%TO.P,j_breakout2,5,Pin_5*%
%TO.N,unconnected-(j_breakout2-Pin_5-Pad5)*%
X153450000Y-177560000D03*
%TD*%
D10*
%TO.P,j_breakout1,1,Pin_1*%
%TO.N,AUDIO_R*%
X133200000Y-167400000D03*
D11*
%TO.P,j_breakout1,2,Pin_2*%
%TO.N,AUDIO_L*%
X133200000Y-169940000D03*
%TO.P,j_breakout1,3,Pin_3*%
%TO.N,VGND2*%
X133200000Y-172480000D03*
%TO.P,j_breakout1,4,Pin_4*%
%TO.N,-4.5V*%
X133200000Y-175020000D03*
%TO.P,j_breakout1,5,Pin_5*%
%TO.N,4.5V*%
X133200000Y-177560000D03*
%TD*%
D12*
%TO.P,L2,1,1*%
%TO.N,Net-(C5-Pad2)*%
X157100000Y-43650000D03*
%TO.P,L2,2,2*%
%TO.N,VGND2*%
X152100000Y-43650000D03*
%TD*%
D13*
%TO.P,R4,1*%
%TO.N,Net-(J1-Pin_2)*%
X129120000Y-62000000D03*
D14*
%TO.P,R4,2*%
%TO.N,AUDIO_L*%
X139280000Y-62000000D03*
%TD*%
D13*
%TO.P,R1,1*%
%TO.N,4.5V*%
X131594749Y-93594749D03*
D14*
%TO.P,R1,2*%
%TO.N,VGND2*%
X141754749Y-93594749D03*
%TD*%
D13*
%TO.P,R6,1*%
%TO.N,Net-(J1-Pin_1)*%
X147820000Y-62125000D03*
D14*
%TO.P,R6,2*%
%TO.N,AUDIO_R*%
X157980000Y-62125000D03*
%TD*%
D13*
%TO.P,R5,1*%
%TO.N,Net-(J1-Pin_1)*%
X147815000Y-58175000D03*
D14*
%TO.P,R5,2*%
%TO.N,Net-(C5-Pad1)*%
X157975000Y-58175000D03*
%TD*%
D13*
%TO.P,C5,1*%
%TO.N,Net-(C5-Pad1)*%
X152250000Y-51825000D03*
%TO.P,C5,2*%
%TO.N,Net-(C5-Pad2)*%
X157250000Y-51825000D03*
%TD*%
D15*
%TO.P,J1,1,Pin_1*%
%TO.N,Net-(J1-Pin_1)*%
X145400000Y-51355000D03*
D16*
%TO.P,J1,2,Pin_2*%
%TO.N,Net-(J1-Pin_2)*%
X140400000Y-51355000D03*
%TD*%
D13*
%TO.P,R2,1*%
%TO.N,VGND2*%
X144354749Y-93594749D03*
D14*
%TO.P,R2,2*%
%TO.N,-4.5V*%
X154514749Y-93594749D03*
%TD*%
D13*
%TO.P,R3,1*%
%TO.N,Net-(J1-Pin_2)*%
X139200000Y-58100000D03*
D14*
%TO.P,R3,2*%
%TO.N,Net-(C4-Pad1)*%
X129040000Y-58100000D03*
%TD*%
D13*
%TO.P,C4,1*%
%TO.N,Net-(C4-Pad1)*%
X129025000Y-51950000D03*
%TO.P,C4,2*%
%TO.N,Net-(C4-Pad2)*%
X134025000Y-51950000D03*
%TD*%
D17*
%TO.P,C2,1*%
%TO.N,VGND2*%
X145974749Y-84094749D03*
D13*
%TO.P,C2,2*%
%TO.N,-4.5V*%
X150974749Y-84094749D03*
%TD*%
D17*
%TO.P,C1,1*%
%TO.N,4.5V*%
X133974749Y-84094749D03*
D13*
%TO.P,C1,2*%
%TO.N,VGND2*%
X138974749Y-84094749D03*
%TD*%
D12*
%TO.P,L1,1,1*%
%TO.N,Net-(C4-Pad2)*%
X134025000Y-43650000D03*
%TO.P,L1,2,2*%
%TO.N,VGND2*%
X129025000Y-43650000D03*
%TD*%
D18*
%TO.P,SW1,*%
%TO.N,*%
X131000000Y-97400000D03*
X131000000Y-105600000D03*
D19*
%TO.P,SW1,1,A*%
%TO.N,unconnected-(SW1-A-Pad1)*%
X131000000Y-99500000D03*
D20*
%TO.P,SW1,2,B*%
%TO.N,Net-(BT1-+)*%
X131000000Y-101500000D03*
%TO.P,SW1,3,C*%
%TO.N,4.5V*%
X131000000Y-103500000D03*
%TD*%
D21*
%TO.P,U1,1*%
%TO.N,AUDIO_L*%
X146400000Y-66800000D03*
D22*
%TO.P,U1,2,-*%
%TO.N,Net-(J1-Pin_2)*%
X143860000Y-66800000D03*
%TO.P,U1,3,+*%
%TO.N,VGND2*%
X141320000Y-66800000D03*
%TO.P,U1,4,V-*%
%TO.N,-4.5V*%
X138780000Y-66800000D03*
%TO.P,U1,5,+*%
%TO.N,VGND2*%
X138780000Y-74420000D03*
%TO.P,U1,6,-*%
%TO.N,Net-(J1-Pin_1)*%
X141320000Y-74420000D03*
%TO.P,U1,7*%
%TO.N,AUDIO_R*%
X143860000Y-74420000D03*
%TO.P,U1,8,V+*%
%TO.N,4.5V*%
X146400000Y-74420000D03*
%TD*%
D23*
%TO.P,J2,R*%
%TO.N,AUDIO_R*%
X138700000Y-171600000D03*
D24*
%TO.P,J2,RN*%
%TO.N,unconnected-(J2-PadRN)*%
X141200000Y-171600000D03*
D25*
%TO.P,J2,S*%
%TO.N,VGND2*%
X143700000Y-176600000D03*
D23*
%TO.P,J2,T*%
%TO.N,AUDIO_L*%
X148700000Y-171600000D03*
D26*
%TO.P,J2,TN*%
%TO.N,unconnected-(J2-PadTN)*%
X146200000Y-171600000D03*
%TD*%
D27*
%TO.P,JP4,1,A*%
%TO.N,unconnected-(JP4-A-Pad1)*%
X128500000Y-166000000D03*
D28*
%TO.P,JP4,2,B*%
%TO.N,Net-(JP2-A)*%
X128500000Y-164700000D03*
%TD*%
D29*
%TO.P,BT1,1,+*%
%TO.N,Net-(BT1-+)*%
X136650000Y-111250000D03*
D30*
%TO.P,BT1,2,-*%
%TO.N,-4.5V*%
X149350000Y-111250000D03*
%TD*%
D27*
%TO.P,JP2,1,A*%
%TO.N,Net-(JP2-A)*%
X129000000Y-66800000D03*
D28*
%TO.P,JP2,2,B*%
%TO.N,Net-(J1-Pin_2)*%
X129000000Y-65500000D03*
%TD*%
D31*
%TO.N,VGND2*%
X143050000Y-175950000D02*
X143700000Y-176600000D01*
X134610000Y-173890000D02*
X133200000Y-172480000D01*
X138014041Y-175300000D02*
X141480761Y-175300000D01*
X134610000Y-173890000D02*
G75*
G03*
X138014041Y-175299954I3404000J3404100D01*
G01*
X143050000Y-175950000D02*
G75*
G03*
X141480761Y-175300016I-1569200J-1569200D01*
G01*
%TO.N,AUDIO_R*%
X134000000Y-166034314D02*
X134000000Y-109353553D01*
X144135771Y-73364228D02*
X154453993Y-63046006D01*
X131500000Y-85585786D02*
X131500000Y-84750000D01*
X133850000Y-167400000D02*
X133765685Y-167400000D01*
X141493208Y-76786791D02*
X143584228Y-74695771D01*
X133500000Y-108146446D02*
X133500000Y-90414213D01*
X156677500Y-62125000D02*
X157980000Y-62125000D01*
X134186791Y-79813208D02*
X133090990Y-80909009D01*
X134959619Y-167859619D02*
X138700000Y-171600000D01*
X143860000Y-74030000D02*
G75*
G02*
X143584220Y-74695763I-941500J0D01*
G01*
X134000000Y-166034314D02*
G75*
G02*
X133599996Y-166999996I-1365700J14D01*
G01*
X133750000Y-108750000D02*
G75*
G02*
X134000019Y-109353553I-603600J-603600D01*
G01*
X144135771Y-73364228D02*
G75*
G03*
X143859987Y-74030000I665729J-665772D01*
G01*
X133090990Y-80909009D02*
G75*
G03*
X131500005Y-84750000I3841010J-3840991D01*
G01*
X131500000Y-85585786D02*
G75*
G03*
X132499996Y-88000004I3414200J-14D01*
G01*
X134959619Y-167859619D02*
G75*
G03*
X133850000Y-167399989I-1109619J-1109581D01*
G01*
X156677500Y-62125000D02*
G75*
G03*
X154453996Y-63046009I0J-3144500D01*
G01*
X133500000Y-108146446D02*
G75*
G03*
X133749984Y-108750016I853500J-54D01*
G01*
X132500000Y-88000000D02*
G75*
G02*
X133499994Y-90414213I-2414200J-2414200D01*
G01*
X133600000Y-167000000D02*
G75*
G03*
X133765685Y-167400035I165700J-165700D01*
G01*
X141493208Y-76786791D02*
G75*
G02*
X137840000Y-78300004I-3653208J3653191D01*
G01*
X137840000Y-78300000D02*
G75*
G03*
X134186795Y-79813212I0J-5166400D01*
G01*
%TO.N,AUDIO_L*%
X140113963Y-174600000D02*
X147163603Y-174600000D01*
X148700000Y-173063603D02*
X148700000Y-171600000D01*
X136266207Y-173006207D02*
X133200000Y-169940000D01*
X136266207Y-173006207D02*
G75*
G03*
X140113963Y-174600011I3847793J3847807D01*
G01*
X148700000Y-173063603D02*
G75*
G02*
X148249999Y-174149999I-1536400J3D01*
G01*
X148250000Y-174150000D02*
G75*
G02*
X147163603Y-174600002I-1086400J1086400D01*
G01*
%TO.N,-4.5V*%
X150100000Y-112000000D02*
X149350000Y-111250000D01*
X146799999Y-176599999D02*
X147858578Y-175541421D01*
X148541421Y-175258578D02*
X149625000Y-174175000D01*
X143902943Y-177800000D02*
X137945756Y-177800000D01*
X150850000Y-171217588D02*
X150850000Y-113810660D01*
X134590000Y-176410000D02*
X133200000Y-175020000D01*
X154219749Y-93594749D02*
X154514749Y-93594749D01*
X150100000Y-112000000D02*
G75*
G02*
X150850016Y-113810660I-1810700J-1810700D01*
G01*
X148200000Y-175400000D02*
G75*
G03*
X147858587Y-175541430I0J-482800D01*
G01*
X154219749Y-93594749D02*
G75*
G03*
X153716137Y-93803330I-49J-712151D01*
G01*
X148541421Y-175258578D02*
G75*
G02*
X148200000Y-175399983I-341421J341478D01*
G01*
X146799999Y-176599999D02*
G75*
G02*
X143902943Y-177800017I-2897099J2897099D01*
G01*
X134590000Y-176410000D02*
G75*
G03*
X137945756Y-177800018I3355800J3355800D01*
G01*
X150850000Y-171217588D02*
G75*
G02*
X149625003Y-174175003I-4182400J-12D01*
G01*
%TO.N,4.5V*%
X145364608Y-77235391D02*
X144850000Y-77750000D01*
X134918558Y-80481440D02*
X135187374Y-80212625D01*
X133974749Y-82760000D02*
X133974749Y-84094749D01*
X138114911Y-79000000D02*
X141832233Y-79000000D01*
X146100000Y-75460000D02*
X146100000Y-74420000D01*
X134918558Y-80481440D02*
G75*
G03*
X133974742Y-82760000I2278542J-2278560D01*
G01*
X144850000Y-77750000D02*
G75*
G02*
X141832233Y-79000014I-3017800J3017800D01*
G01*
X138114911Y-79000000D02*
G75*
G03*
X135187361Y-80212612I-11J-4140200D01*
G01*
X146100000Y-75460000D02*
G75*
G02*
X145364612Y-77235395I-2510800J0D01*
G01*
%TO.N,Net-(J1-Pin_1)*%
X147820000Y-67786706D02*
X147820000Y-62125000D01*
X141450000Y-74420000D02*
X141320000Y-74420000D01*
X147541900Y-68458099D02*
X141671923Y-74328076D01*
X141671923Y-74328076D02*
G75*
G02*
X141450000Y-74419984I-221923J221976D01*
G01*
X147820000Y-67786706D02*
G75*
G02*
X147541898Y-68458097I-949500J6D01*
G01*
%TO.N,Net-(J1-Pin_2)*%
X129000000Y-65500000D02*
X129000000Y-62120000D01*
%TO.N,Net-(JP2-A)*%
X128225000Y-164425000D02*
X128500000Y-164700000D01*
X128475000Y-67325000D02*
X129000000Y-66800000D01*
X127950000Y-68592462D02*
X127950000Y-163761091D01*
X128475000Y-67325000D02*
G75*
G03*
X127949984Y-68592462I1267500J-1267500D01*
G01*
X127950000Y-163761091D02*
G75*
G03*
X128224997Y-164425003I938900J-9D01*
G01*
%TD*%
M02*
