%TF.GenerationSoftware,KiCad,Pcbnew,8.0.5*%
%TF.CreationDate,2025-02-18T01:30:19+08:00*%
%TF.ProjectId,troubleSeeker,74726f75-626c-4655-9365-656b65722e6b,rev?*%
%TF.SameCoordinates,Original*%
%TF.FileFunction,Profile,NP*%
%FSLAX46Y46*%
G04 Gerber Fmt 4.6, Leading zero omitted, Abs format (unit mm)*
G04 Created by KiCad (PCBNEW 8.0.5) date 2025-02-18 01:30:19*
%MOMM*%
%LPD*%
G01*
G04 APERTURE LIST*
%TA.AperFunction,Profile*%
%ADD10C,0.050000*%
%TD*%
%TA.AperFunction,Profile*%
%ADD11C,0.200000*%
%TD*%
%TA.AperFunction,Profile*%
%ADD12C,0.120000*%
%TD*%
G04 APERTURE END LIST*
D10*
X155900000Y-68400000D02*
G75*
G02*
X152700000Y-68400000I-1600000J0D01*
G01*
X152700000Y-68400000D02*
G75*
G02*
X155900000Y-68400000I1600000J0D01*
G01*
D11*
X125283815Y-42533727D02*
G75*
G02*
X136746099Y-39799998I6812285J-3166273D01*
G01*
X159512282Y-166200100D02*
X156200000Y-179600000D01*
X149450001Y-39800001D02*
X148050000Y-46150000D01*
X136746097Y-39800001D02*
X138146098Y-46150000D01*
D10*
X144700000Y-165900000D02*
G75*
G02*
X141500000Y-165900000I-1600000J0D01*
G01*
X141500000Y-165900000D02*
G75*
G02*
X144700000Y-165900000I1600000J0D01*
G01*
D11*
X131002822Y-181092746D02*
G75*
G02*
X129800001Y-179600000I697178J1792746D01*
G01*
X125283815Y-42533727D02*
X126683816Y-48883726D01*
X159512282Y-127683869D02*
X159512282Y-166200100D01*
X160912283Y-42533727D02*
X159512282Y-48883726D01*
X147196148Y-46928703D02*
X138999950Y-46928703D01*
X156200000Y-179600000D02*
G75*
G02*
X154997179Y-181092747I-1900000J300000D01*
G01*
X126683816Y-166200100D02*
X129800001Y-179600000D01*
X126683816Y-127683869D02*
X126683816Y-166200100D01*
X159512282Y-127683869D02*
X159512282Y-48883726D01*
X150200000Y-181100000D02*
X154997179Y-181092746D01*
X138999950Y-46928703D02*
G75*
G02*
X138146089Y-46150000I-71850J778703D01*
G01*
X126683816Y-127683869D02*
X126683816Y-48883726D01*
X148050000Y-46150000D02*
G75*
G02*
X147196149Y-46928692I-782000J0D01*
G01*
X149450001Y-39800001D02*
G75*
G02*
X160912283Y-42533727I4649999J-5899999D01*
G01*
X137200000Y-181100000D02*
X131002822Y-181092746D01*
D10*
X133500000Y-68400000D02*
G75*
G02*
X130300000Y-68400000I-1600000J0D01*
G01*
X130300000Y-68400000D02*
G75*
G02*
X133500000Y-68400000I1600000J0D01*
G01*
D12*
%TO.C,J2*%
X141500000Y-180100000D02*
X141500000Y-181100000D01*
X141500000Y-181100000D02*
X137200000Y-181100000D01*
X145500000Y-179700000D02*
X141900000Y-179700000D01*
X145900000Y-180100000D02*
X145900000Y-181100000D01*
X145900000Y-181100000D02*
X150200000Y-181100000D01*
X141500000Y-180100000D02*
G75*
G02*
X141900000Y-179700000I400002J-2D01*
G01*
X145500000Y-179700000D02*
G75*
G02*
X145900000Y-180100000I0J-400000D01*
G01*
%TD*%
M02*
