M48
; DRILL file {KiCad 8.0.5} date 2025-02-18T01:30:23+0800
; FORMAT={-:-/ absolute / inch / decimal}
; #@! TF.CreationDate,2025-02-18T01:30:23+08:00
; #@! TF.GenerationSoftware,Kicad,Pcbnew,8.0.5
; #@! TF.FileFunction,Plated,1,2,PTH
FMAT,2
INCH
; #@! TA.AperFunction,Plated,PTH,ComponentDrill
T1C0.0157
; #@! TA.AperFunction,Plated,PTH,ComponentDrill
T2C0.0315
; #@! TA.AperFunction,Plated,PTH,ComponentDrill
T3C0.0354
; #@! TA.AperFunction,Plated,PTH,ComponentDrill
T4C0.0394
; #@! TA.AperFunction,Plated,PTH,ComponentDrill
T5C0.0512
; #@! TA.AperFunction,Plated,PTH,ComponentDrill
T6C0.0591
; #@! TA.AperFunction,Plated,PTH,ComponentDrill
T7C0.0945
%
G90
G05
T2
X5.0797Y-2.0453
X5.0803Y-2.2874
X5.0835Y-2.4409
X5.1809Y-3.6848
X5.2746Y-3.3108
X5.2766Y-2.0453
X5.4638Y-2.6299
X5.4638Y-2.9299
X5.4714Y-3.3108
X5.4803Y-2.2874
X5.4835Y-2.4409
X5.5638Y-2.6299
X5.5638Y-2.9299
X5.5809Y-3.6848
X5.6638Y-2.6299
X5.6638Y-2.9299
X5.6833Y-3.6848
X5.747Y-3.3108
X5.7638Y-2.6299
X5.7638Y-2.9299
X5.8195Y-2.2904
X5.8197Y-2.4459
X5.9439Y-3.3108
X5.9941Y-2.0404
X6.0833Y-3.6848
X6.1909Y-2.0404
X6.2195Y-2.2904
X6.2197Y-2.4459
T3
X5.1575Y-3.9173
X5.1575Y-3.9961
X5.1575Y-4.0748
T4
X5.2441Y-6.5906
X5.2441Y-6.6906
X5.2441Y-6.7906
X5.2441Y-6.8906
X5.2441Y-6.9906
X6.0413Y-6.5906
X6.0413Y-6.6906
X6.0413Y-6.7906
X6.0413Y-6.8906
X6.0413Y-6.9906
T5
X5.0797Y-1.7185
X5.2766Y-1.7185
X5.5276Y-2.0219
X5.7244Y-2.0219
X5.9882Y-1.7185
X6.185Y-1.7185
T6
X5.1575Y-3.8346
X5.1575Y-4.1575
T7
X5.3799Y-4.3799
X5.8799Y-4.3799
T1
G00X5.4606Y-6.7362
M15
G01X5.4606Y-6.7756
M16
G05
G00X5.6378Y-6.9528
M15
G01X5.6772Y-6.9528
M16
G05
G00X5.8543Y-6.7756
M15
G01X5.8543Y-6.7362
M16
G05
T2
G00X5.5591Y-6.7421
M15
G01X5.5591Y-6.7697
M16
G05
G00X5.7559Y-6.7697
M15
G01X5.7559Y-6.7421
M16
G05
M30
