%TF.GenerationSoftware,KiCad,Pcbnew,8.0.5*%
%TF.CreationDate,2025-02-18T01:30:24+08:00*%
%TF.ProjectId,troubleSeeker,74726f75-626c-4655-9365-656b65722e6b,rev?*%
%TF.SameCoordinates,Original*%
%TF.FileFunction,Drillmap*%
%TF.FilePolarity,Positive*%
%FSLAX45Y45*%
G04 Gerber Fmt 4.5, Leading zero omitted, Abs format (unit mm)*
G04 Created by KiCad (PCBNEW 8.0.5) date 2025-02-18 01:30:24*
%MOMM*%
%LPD*%
G01*
G04 APERTURE LIST*
%ADD10C,0.050000*%
%ADD11C,0.200000*%
%ADD12C,0.120000*%
%ADD13C,0.100000*%
%ADD14C,0.130000*%
%ADD15C,0.150000*%
%ADD16C,0.240000*%
G04 APERTURE END LIST*
D10*
X15590000Y-6840000D02*
G75*
G02*
X15270000Y-6840000I-160000J0D01*
G01*
X15270000Y-6840000D02*
G75*
G02*
X15590000Y-6840000I160000J0D01*
G01*
D11*
X12528381Y-4253373D02*
G75*
G02*
X13674610Y-3980000I681229J-316627D01*
G01*
X15951228Y-16620010D02*
X15620000Y-17960000D01*
X14945000Y-3980000D02*
X14805000Y-4615000D01*
X13674610Y-3980000D02*
X13814610Y-4615000D01*
D10*
X14470000Y-16590000D02*
G75*
G02*
X14150000Y-16590000I-160000J0D01*
G01*
X14150000Y-16590000D02*
G75*
G02*
X14470000Y-16590000I160000J0D01*
G01*
D11*
X13100282Y-18109275D02*
G75*
G02*
X12980000Y-17960000I69718J179275D01*
G01*
X12528381Y-4253373D02*
X12668382Y-4888373D01*
X15951228Y-12768387D02*
X15951228Y-16620010D01*
X16091228Y-4253373D02*
X15951228Y-4888373D01*
X14719615Y-4692870D02*
X13899995Y-4692870D01*
X15620000Y-17960000D02*
G75*
G02*
X15499718Y-18109275I-190000J30000D01*
G01*
X12668382Y-16620010D02*
X12980000Y-17960000D01*
X12668382Y-12768387D02*
X12668382Y-16620010D01*
X15951228Y-12768387D02*
X15951228Y-4888373D01*
X15020000Y-18110000D02*
X15499718Y-18109275D01*
X13899995Y-4692870D02*
G75*
G02*
X13814609Y-4615000I-7185J77870D01*
G01*
X12668382Y-12768387D02*
X12668382Y-4888373D01*
X14805000Y-4615000D02*
G75*
G02*
X14719615Y-4692869I-78200J0D01*
G01*
X14945000Y-3980000D02*
G75*
G02*
X16091228Y-4253373I465000J-590000D01*
G01*
X13720000Y-18110000D02*
X13100282Y-18109275D01*
D10*
X13350000Y-6840000D02*
G75*
G02*
X13030000Y-6840000I-160000J0D01*
G01*
X13030000Y-6840000D02*
G75*
G02*
X13350000Y-6840000I160000J0D01*
G01*
D12*
X14150000Y-18010000D02*
X14150000Y-18110000D01*
X14150000Y-18110000D02*
X13720000Y-18110000D01*
X14550000Y-17970000D02*
X14190000Y-17970000D01*
X14590000Y-18010000D02*
X14590000Y-18110000D01*
X14590000Y-18110000D02*
X15020000Y-18110000D01*
X14150000Y-18010000D02*
G75*
G02*
X14190000Y-17970000I40000J0D01*
G01*
X14550000Y-17970000D02*
G75*
G02*
X14590000Y-18010000I0J-40000D01*
G01*
D11*
D13*
X13850000Y-17140000D02*
X13890000Y-17180000D01*
X13890000Y-17140000D02*
X13850000Y-17180000D01*
X13850000Y-17110000D02*
X13850000Y-17210000D01*
X13890000Y-17210000D02*
G75*
G02*
X13850000Y-17210000I-20000J0D01*
G01*
X13890000Y-17210000D02*
X13890000Y-17110000D01*
X13890000Y-17110000D02*
G75*
G03*
X13850000Y-17110000I-20000J0D01*
G01*
X14350000Y-17640000D02*
X14390000Y-17680000D01*
X14390000Y-17640000D02*
X14350000Y-17680000D01*
X14320000Y-17680000D02*
X14420000Y-17680000D01*
X14420000Y-17640000D02*
G75*
G02*
X14420000Y-17680000I0J-20000D01*
G01*
X14420000Y-17640000D02*
X14320000Y-17640000D01*
X14320000Y-17640000D02*
G75*
G03*
X14320000Y-17680000I0J-20000D01*
G01*
X14850000Y-17140000D02*
X14890000Y-17180000D01*
X14890000Y-17140000D02*
X14850000Y-17180000D01*
X14890000Y-17210000D02*
X14890000Y-17110000D01*
X14850000Y-17110000D02*
G75*
G02*
X14890000Y-17110000I20000J0D01*
G01*
X14850000Y-17110000D02*
X14850000Y-17210000D01*
X14850000Y-17210000D02*
G75*
G03*
X14890000Y-17210000I20000J0D01*
G01*
X12942500Y-5195000D02*
G75*
G02*
X12862500Y-5195000I-40000J0D01*
G01*
X12862500Y-5195000D02*
G75*
G02*
X12942500Y-5195000I40000J0D01*
G01*
X12944000Y-5810000D02*
G75*
G02*
X12864000Y-5810000I-40000J0D01*
G01*
X12864000Y-5810000D02*
G75*
G02*
X12944000Y-5810000I40000J0D01*
G01*
X12952000Y-6200000D02*
G75*
G02*
X12872000Y-6200000I-40000J0D01*
G01*
X12872000Y-6200000D02*
G75*
G02*
X12952000Y-6200000I40000J0D01*
G01*
X13199475Y-9359475D02*
G75*
G02*
X13119475Y-9359475I-40000J0D01*
G01*
X13119475Y-9359475D02*
G75*
G02*
X13199475Y-9359475I40000J0D01*
G01*
X13437475Y-8409475D02*
G75*
G02*
X13357475Y-8409475I-40000J0D01*
G01*
X13357475Y-8409475D02*
G75*
G02*
X13437475Y-8409475I40000J0D01*
G01*
X13442500Y-5195000D02*
G75*
G02*
X13362500Y-5195000I-40000J0D01*
G01*
X13362500Y-5195000D02*
G75*
G02*
X13442500Y-5195000I40000J0D01*
G01*
X13918000Y-6680000D02*
G75*
G02*
X13838000Y-6680000I-40000J0D01*
G01*
X13838000Y-6680000D02*
G75*
G02*
X13918000Y-6680000I40000J0D01*
G01*
X13918000Y-7442000D02*
G75*
G02*
X13838000Y-7442000I-40000J0D01*
G01*
X13838000Y-7442000D02*
G75*
G02*
X13918000Y-7442000I40000J0D01*
G01*
X13937475Y-8409475D02*
G75*
G02*
X13857475Y-8409475I-40000J0D01*
G01*
X13857475Y-8409475D02*
G75*
G02*
X13937475Y-8409475I40000J0D01*
G01*
X13960000Y-5810000D02*
G75*
G02*
X13880000Y-5810000I-40000J0D01*
G01*
X13880000Y-5810000D02*
G75*
G02*
X13960000Y-5810000I40000J0D01*
G01*
X13968000Y-6200000D02*
G75*
G02*
X13888000Y-6200000I-40000J0D01*
G01*
X13888000Y-6200000D02*
G75*
G02*
X13968000Y-6200000I40000J0D01*
G01*
X14160000Y-17160000D02*
G75*
G02*
X14080000Y-17160000I-40000J0D01*
G01*
X14080000Y-17160000D02*
G75*
G02*
X14160000Y-17160000I40000J0D01*
G01*
X14080000Y-17125000D02*
X14080000Y-17195000D01*
X14160000Y-17195000D02*
G75*
G02*
X14080000Y-17195000I-40000J0D01*
G01*
X14160000Y-17195000D02*
X14160000Y-17125000D01*
X14160000Y-17125000D02*
G75*
G03*
X14080000Y-17125000I-40000J0D01*
G01*
X14172000Y-6680000D02*
G75*
G02*
X14092000Y-6680000I-40000J0D01*
G01*
X14092000Y-6680000D02*
G75*
G02*
X14172000Y-6680000I40000J0D01*
G01*
X14172000Y-7442000D02*
G75*
G02*
X14092000Y-7442000I-40000J0D01*
G01*
X14092000Y-7442000D02*
G75*
G02*
X14172000Y-7442000I40000J0D01*
G01*
X14215475Y-9359475D02*
G75*
G02*
X14135475Y-9359475I-40000J0D01*
G01*
X14135475Y-9359475D02*
G75*
G02*
X14215475Y-9359475I40000J0D01*
G01*
X14426000Y-6680000D02*
G75*
G02*
X14346000Y-6680000I-40000J0D01*
G01*
X14346000Y-6680000D02*
G75*
G02*
X14426000Y-6680000I40000J0D01*
G01*
X14426000Y-7442000D02*
G75*
G02*
X14346000Y-7442000I-40000J0D01*
G01*
X14346000Y-7442000D02*
G75*
G02*
X14426000Y-7442000I40000J0D01*
G01*
X14475475Y-9359475D02*
G75*
G02*
X14395475Y-9359475I-40000J0D01*
G01*
X14395475Y-9359475D02*
G75*
G02*
X14475475Y-9359475I40000J0D01*
G01*
X14637475Y-8409475D02*
G75*
G02*
X14557475Y-8409475I-40000J0D01*
G01*
X14557475Y-8409475D02*
G75*
G02*
X14637475Y-8409475I40000J0D01*
G01*
X14660000Y-17160000D02*
G75*
G02*
X14580000Y-17160000I-40000J0D01*
G01*
X14580000Y-17160000D02*
G75*
G02*
X14660000Y-17160000I40000J0D01*
G01*
X14660000Y-17195000D02*
X14660000Y-17125000D01*
X14580000Y-17125000D02*
G75*
G02*
X14660000Y-17125000I40000J0D01*
G01*
X14580000Y-17125000D02*
X14580000Y-17195000D01*
X14580000Y-17195000D02*
G75*
G03*
X14660000Y-17195000I40000J0D01*
G01*
X14680000Y-6680000D02*
G75*
G02*
X14600000Y-6680000I-40000J0D01*
G01*
X14600000Y-6680000D02*
G75*
G02*
X14680000Y-6680000I40000J0D01*
G01*
X14680000Y-7442000D02*
G75*
G02*
X14600000Y-7442000I-40000J0D01*
G01*
X14600000Y-7442000D02*
G75*
G02*
X14680000Y-7442000I40000J0D01*
G01*
X14821500Y-5817500D02*
G75*
G02*
X14741500Y-5817500I-40000J0D01*
G01*
X14741500Y-5817500D02*
G75*
G02*
X14821500Y-5817500I40000J0D01*
G01*
X14822000Y-6212500D02*
G75*
G02*
X14742000Y-6212500I-40000J0D01*
G01*
X14742000Y-6212500D02*
G75*
G02*
X14822000Y-6212500I40000J0D01*
G01*
X15137475Y-8409475D02*
G75*
G02*
X15057475Y-8409475I-40000J0D01*
G01*
X15057475Y-8409475D02*
G75*
G02*
X15137475Y-8409475I40000J0D01*
G01*
X15265000Y-5182500D02*
G75*
G02*
X15185000Y-5182500I-40000J0D01*
G01*
X15185000Y-5182500D02*
G75*
G02*
X15265000Y-5182500I40000J0D01*
G01*
X15491475Y-9359475D02*
G75*
G02*
X15411475Y-9359475I-40000J0D01*
G01*
X15411475Y-9359475D02*
G75*
G02*
X15491475Y-9359475I40000J0D01*
G01*
X15765000Y-5182500D02*
G75*
G02*
X15685000Y-5182500I-40000J0D01*
G01*
X15685000Y-5182500D02*
G75*
G02*
X15765000Y-5182500I40000J0D01*
G01*
X15837500Y-5817500D02*
G75*
G02*
X15757500Y-5817500I-40000J0D01*
G01*
X15757500Y-5817500D02*
G75*
G02*
X15837500Y-5817500I40000J0D01*
G01*
X15838000Y-6212500D02*
G75*
G02*
X15758000Y-6212500I-40000J0D01*
G01*
X15758000Y-6212500D02*
G75*
G02*
X15838000Y-6212500I40000J0D01*
G01*
X13100000Y-9905000D02*
X13100000Y-9995000D01*
X13055000Y-9950000D02*
X13145000Y-9950000D01*
X13100000Y-10105000D02*
X13100000Y-10195000D01*
X13055000Y-10150000D02*
X13145000Y-10150000D01*
X13100000Y-10305000D02*
X13100000Y-10395000D01*
X13055000Y-10350000D02*
X13145000Y-10350000D01*
X13355356Y-16775356D02*
X13355356Y-16704644D01*
X13284644Y-16704644D01*
X13284644Y-16775356D01*
X13355356Y-16775356D01*
X13355356Y-17029356D02*
X13355356Y-16958644D01*
X13284644Y-16958644D01*
X13284644Y-17029356D01*
X13355356Y-17029356D01*
X13355356Y-17283356D02*
X13355356Y-17212644D01*
X13284644Y-17212644D01*
X13284644Y-17283356D01*
X13355356Y-17283356D01*
X13355356Y-17537356D02*
X13355356Y-17466644D01*
X13284644Y-17466644D01*
X13284644Y-17537356D01*
X13355356Y-17537356D01*
X13355356Y-17791356D02*
X13355356Y-17720644D01*
X13284644Y-17720644D01*
X13284644Y-17791356D01*
X13355356Y-17791356D01*
X15380356Y-16775356D02*
X15380356Y-16704644D01*
X15309644Y-16704644D01*
X15309644Y-16775356D01*
X15380356Y-16775356D01*
X15380356Y-17029356D02*
X15380356Y-16958644D01*
X15309644Y-16958644D01*
X15309644Y-17029356D01*
X15380356Y-17029356D01*
X15380356Y-17283356D02*
X15380356Y-17212644D01*
X15309644Y-17212644D01*
X15309644Y-17283356D01*
X15380356Y-17283356D01*
X15380356Y-17537356D02*
X15380356Y-17466644D01*
X15309644Y-17466644D01*
X15309644Y-17537356D01*
X15380356Y-17537356D01*
X15380356Y-17791356D02*
X15380356Y-17720644D01*
X15309644Y-17720644D01*
X15309644Y-17791356D01*
X15380356Y-17791356D01*
D14*
X12902500Y-4430000D02*
X12967500Y-4365000D01*
X12902500Y-4300000D01*
X12837500Y-4365000D01*
X12902500Y-4430000D01*
X13402500Y-4430000D02*
X13467500Y-4365000D01*
X13402500Y-4300000D01*
X13337500Y-4365000D01*
X13402500Y-4430000D01*
X14040000Y-5200500D02*
X14105000Y-5135500D01*
X14040000Y-5070500D01*
X13975000Y-5135500D01*
X14040000Y-5200500D01*
X14540000Y-5200500D02*
X14605000Y-5135500D01*
X14540000Y-5070500D01*
X14475000Y-5135500D01*
X14540000Y-5200500D01*
X15210000Y-4430000D02*
X15275000Y-4365000D01*
X15210000Y-4300000D01*
X15145000Y-4365000D01*
X15210000Y-4430000D01*
X15710000Y-4430000D02*
X15775000Y-4365000D01*
X15710000Y-4300000D01*
X15645000Y-4365000D01*
X15710000Y-4430000D01*
D15*
X13025000Y-9665000D02*
X13175000Y-9815000D01*
X13175000Y-9665000D02*
X13025000Y-9815000D01*
X13175000Y-9740000D02*
G75*
G02*
X13025000Y-9740000I-75000J0D01*
G01*
X13025000Y-9740000D02*
G75*
G02*
X13175000Y-9740000I75000J0D01*
G01*
X13025000Y-10485000D02*
X13175000Y-10635000D01*
X13175000Y-10485000D02*
X13025000Y-10635000D01*
X13175000Y-10560000D02*
G75*
G02*
X13025000Y-10560000I-75000J0D01*
G01*
X13025000Y-10560000D02*
G75*
G02*
X13175000Y-10560000I75000J0D01*
G01*
D16*
X13545000Y-11005000D02*
X13785000Y-11245000D01*
X13785000Y-11005000D02*
X13545000Y-11245000D01*
X13665000Y-11005000D02*
X13665000Y-11245000D01*
X13545000Y-11125000D02*
X13785000Y-11125000D01*
X14815000Y-11005000D02*
X15055000Y-11245000D01*
X15055000Y-11005000D02*
X14815000Y-11245000D01*
X14935000Y-11005000D02*
X14935000Y-11245000D01*
X14815000Y-11125000D02*
X15055000Y-11125000D01*
D11*
X12779158Y-18431484D02*
X12779158Y-18231484D01*
X12779158Y-18231484D02*
X12826777Y-18231484D01*
X12826777Y-18231484D02*
X12855349Y-18241008D01*
X12855349Y-18241008D02*
X12874396Y-18260055D01*
X12874396Y-18260055D02*
X12883920Y-18279103D01*
X12883920Y-18279103D02*
X12893444Y-18317198D01*
X12893444Y-18317198D02*
X12893444Y-18345770D01*
X12893444Y-18345770D02*
X12883920Y-18383865D01*
X12883920Y-18383865D02*
X12874396Y-18402912D01*
X12874396Y-18402912D02*
X12855349Y-18421960D01*
X12855349Y-18421960D02*
X12826777Y-18431484D01*
X12826777Y-18431484D02*
X12779158Y-18431484D01*
X12979158Y-18431484D02*
X12979158Y-18298150D01*
X12979158Y-18336246D02*
X12988682Y-18317198D01*
X12988682Y-18317198D02*
X12998206Y-18307674D01*
X12998206Y-18307674D02*
X13017253Y-18298150D01*
X13017253Y-18298150D02*
X13036301Y-18298150D01*
X13102968Y-18431484D02*
X13102968Y-18298150D01*
X13102968Y-18231484D02*
X13093444Y-18241008D01*
X13093444Y-18241008D02*
X13102968Y-18250531D01*
X13102968Y-18250531D02*
X13112492Y-18241008D01*
X13112492Y-18241008D02*
X13102968Y-18231484D01*
X13102968Y-18231484D02*
X13102968Y-18250531D01*
X13226777Y-18431484D02*
X13207730Y-18421960D01*
X13207730Y-18421960D02*
X13198206Y-18402912D01*
X13198206Y-18402912D02*
X13198206Y-18231484D01*
X13331539Y-18431484D02*
X13312492Y-18421960D01*
X13312492Y-18421960D02*
X13302968Y-18402912D01*
X13302968Y-18402912D02*
X13302968Y-18231484D01*
X13560111Y-18431484D02*
X13560111Y-18231484D01*
X13560111Y-18231484D02*
X13626777Y-18374341D01*
X13626777Y-18374341D02*
X13693444Y-18231484D01*
X13693444Y-18231484D02*
X13693444Y-18431484D01*
X13874396Y-18431484D02*
X13874396Y-18326722D01*
X13874396Y-18326722D02*
X13864873Y-18307674D01*
X13864873Y-18307674D02*
X13845825Y-18298150D01*
X13845825Y-18298150D02*
X13807730Y-18298150D01*
X13807730Y-18298150D02*
X13788682Y-18307674D01*
X13874396Y-18421960D02*
X13855349Y-18431484D01*
X13855349Y-18431484D02*
X13807730Y-18431484D01*
X13807730Y-18431484D02*
X13788682Y-18421960D01*
X13788682Y-18421960D02*
X13779158Y-18402912D01*
X13779158Y-18402912D02*
X13779158Y-18383865D01*
X13779158Y-18383865D02*
X13788682Y-18364817D01*
X13788682Y-18364817D02*
X13807730Y-18355293D01*
X13807730Y-18355293D02*
X13855349Y-18355293D01*
X13855349Y-18355293D02*
X13874396Y-18345770D01*
X13969634Y-18298150D02*
X13969634Y-18498150D01*
X13969634Y-18307674D02*
X13988682Y-18298150D01*
X13988682Y-18298150D02*
X14026777Y-18298150D01*
X14026777Y-18298150D02*
X14045825Y-18307674D01*
X14045825Y-18307674D02*
X14055349Y-18317198D01*
X14055349Y-18317198D02*
X14064873Y-18336246D01*
X14064873Y-18336246D02*
X14064873Y-18393389D01*
X14064873Y-18393389D02*
X14055349Y-18412436D01*
X14055349Y-18412436D02*
X14045825Y-18421960D01*
X14045825Y-18421960D02*
X14026777Y-18431484D01*
X14026777Y-18431484D02*
X13988682Y-18431484D01*
X13988682Y-18431484D02*
X13969634Y-18421960D01*
X14150587Y-18412436D02*
X14160111Y-18421960D01*
X14160111Y-18421960D02*
X14150587Y-18431484D01*
X14150587Y-18431484D02*
X14141063Y-18421960D01*
X14141063Y-18421960D02*
X14150587Y-18412436D01*
X14150587Y-18412436D02*
X14150587Y-18431484D01*
X14150587Y-18307674D02*
X14160111Y-18317198D01*
X14160111Y-18317198D02*
X14150587Y-18326722D01*
X14150587Y-18326722D02*
X14141063Y-18317198D01*
X14141063Y-18317198D02*
X14150587Y-18307674D01*
X14150587Y-18307674D02*
X14150587Y-18326722D01*
D13*
X12478381Y-18740000D02*
X12518381Y-18780000D01*
X12518381Y-18740000D02*
X12478381Y-18780000D01*
D11*
X12817253Y-18651484D02*
X12836301Y-18651484D01*
X12836301Y-18651484D02*
X12855349Y-18661008D01*
X12855349Y-18661008D02*
X12864873Y-18670531D01*
X12864873Y-18670531D02*
X12874396Y-18689579D01*
X12874396Y-18689579D02*
X12883920Y-18727674D01*
X12883920Y-18727674D02*
X12883920Y-18775293D01*
X12883920Y-18775293D02*
X12874396Y-18813389D01*
X12874396Y-18813389D02*
X12864873Y-18832436D01*
X12864873Y-18832436D02*
X12855349Y-18841960D01*
X12855349Y-18841960D02*
X12836301Y-18851484D01*
X12836301Y-18851484D02*
X12817253Y-18851484D01*
X12817253Y-18851484D02*
X12798206Y-18841960D01*
X12798206Y-18841960D02*
X12788682Y-18832436D01*
X12788682Y-18832436D02*
X12779158Y-18813389D01*
X12779158Y-18813389D02*
X12769634Y-18775293D01*
X12769634Y-18775293D02*
X12769634Y-18727674D01*
X12769634Y-18727674D02*
X12779158Y-18689579D01*
X12779158Y-18689579D02*
X12788682Y-18670531D01*
X12788682Y-18670531D02*
X12798206Y-18661008D01*
X12798206Y-18661008D02*
X12817253Y-18651484D01*
X12969634Y-18832436D02*
X12979158Y-18841960D01*
X12979158Y-18841960D02*
X12969634Y-18851484D01*
X12969634Y-18851484D02*
X12960111Y-18841960D01*
X12960111Y-18841960D02*
X12969634Y-18832436D01*
X12969634Y-18832436D02*
X12969634Y-18851484D01*
X13150587Y-18718150D02*
X13150587Y-18851484D01*
X13102968Y-18641960D02*
X13055349Y-18784817D01*
X13055349Y-18784817D02*
X13179158Y-18784817D01*
X13293444Y-18651484D02*
X13312492Y-18651484D01*
X13312492Y-18651484D02*
X13331539Y-18661008D01*
X13331539Y-18661008D02*
X13341063Y-18670531D01*
X13341063Y-18670531D02*
X13350587Y-18689579D01*
X13350587Y-18689579D02*
X13360111Y-18727674D01*
X13360111Y-18727674D02*
X13360111Y-18775293D01*
X13360111Y-18775293D02*
X13350587Y-18813389D01*
X13350587Y-18813389D02*
X13341063Y-18832436D01*
X13341063Y-18832436D02*
X13331539Y-18841960D01*
X13331539Y-18841960D02*
X13312492Y-18851484D01*
X13312492Y-18851484D02*
X13293444Y-18851484D01*
X13293444Y-18851484D02*
X13274396Y-18841960D01*
X13274396Y-18841960D02*
X13264873Y-18832436D01*
X13264873Y-18832436D02*
X13255349Y-18813389D01*
X13255349Y-18813389D02*
X13245825Y-18775293D01*
X13245825Y-18775293D02*
X13245825Y-18727674D01*
X13245825Y-18727674D02*
X13255349Y-18689579D01*
X13255349Y-18689579D02*
X13264873Y-18670531D01*
X13264873Y-18670531D02*
X13274396Y-18661008D01*
X13274396Y-18661008D02*
X13293444Y-18651484D01*
X13483920Y-18651484D02*
X13502968Y-18651484D01*
X13502968Y-18651484D02*
X13522015Y-18661008D01*
X13522015Y-18661008D02*
X13531539Y-18670531D01*
X13531539Y-18670531D02*
X13541063Y-18689579D01*
X13541063Y-18689579D02*
X13550587Y-18727674D01*
X13550587Y-18727674D02*
X13550587Y-18775293D01*
X13550587Y-18775293D02*
X13541063Y-18813389D01*
X13541063Y-18813389D02*
X13531539Y-18832436D01*
X13531539Y-18832436D02*
X13522015Y-18841960D01*
X13522015Y-18841960D02*
X13502968Y-18851484D01*
X13502968Y-18851484D02*
X13483920Y-18851484D01*
X13483920Y-18851484D02*
X13464873Y-18841960D01*
X13464873Y-18841960D02*
X13455349Y-18832436D01*
X13455349Y-18832436D02*
X13445825Y-18813389D01*
X13445825Y-18813389D02*
X13436301Y-18775293D01*
X13436301Y-18775293D02*
X13436301Y-18727674D01*
X13436301Y-18727674D02*
X13445825Y-18689579D01*
X13445825Y-18689579D02*
X13455349Y-18670531D01*
X13455349Y-18670531D02*
X13464873Y-18661008D01*
X13464873Y-18661008D02*
X13483920Y-18651484D01*
X13636301Y-18851484D02*
X13636301Y-18718150D01*
X13636301Y-18737198D02*
X13645825Y-18727674D01*
X13645825Y-18727674D02*
X13664873Y-18718150D01*
X13664873Y-18718150D02*
X13693444Y-18718150D01*
X13693444Y-18718150D02*
X13712492Y-18727674D01*
X13712492Y-18727674D02*
X13722015Y-18746722D01*
X13722015Y-18746722D02*
X13722015Y-18851484D01*
X13722015Y-18746722D02*
X13731539Y-18727674D01*
X13731539Y-18727674D02*
X13750587Y-18718150D01*
X13750587Y-18718150D02*
X13779158Y-18718150D01*
X13779158Y-18718150D02*
X13798206Y-18727674D01*
X13798206Y-18727674D02*
X13807730Y-18746722D01*
X13807730Y-18746722D02*
X13807730Y-18851484D01*
X13902968Y-18851484D02*
X13902968Y-18718150D01*
X13902968Y-18737198D02*
X13912492Y-18727674D01*
X13912492Y-18727674D02*
X13931539Y-18718150D01*
X13931539Y-18718150D02*
X13960111Y-18718150D01*
X13960111Y-18718150D02*
X13979158Y-18727674D01*
X13979158Y-18727674D02*
X13988682Y-18746722D01*
X13988682Y-18746722D02*
X13988682Y-18851484D01*
X13988682Y-18746722D02*
X13998206Y-18727674D01*
X13998206Y-18727674D02*
X14017254Y-18718150D01*
X14017254Y-18718150D02*
X14045825Y-18718150D01*
X14045825Y-18718150D02*
X14064873Y-18727674D01*
X14064873Y-18727674D02*
X14074396Y-18746722D01*
X14074396Y-18746722D02*
X14074396Y-18851484D01*
X14464873Y-18641960D02*
X14293444Y-18899103D01*
X14722016Y-18651484D02*
X14741063Y-18651484D01*
X14741063Y-18651484D02*
X14760111Y-18661008D01*
X14760111Y-18661008D02*
X14769635Y-18670531D01*
X14769635Y-18670531D02*
X14779158Y-18689579D01*
X14779158Y-18689579D02*
X14788682Y-18727674D01*
X14788682Y-18727674D02*
X14788682Y-18775293D01*
X14788682Y-18775293D02*
X14779158Y-18813389D01*
X14779158Y-18813389D02*
X14769635Y-18832436D01*
X14769635Y-18832436D02*
X14760111Y-18841960D01*
X14760111Y-18841960D02*
X14741063Y-18851484D01*
X14741063Y-18851484D02*
X14722016Y-18851484D01*
X14722016Y-18851484D02*
X14702968Y-18841960D01*
X14702968Y-18841960D02*
X14693444Y-18832436D01*
X14693444Y-18832436D02*
X14683920Y-18813389D01*
X14683920Y-18813389D02*
X14674397Y-18775293D01*
X14674397Y-18775293D02*
X14674397Y-18727674D01*
X14674397Y-18727674D02*
X14683920Y-18689579D01*
X14683920Y-18689579D02*
X14693444Y-18670531D01*
X14693444Y-18670531D02*
X14702968Y-18661008D01*
X14702968Y-18661008D02*
X14722016Y-18651484D01*
X14874397Y-18832436D02*
X14883920Y-18841960D01*
X14883920Y-18841960D02*
X14874397Y-18851484D01*
X14874397Y-18851484D02*
X14864873Y-18841960D01*
X14864873Y-18841960D02*
X14874397Y-18832436D01*
X14874397Y-18832436D02*
X14874397Y-18851484D01*
X15007730Y-18651484D02*
X15026778Y-18651484D01*
X15026778Y-18651484D02*
X15045825Y-18661008D01*
X15045825Y-18661008D02*
X15055349Y-18670531D01*
X15055349Y-18670531D02*
X15064873Y-18689579D01*
X15064873Y-18689579D02*
X15074397Y-18727674D01*
X15074397Y-18727674D02*
X15074397Y-18775293D01*
X15074397Y-18775293D02*
X15064873Y-18813389D01*
X15064873Y-18813389D02*
X15055349Y-18832436D01*
X15055349Y-18832436D02*
X15045825Y-18841960D01*
X15045825Y-18841960D02*
X15026778Y-18851484D01*
X15026778Y-18851484D02*
X15007730Y-18851484D01*
X15007730Y-18851484D02*
X14988682Y-18841960D01*
X14988682Y-18841960D02*
X14979158Y-18832436D01*
X14979158Y-18832436D02*
X14969635Y-18813389D01*
X14969635Y-18813389D02*
X14960111Y-18775293D01*
X14960111Y-18775293D02*
X14960111Y-18727674D01*
X14960111Y-18727674D02*
X14969635Y-18689579D01*
X14969635Y-18689579D02*
X14979158Y-18670531D01*
X14979158Y-18670531D02*
X14988682Y-18661008D01*
X14988682Y-18661008D02*
X15007730Y-18651484D01*
X15264873Y-18851484D02*
X15150587Y-18851484D01*
X15207730Y-18851484D02*
X15207730Y-18651484D01*
X15207730Y-18651484D02*
X15188682Y-18680055D01*
X15188682Y-18680055D02*
X15169635Y-18699103D01*
X15169635Y-18699103D02*
X15150587Y-18708627D01*
X15445825Y-18651484D02*
X15350587Y-18651484D01*
X15350587Y-18651484D02*
X15341063Y-18746722D01*
X15341063Y-18746722D02*
X15350587Y-18737198D01*
X15350587Y-18737198D02*
X15369635Y-18727674D01*
X15369635Y-18727674D02*
X15417254Y-18727674D01*
X15417254Y-18727674D02*
X15436301Y-18737198D01*
X15436301Y-18737198D02*
X15445825Y-18746722D01*
X15445825Y-18746722D02*
X15455349Y-18765770D01*
X15455349Y-18765770D02*
X15455349Y-18813389D01*
X15455349Y-18813389D02*
X15445825Y-18832436D01*
X15445825Y-18832436D02*
X15436301Y-18841960D01*
X15436301Y-18841960D02*
X15417254Y-18851484D01*
X15417254Y-18851484D02*
X15369635Y-18851484D01*
X15369635Y-18851484D02*
X15350587Y-18841960D01*
X15350587Y-18841960D02*
X15341063Y-18832436D01*
X15522016Y-18651484D02*
X15655349Y-18651484D01*
X15655349Y-18651484D02*
X15569635Y-18851484D01*
X15722016Y-18651484D02*
X15722016Y-18689579D01*
X15798206Y-18651484D02*
X15798206Y-18689579D01*
X16093444Y-18927674D02*
X16083920Y-18918150D01*
X16083920Y-18918150D02*
X16064873Y-18889579D01*
X16064873Y-18889579D02*
X16055349Y-18870531D01*
X16055349Y-18870531D02*
X16045825Y-18841960D01*
X16045825Y-18841960D02*
X16036301Y-18794341D01*
X16036301Y-18794341D02*
X16036301Y-18756246D01*
X16036301Y-18756246D02*
X16045825Y-18708627D01*
X16045825Y-18708627D02*
X16055349Y-18680055D01*
X16055349Y-18680055D02*
X16064873Y-18661008D01*
X16064873Y-18661008D02*
X16083920Y-18632436D01*
X16083920Y-18632436D02*
X16093444Y-18622912D01*
X16207730Y-18651484D02*
X16226778Y-18651484D01*
X16226778Y-18651484D02*
X16245825Y-18661008D01*
X16245825Y-18661008D02*
X16255349Y-18670531D01*
X16255349Y-18670531D02*
X16264873Y-18689579D01*
X16264873Y-18689579D02*
X16274397Y-18727674D01*
X16274397Y-18727674D02*
X16274397Y-18775293D01*
X16274397Y-18775293D02*
X16264873Y-18813389D01*
X16264873Y-18813389D02*
X16255349Y-18832436D01*
X16255349Y-18832436D02*
X16245825Y-18841960D01*
X16245825Y-18841960D02*
X16226778Y-18851484D01*
X16226778Y-18851484D02*
X16207730Y-18851484D01*
X16207730Y-18851484D02*
X16188682Y-18841960D01*
X16188682Y-18841960D02*
X16179159Y-18832436D01*
X16179159Y-18832436D02*
X16169635Y-18813389D01*
X16169635Y-18813389D02*
X16160111Y-18775293D01*
X16160111Y-18775293D02*
X16160111Y-18727674D01*
X16160111Y-18727674D02*
X16169635Y-18689579D01*
X16169635Y-18689579D02*
X16179159Y-18670531D01*
X16179159Y-18670531D02*
X16188682Y-18661008D01*
X16188682Y-18661008D02*
X16207730Y-18651484D01*
X16512492Y-18851484D02*
X16512492Y-18651484D01*
X16598206Y-18851484D02*
X16598206Y-18746722D01*
X16598206Y-18746722D02*
X16588682Y-18727674D01*
X16588682Y-18727674D02*
X16569635Y-18718150D01*
X16569635Y-18718150D02*
X16541063Y-18718150D01*
X16541063Y-18718150D02*
X16522016Y-18727674D01*
X16522016Y-18727674D02*
X16512492Y-18737198D01*
X16722016Y-18851484D02*
X16702968Y-18841960D01*
X16702968Y-18841960D02*
X16693444Y-18832436D01*
X16693444Y-18832436D02*
X16683921Y-18813389D01*
X16683921Y-18813389D02*
X16683921Y-18756246D01*
X16683921Y-18756246D02*
X16693444Y-18737198D01*
X16693444Y-18737198D02*
X16702968Y-18727674D01*
X16702968Y-18727674D02*
X16722016Y-18718150D01*
X16722016Y-18718150D02*
X16750587Y-18718150D01*
X16750587Y-18718150D02*
X16769635Y-18727674D01*
X16769635Y-18727674D02*
X16779159Y-18737198D01*
X16779159Y-18737198D02*
X16788683Y-18756246D01*
X16788683Y-18756246D02*
X16788683Y-18813389D01*
X16788683Y-18813389D02*
X16779159Y-18832436D01*
X16779159Y-18832436D02*
X16769635Y-18841960D01*
X16769635Y-18841960D02*
X16750587Y-18851484D01*
X16750587Y-18851484D02*
X16722016Y-18851484D01*
X16902968Y-18851484D02*
X16883921Y-18841960D01*
X16883921Y-18841960D02*
X16874397Y-18822912D01*
X16874397Y-18822912D02*
X16874397Y-18651484D01*
X17055349Y-18841960D02*
X17036302Y-18851484D01*
X17036302Y-18851484D02*
X16998206Y-18851484D01*
X16998206Y-18851484D02*
X16979159Y-18841960D01*
X16979159Y-18841960D02*
X16969635Y-18822912D01*
X16969635Y-18822912D02*
X16969635Y-18746722D01*
X16969635Y-18746722D02*
X16979159Y-18727674D01*
X16979159Y-18727674D02*
X16998206Y-18718150D01*
X16998206Y-18718150D02*
X17036302Y-18718150D01*
X17036302Y-18718150D02*
X17055349Y-18727674D01*
X17055349Y-18727674D02*
X17064873Y-18746722D01*
X17064873Y-18746722D02*
X17064873Y-18765770D01*
X17064873Y-18765770D02*
X16969635Y-18784817D01*
X17141064Y-18841960D02*
X17160111Y-18851484D01*
X17160111Y-18851484D02*
X17198206Y-18851484D01*
X17198206Y-18851484D02*
X17217254Y-18841960D01*
X17217254Y-18841960D02*
X17226778Y-18822912D01*
X17226778Y-18822912D02*
X17226778Y-18813389D01*
X17226778Y-18813389D02*
X17217254Y-18794341D01*
X17217254Y-18794341D02*
X17198206Y-18784817D01*
X17198206Y-18784817D02*
X17169635Y-18784817D01*
X17169635Y-18784817D02*
X17150587Y-18775293D01*
X17150587Y-18775293D02*
X17141064Y-18756246D01*
X17141064Y-18756246D02*
X17141064Y-18746722D01*
X17141064Y-18746722D02*
X17150587Y-18727674D01*
X17150587Y-18727674D02*
X17169635Y-18718150D01*
X17169635Y-18718150D02*
X17198206Y-18718150D01*
X17198206Y-18718150D02*
X17217254Y-18727674D01*
X17464873Y-18775293D02*
X17617254Y-18775293D01*
X17541064Y-18851484D02*
X17541064Y-18699103D01*
X17845826Y-18651484D02*
X17969635Y-18651484D01*
X17969635Y-18651484D02*
X17902968Y-18727674D01*
X17902968Y-18727674D02*
X17931540Y-18727674D01*
X17931540Y-18727674D02*
X17950587Y-18737198D01*
X17950587Y-18737198D02*
X17960111Y-18746722D01*
X17960111Y-18746722D02*
X17969635Y-18765770D01*
X17969635Y-18765770D02*
X17969635Y-18813389D01*
X17969635Y-18813389D02*
X17960111Y-18832436D01*
X17960111Y-18832436D02*
X17950587Y-18841960D01*
X17950587Y-18841960D02*
X17931540Y-18851484D01*
X17931540Y-18851484D02*
X17874397Y-18851484D01*
X17874397Y-18851484D02*
X17855349Y-18841960D01*
X17855349Y-18841960D02*
X17845826Y-18832436D01*
X18198207Y-18841960D02*
X18217254Y-18851484D01*
X18217254Y-18851484D02*
X18255349Y-18851484D01*
X18255349Y-18851484D02*
X18274397Y-18841960D01*
X18274397Y-18841960D02*
X18283921Y-18822912D01*
X18283921Y-18822912D02*
X18283921Y-18813389D01*
X18283921Y-18813389D02*
X18274397Y-18794341D01*
X18274397Y-18794341D02*
X18255349Y-18784817D01*
X18255349Y-18784817D02*
X18226778Y-18784817D01*
X18226778Y-18784817D02*
X18207730Y-18775293D01*
X18207730Y-18775293D02*
X18198207Y-18756246D01*
X18198207Y-18756246D02*
X18198207Y-18746722D01*
X18198207Y-18746722D02*
X18207730Y-18727674D01*
X18207730Y-18727674D02*
X18226778Y-18718150D01*
X18226778Y-18718150D02*
X18255349Y-18718150D01*
X18255349Y-18718150D02*
X18274397Y-18727674D01*
X18398207Y-18851484D02*
X18379159Y-18841960D01*
X18379159Y-18841960D02*
X18369635Y-18822912D01*
X18369635Y-18822912D02*
X18369635Y-18651484D01*
X18502968Y-18851484D02*
X18483921Y-18841960D01*
X18483921Y-18841960D02*
X18474397Y-18832436D01*
X18474397Y-18832436D02*
X18464873Y-18813389D01*
X18464873Y-18813389D02*
X18464873Y-18756246D01*
X18464873Y-18756246D02*
X18474397Y-18737198D01*
X18474397Y-18737198D02*
X18483921Y-18727674D01*
X18483921Y-18727674D02*
X18502968Y-18718150D01*
X18502968Y-18718150D02*
X18531540Y-18718150D01*
X18531540Y-18718150D02*
X18550588Y-18727674D01*
X18550588Y-18727674D02*
X18560111Y-18737198D01*
X18560111Y-18737198D02*
X18569635Y-18756246D01*
X18569635Y-18756246D02*
X18569635Y-18813389D01*
X18569635Y-18813389D02*
X18560111Y-18832436D01*
X18560111Y-18832436D02*
X18550588Y-18841960D01*
X18550588Y-18841960D02*
X18531540Y-18851484D01*
X18531540Y-18851484D02*
X18502968Y-18851484D01*
X18626778Y-18718150D02*
X18702968Y-18718150D01*
X18655349Y-18651484D02*
X18655349Y-18822912D01*
X18655349Y-18822912D02*
X18664873Y-18841960D01*
X18664873Y-18841960D02*
X18683921Y-18851484D01*
X18683921Y-18851484D02*
X18702968Y-18851484D01*
X18760111Y-18841960D02*
X18779159Y-18851484D01*
X18779159Y-18851484D02*
X18817254Y-18851484D01*
X18817254Y-18851484D02*
X18836302Y-18841960D01*
X18836302Y-18841960D02*
X18845826Y-18822912D01*
X18845826Y-18822912D02*
X18845826Y-18813389D01*
X18845826Y-18813389D02*
X18836302Y-18794341D01*
X18836302Y-18794341D02*
X18817254Y-18784817D01*
X18817254Y-18784817D02*
X18788683Y-18784817D01*
X18788683Y-18784817D02*
X18769635Y-18775293D01*
X18769635Y-18775293D02*
X18760111Y-18756246D01*
X18760111Y-18756246D02*
X18760111Y-18746722D01*
X18760111Y-18746722D02*
X18769635Y-18727674D01*
X18769635Y-18727674D02*
X18788683Y-18718150D01*
X18788683Y-18718150D02*
X18817254Y-18718150D01*
X18817254Y-18718150D02*
X18836302Y-18727674D01*
X18912492Y-18927674D02*
X18922016Y-18918150D01*
X18922016Y-18918150D02*
X18941064Y-18889579D01*
X18941064Y-18889579D02*
X18950588Y-18870531D01*
X18950588Y-18870531D02*
X18960111Y-18841960D01*
X18960111Y-18841960D02*
X18969635Y-18794341D01*
X18969635Y-18794341D02*
X18969635Y-18756246D01*
X18969635Y-18756246D02*
X18960111Y-18708627D01*
X18960111Y-18708627D02*
X18950588Y-18680055D01*
X18950588Y-18680055D02*
X18941064Y-18661008D01*
X18941064Y-18661008D02*
X18922016Y-18632436D01*
X18922016Y-18632436D02*
X18912492Y-18622912D01*
D13*
X12518381Y-19024000D02*
G75*
G02*
X12438381Y-19024000I-40000J0D01*
G01*
X12438381Y-19024000D02*
G75*
G02*
X12518381Y-19024000I40000J0D01*
G01*
D11*
X12817253Y-18915484D02*
X12836301Y-18915484D01*
X12836301Y-18915484D02*
X12855349Y-18925008D01*
X12855349Y-18925008D02*
X12864873Y-18934531D01*
X12864873Y-18934531D02*
X12874396Y-18953579D01*
X12874396Y-18953579D02*
X12883920Y-18991674D01*
X12883920Y-18991674D02*
X12883920Y-19039293D01*
X12883920Y-19039293D02*
X12874396Y-19077389D01*
X12874396Y-19077389D02*
X12864873Y-19096436D01*
X12864873Y-19096436D02*
X12855349Y-19105960D01*
X12855349Y-19105960D02*
X12836301Y-19115484D01*
X12836301Y-19115484D02*
X12817253Y-19115484D01*
X12817253Y-19115484D02*
X12798206Y-19105960D01*
X12798206Y-19105960D02*
X12788682Y-19096436D01*
X12788682Y-19096436D02*
X12779158Y-19077389D01*
X12779158Y-19077389D02*
X12769634Y-19039293D01*
X12769634Y-19039293D02*
X12769634Y-18991674D01*
X12769634Y-18991674D02*
X12779158Y-18953579D01*
X12779158Y-18953579D02*
X12788682Y-18934531D01*
X12788682Y-18934531D02*
X12798206Y-18925008D01*
X12798206Y-18925008D02*
X12817253Y-18915484D01*
X12969634Y-19096436D02*
X12979158Y-19105960D01*
X12979158Y-19105960D02*
X12969634Y-19115484D01*
X12969634Y-19115484D02*
X12960111Y-19105960D01*
X12960111Y-19105960D02*
X12969634Y-19096436D01*
X12969634Y-19096436D02*
X12969634Y-19115484D01*
X13093444Y-19001198D02*
X13074396Y-18991674D01*
X13074396Y-18991674D02*
X13064873Y-18982150D01*
X13064873Y-18982150D02*
X13055349Y-18963103D01*
X13055349Y-18963103D02*
X13055349Y-18953579D01*
X13055349Y-18953579D02*
X13064873Y-18934531D01*
X13064873Y-18934531D02*
X13074396Y-18925008D01*
X13074396Y-18925008D02*
X13093444Y-18915484D01*
X13093444Y-18915484D02*
X13131539Y-18915484D01*
X13131539Y-18915484D02*
X13150587Y-18925008D01*
X13150587Y-18925008D02*
X13160111Y-18934531D01*
X13160111Y-18934531D02*
X13169634Y-18953579D01*
X13169634Y-18953579D02*
X13169634Y-18963103D01*
X13169634Y-18963103D02*
X13160111Y-18982150D01*
X13160111Y-18982150D02*
X13150587Y-18991674D01*
X13150587Y-18991674D02*
X13131539Y-19001198D01*
X13131539Y-19001198D02*
X13093444Y-19001198D01*
X13093444Y-19001198D02*
X13074396Y-19010722D01*
X13074396Y-19010722D02*
X13064873Y-19020246D01*
X13064873Y-19020246D02*
X13055349Y-19039293D01*
X13055349Y-19039293D02*
X13055349Y-19077389D01*
X13055349Y-19077389D02*
X13064873Y-19096436D01*
X13064873Y-19096436D02*
X13074396Y-19105960D01*
X13074396Y-19105960D02*
X13093444Y-19115484D01*
X13093444Y-19115484D02*
X13131539Y-19115484D01*
X13131539Y-19115484D02*
X13150587Y-19105960D01*
X13150587Y-19105960D02*
X13160111Y-19096436D01*
X13160111Y-19096436D02*
X13169634Y-19077389D01*
X13169634Y-19077389D02*
X13169634Y-19039293D01*
X13169634Y-19039293D02*
X13160111Y-19020246D01*
X13160111Y-19020246D02*
X13150587Y-19010722D01*
X13150587Y-19010722D02*
X13131539Y-19001198D01*
X13293444Y-18915484D02*
X13312492Y-18915484D01*
X13312492Y-18915484D02*
X13331539Y-18925008D01*
X13331539Y-18925008D02*
X13341063Y-18934531D01*
X13341063Y-18934531D02*
X13350587Y-18953579D01*
X13350587Y-18953579D02*
X13360111Y-18991674D01*
X13360111Y-18991674D02*
X13360111Y-19039293D01*
X13360111Y-19039293D02*
X13350587Y-19077389D01*
X13350587Y-19077389D02*
X13341063Y-19096436D01*
X13341063Y-19096436D02*
X13331539Y-19105960D01*
X13331539Y-19105960D02*
X13312492Y-19115484D01*
X13312492Y-19115484D02*
X13293444Y-19115484D01*
X13293444Y-19115484D02*
X13274396Y-19105960D01*
X13274396Y-19105960D02*
X13264873Y-19096436D01*
X13264873Y-19096436D02*
X13255349Y-19077389D01*
X13255349Y-19077389D02*
X13245825Y-19039293D01*
X13245825Y-19039293D02*
X13245825Y-18991674D01*
X13245825Y-18991674D02*
X13255349Y-18953579D01*
X13255349Y-18953579D02*
X13264873Y-18934531D01*
X13264873Y-18934531D02*
X13274396Y-18925008D01*
X13274396Y-18925008D02*
X13293444Y-18915484D01*
X13483920Y-18915484D02*
X13502968Y-18915484D01*
X13502968Y-18915484D02*
X13522015Y-18925008D01*
X13522015Y-18925008D02*
X13531539Y-18934531D01*
X13531539Y-18934531D02*
X13541063Y-18953579D01*
X13541063Y-18953579D02*
X13550587Y-18991674D01*
X13550587Y-18991674D02*
X13550587Y-19039293D01*
X13550587Y-19039293D02*
X13541063Y-19077389D01*
X13541063Y-19077389D02*
X13531539Y-19096436D01*
X13531539Y-19096436D02*
X13522015Y-19105960D01*
X13522015Y-19105960D02*
X13502968Y-19115484D01*
X13502968Y-19115484D02*
X13483920Y-19115484D01*
X13483920Y-19115484D02*
X13464873Y-19105960D01*
X13464873Y-19105960D02*
X13455349Y-19096436D01*
X13455349Y-19096436D02*
X13445825Y-19077389D01*
X13445825Y-19077389D02*
X13436301Y-19039293D01*
X13436301Y-19039293D02*
X13436301Y-18991674D01*
X13436301Y-18991674D02*
X13445825Y-18953579D01*
X13445825Y-18953579D02*
X13455349Y-18934531D01*
X13455349Y-18934531D02*
X13464873Y-18925008D01*
X13464873Y-18925008D02*
X13483920Y-18915484D01*
X13636301Y-19115484D02*
X13636301Y-18982150D01*
X13636301Y-19001198D02*
X13645825Y-18991674D01*
X13645825Y-18991674D02*
X13664873Y-18982150D01*
X13664873Y-18982150D02*
X13693444Y-18982150D01*
X13693444Y-18982150D02*
X13712492Y-18991674D01*
X13712492Y-18991674D02*
X13722015Y-19010722D01*
X13722015Y-19010722D02*
X13722015Y-19115484D01*
X13722015Y-19010722D02*
X13731539Y-18991674D01*
X13731539Y-18991674D02*
X13750587Y-18982150D01*
X13750587Y-18982150D02*
X13779158Y-18982150D01*
X13779158Y-18982150D02*
X13798206Y-18991674D01*
X13798206Y-18991674D02*
X13807730Y-19010722D01*
X13807730Y-19010722D02*
X13807730Y-19115484D01*
X13902968Y-19115484D02*
X13902968Y-18982150D01*
X13902968Y-19001198D02*
X13912492Y-18991674D01*
X13912492Y-18991674D02*
X13931539Y-18982150D01*
X13931539Y-18982150D02*
X13960111Y-18982150D01*
X13960111Y-18982150D02*
X13979158Y-18991674D01*
X13979158Y-18991674D02*
X13988682Y-19010722D01*
X13988682Y-19010722D02*
X13988682Y-19115484D01*
X13988682Y-19010722D02*
X13998206Y-18991674D01*
X13998206Y-18991674D02*
X14017254Y-18982150D01*
X14017254Y-18982150D02*
X14045825Y-18982150D01*
X14045825Y-18982150D02*
X14064873Y-18991674D01*
X14064873Y-18991674D02*
X14074396Y-19010722D01*
X14074396Y-19010722D02*
X14074396Y-19115484D01*
X14464873Y-18905960D02*
X14293444Y-19163103D01*
X14722016Y-18915484D02*
X14741063Y-18915484D01*
X14741063Y-18915484D02*
X14760111Y-18925008D01*
X14760111Y-18925008D02*
X14769635Y-18934531D01*
X14769635Y-18934531D02*
X14779158Y-18953579D01*
X14779158Y-18953579D02*
X14788682Y-18991674D01*
X14788682Y-18991674D02*
X14788682Y-19039293D01*
X14788682Y-19039293D02*
X14779158Y-19077389D01*
X14779158Y-19077389D02*
X14769635Y-19096436D01*
X14769635Y-19096436D02*
X14760111Y-19105960D01*
X14760111Y-19105960D02*
X14741063Y-19115484D01*
X14741063Y-19115484D02*
X14722016Y-19115484D01*
X14722016Y-19115484D02*
X14702968Y-19105960D01*
X14702968Y-19105960D02*
X14693444Y-19096436D01*
X14693444Y-19096436D02*
X14683920Y-19077389D01*
X14683920Y-19077389D02*
X14674397Y-19039293D01*
X14674397Y-19039293D02*
X14674397Y-18991674D01*
X14674397Y-18991674D02*
X14683920Y-18953579D01*
X14683920Y-18953579D02*
X14693444Y-18934531D01*
X14693444Y-18934531D02*
X14702968Y-18925008D01*
X14702968Y-18925008D02*
X14722016Y-18915484D01*
X14874397Y-19096436D02*
X14883920Y-19105960D01*
X14883920Y-19105960D02*
X14874397Y-19115484D01*
X14874397Y-19115484D02*
X14864873Y-19105960D01*
X14864873Y-19105960D02*
X14874397Y-19096436D01*
X14874397Y-19096436D02*
X14874397Y-19115484D01*
X15007730Y-18915484D02*
X15026778Y-18915484D01*
X15026778Y-18915484D02*
X15045825Y-18925008D01*
X15045825Y-18925008D02*
X15055349Y-18934531D01*
X15055349Y-18934531D02*
X15064873Y-18953579D01*
X15064873Y-18953579D02*
X15074397Y-18991674D01*
X15074397Y-18991674D02*
X15074397Y-19039293D01*
X15074397Y-19039293D02*
X15064873Y-19077389D01*
X15064873Y-19077389D02*
X15055349Y-19096436D01*
X15055349Y-19096436D02*
X15045825Y-19105960D01*
X15045825Y-19105960D02*
X15026778Y-19115484D01*
X15026778Y-19115484D02*
X15007730Y-19115484D01*
X15007730Y-19115484D02*
X14988682Y-19105960D01*
X14988682Y-19105960D02*
X14979158Y-19096436D01*
X14979158Y-19096436D02*
X14969635Y-19077389D01*
X14969635Y-19077389D02*
X14960111Y-19039293D01*
X14960111Y-19039293D02*
X14960111Y-18991674D01*
X14960111Y-18991674D02*
X14969635Y-18953579D01*
X14969635Y-18953579D02*
X14979158Y-18934531D01*
X14979158Y-18934531D02*
X14988682Y-18925008D01*
X14988682Y-18925008D02*
X15007730Y-18915484D01*
X15141063Y-18915484D02*
X15264873Y-18915484D01*
X15264873Y-18915484D02*
X15198206Y-18991674D01*
X15198206Y-18991674D02*
X15226778Y-18991674D01*
X15226778Y-18991674D02*
X15245825Y-19001198D01*
X15245825Y-19001198D02*
X15255349Y-19010722D01*
X15255349Y-19010722D02*
X15264873Y-19029770D01*
X15264873Y-19029770D02*
X15264873Y-19077389D01*
X15264873Y-19077389D02*
X15255349Y-19096436D01*
X15255349Y-19096436D02*
X15245825Y-19105960D01*
X15245825Y-19105960D02*
X15226778Y-19115484D01*
X15226778Y-19115484D02*
X15169635Y-19115484D01*
X15169635Y-19115484D02*
X15150587Y-19105960D01*
X15150587Y-19105960D02*
X15141063Y-19096436D01*
X15455349Y-19115484D02*
X15341063Y-19115484D01*
X15398206Y-19115484D02*
X15398206Y-18915484D01*
X15398206Y-18915484D02*
X15379158Y-18944055D01*
X15379158Y-18944055D02*
X15360111Y-18963103D01*
X15360111Y-18963103D02*
X15341063Y-18972627D01*
X15636301Y-18915484D02*
X15541063Y-18915484D01*
X15541063Y-18915484D02*
X15531539Y-19010722D01*
X15531539Y-19010722D02*
X15541063Y-19001198D01*
X15541063Y-19001198D02*
X15560111Y-18991674D01*
X15560111Y-18991674D02*
X15607730Y-18991674D01*
X15607730Y-18991674D02*
X15626778Y-19001198D01*
X15626778Y-19001198D02*
X15636301Y-19010722D01*
X15636301Y-19010722D02*
X15645825Y-19029770D01*
X15645825Y-19029770D02*
X15645825Y-19077389D01*
X15645825Y-19077389D02*
X15636301Y-19096436D01*
X15636301Y-19096436D02*
X15626778Y-19105960D01*
X15626778Y-19105960D02*
X15607730Y-19115484D01*
X15607730Y-19115484D02*
X15560111Y-19115484D01*
X15560111Y-19115484D02*
X15541063Y-19105960D01*
X15541063Y-19105960D02*
X15531539Y-19096436D01*
X15722016Y-18915484D02*
X15722016Y-18953579D01*
X15798206Y-18915484D02*
X15798206Y-18953579D01*
X16093444Y-19191674D02*
X16083920Y-19182150D01*
X16083920Y-19182150D02*
X16064873Y-19153579D01*
X16064873Y-19153579D02*
X16055349Y-19134531D01*
X16055349Y-19134531D02*
X16045825Y-19105960D01*
X16045825Y-19105960D02*
X16036301Y-19058341D01*
X16036301Y-19058341D02*
X16036301Y-19020246D01*
X16036301Y-19020246D02*
X16045825Y-18972627D01*
X16045825Y-18972627D02*
X16055349Y-18944055D01*
X16055349Y-18944055D02*
X16064873Y-18925008D01*
X16064873Y-18925008D02*
X16083920Y-18896436D01*
X16083920Y-18896436D02*
X16093444Y-18886912D01*
X16160111Y-18934531D02*
X16169635Y-18925008D01*
X16169635Y-18925008D02*
X16188682Y-18915484D01*
X16188682Y-18915484D02*
X16236301Y-18915484D01*
X16236301Y-18915484D02*
X16255349Y-18925008D01*
X16255349Y-18925008D02*
X16264873Y-18934531D01*
X16264873Y-18934531D02*
X16274397Y-18953579D01*
X16274397Y-18953579D02*
X16274397Y-18972627D01*
X16274397Y-18972627D02*
X16264873Y-19001198D01*
X16264873Y-19001198D02*
X16150587Y-19115484D01*
X16150587Y-19115484D02*
X16274397Y-19115484D01*
X16388682Y-19001198D02*
X16369635Y-18991674D01*
X16369635Y-18991674D02*
X16360111Y-18982150D01*
X16360111Y-18982150D02*
X16350587Y-18963103D01*
X16350587Y-18963103D02*
X16350587Y-18953579D01*
X16350587Y-18953579D02*
X16360111Y-18934531D01*
X16360111Y-18934531D02*
X16369635Y-18925008D01*
X16369635Y-18925008D02*
X16388682Y-18915484D01*
X16388682Y-18915484D02*
X16426778Y-18915484D01*
X16426778Y-18915484D02*
X16445825Y-18925008D01*
X16445825Y-18925008D02*
X16455349Y-18934531D01*
X16455349Y-18934531D02*
X16464873Y-18953579D01*
X16464873Y-18953579D02*
X16464873Y-18963103D01*
X16464873Y-18963103D02*
X16455349Y-18982150D01*
X16455349Y-18982150D02*
X16445825Y-18991674D01*
X16445825Y-18991674D02*
X16426778Y-19001198D01*
X16426778Y-19001198D02*
X16388682Y-19001198D01*
X16388682Y-19001198D02*
X16369635Y-19010722D01*
X16369635Y-19010722D02*
X16360111Y-19020246D01*
X16360111Y-19020246D02*
X16350587Y-19039293D01*
X16350587Y-19039293D02*
X16350587Y-19077389D01*
X16350587Y-19077389D02*
X16360111Y-19096436D01*
X16360111Y-19096436D02*
X16369635Y-19105960D01*
X16369635Y-19105960D02*
X16388682Y-19115484D01*
X16388682Y-19115484D02*
X16426778Y-19115484D01*
X16426778Y-19115484D02*
X16445825Y-19105960D01*
X16445825Y-19105960D02*
X16455349Y-19096436D01*
X16455349Y-19096436D02*
X16464873Y-19077389D01*
X16464873Y-19077389D02*
X16464873Y-19039293D01*
X16464873Y-19039293D02*
X16455349Y-19020246D01*
X16455349Y-19020246D02*
X16445825Y-19010722D01*
X16445825Y-19010722D02*
X16426778Y-19001198D01*
X16702968Y-19115484D02*
X16702968Y-18915484D01*
X16788683Y-19115484D02*
X16788683Y-19010722D01*
X16788683Y-19010722D02*
X16779159Y-18991674D01*
X16779159Y-18991674D02*
X16760111Y-18982150D01*
X16760111Y-18982150D02*
X16731540Y-18982150D01*
X16731540Y-18982150D02*
X16712492Y-18991674D01*
X16712492Y-18991674D02*
X16702968Y-19001198D01*
X16912492Y-19115484D02*
X16893444Y-19105960D01*
X16893444Y-19105960D02*
X16883921Y-19096436D01*
X16883921Y-19096436D02*
X16874397Y-19077389D01*
X16874397Y-19077389D02*
X16874397Y-19020246D01*
X16874397Y-19020246D02*
X16883921Y-19001198D01*
X16883921Y-19001198D02*
X16893444Y-18991674D01*
X16893444Y-18991674D02*
X16912492Y-18982150D01*
X16912492Y-18982150D02*
X16941064Y-18982150D01*
X16941064Y-18982150D02*
X16960111Y-18991674D01*
X16960111Y-18991674D02*
X16969635Y-19001198D01*
X16969635Y-19001198D02*
X16979159Y-19020246D01*
X16979159Y-19020246D02*
X16979159Y-19077389D01*
X16979159Y-19077389D02*
X16969635Y-19096436D01*
X16969635Y-19096436D02*
X16960111Y-19105960D01*
X16960111Y-19105960D02*
X16941064Y-19115484D01*
X16941064Y-19115484D02*
X16912492Y-19115484D01*
X17093444Y-19115484D02*
X17074397Y-19105960D01*
X17074397Y-19105960D02*
X17064873Y-19086912D01*
X17064873Y-19086912D02*
X17064873Y-18915484D01*
X17245825Y-19105960D02*
X17226778Y-19115484D01*
X17226778Y-19115484D02*
X17188683Y-19115484D01*
X17188683Y-19115484D02*
X17169635Y-19105960D01*
X17169635Y-19105960D02*
X17160111Y-19086912D01*
X17160111Y-19086912D02*
X17160111Y-19010722D01*
X17160111Y-19010722D02*
X17169635Y-18991674D01*
X17169635Y-18991674D02*
X17188683Y-18982150D01*
X17188683Y-18982150D02*
X17226778Y-18982150D01*
X17226778Y-18982150D02*
X17245825Y-18991674D01*
X17245825Y-18991674D02*
X17255349Y-19010722D01*
X17255349Y-19010722D02*
X17255349Y-19029770D01*
X17255349Y-19029770D02*
X17160111Y-19048817D01*
X17331540Y-19105960D02*
X17350587Y-19115484D01*
X17350587Y-19115484D02*
X17388683Y-19115484D01*
X17388683Y-19115484D02*
X17407730Y-19105960D01*
X17407730Y-19105960D02*
X17417254Y-19086912D01*
X17417254Y-19086912D02*
X17417254Y-19077389D01*
X17417254Y-19077389D02*
X17407730Y-19058341D01*
X17407730Y-19058341D02*
X17388683Y-19048817D01*
X17388683Y-19048817D02*
X17360111Y-19048817D01*
X17360111Y-19048817D02*
X17341064Y-19039293D01*
X17341064Y-19039293D02*
X17331540Y-19020246D01*
X17331540Y-19020246D02*
X17331540Y-19010722D01*
X17331540Y-19010722D02*
X17341064Y-18991674D01*
X17341064Y-18991674D02*
X17360111Y-18982150D01*
X17360111Y-18982150D02*
X17388683Y-18982150D01*
X17388683Y-18982150D02*
X17407730Y-18991674D01*
X17655349Y-19039293D02*
X17807730Y-19039293D01*
X17731540Y-19115484D02*
X17731540Y-18963103D01*
X18045826Y-18934531D02*
X18055349Y-18925008D01*
X18055349Y-18925008D02*
X18074397Y-18915484D01*
X18074397Y-18915484D02*
X18122016Y-18915484D01*
X18122016Y-18915484D02*
X18141064Y-18925008D01*
X18141064Y-18925008D02*
X18150587Y-18934531D01*
X18150587Y-18934531D02*
X18160111Y-18953579D01*
X18160111Y-18953579D02*
X18160111Y-18972627D01*
X18160111Y-18972627D02*
X18150587Y-19001198D01*
X18150587Y-19001198D02*
X18036302Y-19115484D01*
X18036302Y-19115484D02*
X18160111Y-19115484D01*
X18388683Y-19105960D02*
X18407730Y-19115484D01*
X18407730Y-19115484D02*
X18445826Y-19115484D01*
X18445826Y-19115484D02*
X18464873Y-19105960D01*
X18464873Y-19105960D02*
X18474397Y-19086912D01*
X18474397Y-19086912D02*
X18474397Y-19077389D01*
X18474397Y-19077389D02*
X18464873Y-19058341D01*
X18464873Y-19058341D02*
X18445826Y-19048817D01*
X18445826Y-19048817D02*
X18417254Y-19048817D01*
X18417254Y-19048817D02*
X18398207Y-19039293D01*
X18398207Y-19039293D02*
X18388683Y-19020246D01*
X18388683Y-19020246D02*
X18388683Y-19010722D01*
X18388683Y-19010722D02*
X18398207Y-18991674D01*
X18398207Y-18991674D02*
X18417254Y-18982150D01*
X18417254Y-18982150D02*
X18445826Y-18982150D01*
X18445826Y-18982150D02*
X18464873Y-18991674D01*
X18588683Y-19115484D02*
X18569635Y-19105960D01*
X18569635Y-19105960D02*
X18560111Y-19086912D01*
X18560111Y-19086912D02*
X18560111Y-18915484D01*
X18693445Y-19115484D02*
X18674397Y-19105960D01*
X18674397Y-19105960D02*
X18664873Y-19096436D01*
X18664873Y-19096436D02*
X18655349Y-19077389D01*
X18655349Y-19077389D02*
X18655349Y-19020246D01*
X18655349Y-19020246D02*
X18664873Y-19001198D01*
X18664873Y-19001198D02*
X18674397Y-18991674D01*
X18674397Y-18991674D02*
X18693445Y-18982150D01*
X18693445Y-18982150D02*
X18722016Y-18982150D01*
X18722016Y-18982150D02*
X18741064Y-18991674D01*
X18741064Y-18991674D02*
X18750588Y-19001198D01*
X18750588Y-19001198D02*
X18760111Y-19020246D01*
X18760111Y-19020246D02*
X18760111Y-19077389D01*
X18760111Y-19077389D02*
X18750588Y-19096436D01*
X18750588Y-19096436D02*
X18741064Y-19105960D01*
X18741064Y-19105960D02*
X18722016Y-19115484D01*
X18722016Y-19115484D02*
X18693445Y-19115484D01*
X18817254Y-18982150D02*
X18893445Y-18982150D01*
X18845826Y-18915484D02*
X18845826Y-19086912D01*
X18845826Y-19086912D02*
X18855349Y-19105960D01*
X18855349Y-19105960D02*
X18874397Y-19115484D01*
X18874397Y-19115484D02*
X18893445Y-19115484D01*
X18950588Y-19105960D02*
X18969635Y-19115484D01*
X18969635Y-19115484D02*
X19007730Y-19115484D01*
X19007730Y-19115484D02*
X19026778Y-19105960D01*
X19026778Y-19105960D02*
X19036302Y-19086912D01*
X19036302Y-19086912D02*
X19036302Y-19077389D01*
X19036302Y-19077389D02*
X19026778Y-19058341D01*
X19026778Y-19058341D02*
X19007730Y-19048817D01*
X19007730Y-19048817D02*
X18979159Y-19048817D01*
X18979159Y-19048817D02*
X18960111Y-19039293D01*
X18960111Y-19039293D02*
X18950588Y-19020246D01*
X18950588Y-19020246D02*
X18950588Y-19010722D01*
X18950588Y-19010722D02*
X18960111Y-18991674D01*
X18960111Y-18991674D02*
X18979159Y-18982150D01*
X18979159Y-18982150D02*
X19007730Y-18982150D01*
X19007730Y-18982150D02*
X19026778Y-18991674D01*
X19102969Y-19191674D02*
X19112492Y-19182150D01*
X19112492Y-19182150D02*
X19131540Y-19153579D01*
X19131540Y-19153579D02*
X19141064Y-19134531D01*
X19141064Y-19134531D02*
X19150588Y-19105960D01*
X19150588Y-19105960D02*
X19160111Y-19058341D01*
X19160111Y-19058341D02*
X19160111Y-19020246D01*
X19160111Y-19020246D02*
X19150588Y-18972627D01*
X19150588Y-18972627D02*
X19141064Y-18944055D01*
X19141064Y-18944055D02*
X19131540Y-18925008D01*
X19131540Y-18925008D02*
X19112492Y-18896436D01*
X19112492Y-18896436D02*
X19102969Y-18886912D01*
D13*
X12473381Y-19243000D02*
X12473381Y-19333000D01*
X12428381Y-19288000D02*
X12518381Y-19288000D01*
D11*
X12817253Y-19179484D02*
X12836301Y-19179484D01*
X12836301Y-19179484D02*
X12855349Y-19189008D01*
X12855349Y-19189008D02*
X12864873Y-19198531D01*
X12864873Y-19198531D02*
X12874396Y-19217579D01*
X12874396Y-19217579D02*
X12883920Y-19255674D01*
X12883920Y-19255674D02*
X12883920Y-19303293D01*
X12883920Y-19303293D02*
X12874396Y-19341389D01*
X12874396Y-19341389D02*
X12864873Y-19360436D01*
X12864873Y-19360436D02*
X12855349Y-19369960D01*
X12855349Y-19369960D02*
X12836301Y-19379484D01*
X12836301Y-19379484D02*
X12817253Y-19379484D01*
X12817253Y-19379484D02*
X12798206Y-19369960D01*
X12798206Y-19369960D02*
X12788682Y-19360436D01*
X12788682Y-19360436D02*
X12779158Y-19341389D01*
X12779158Y-19341389D02*
X12769634Y-19303293D01*
X12769634Y-19303293D02*
X12769634Y-19255674D01*
X12769634Y-19255674D02*
X12779158Y-19217579D01*
X12779158Y-19217579D02*
X12788682Y-19198531D01*
X12788682Y-19198531D02*
X12798206Y-19189008D01*
X12798206Y-19189008D02*
X12817253Y-19179484D01*
X12969634Y-19360436D02*
X12979158Y-19369960D01*
X12979158Y-19369960D02*
X12969634Y-19379484D01*
X12969634Y-19379484D02*
X12960111Y-19369960D01*
X12960111Y-19369960D02*
X12969634Y-19360436D01*
X12969634Y-19360436D02*
X12969634Y-19379484D01*
X13074396Y-19379484D02*
X13112492Y-19379484D01*
X13112492Y-19379484D02*
X13131539Y-19369960D01*
X13131539Y-19369960D02*
X13141063Y-19360436D01*
X13141063Y-19360436D02*
X13160111Y-19331865D01*
X13160111Y-19331865D02*
X13169634Y-19293770D01*
X13169634Y-19293770D02*
X13169634Y-19217579D01*
X13169634Y-19217579D02*
X13160111Y-19198531D01*
X13160111Y-19198531D02*
X13150587Y-19189008D01*
X13150587Y-19189008D02*
X13131539Y-19179484D01*
X13131539Y-19179484D02*
X13093444Y-19179484D01*
X13093444Y-19179484D02*
X13074396Y-19189008D01*
X13074396Y-19189008D02*
X13064873Y-19198531D01*
X13064873Y-19198531D02*
X13055349Y-19217579D01*
X13055349Y-19217579D02*
X13055349Y-19265198D01*
X13055349Y-19265198D02*
X13064873Y-19284246D01*
X13064873Y-19284246D02*
X13074396Y-19293770D01*
X13074396Y-19293770D02*
X13093444Y-19303293D01*
X13093444Y-19303293D02*
X13131539Y-19303293D01*
X13131539Y-19303293D02*
X13150587Y-19293770D01*
X13150587Y-19293770D02*
X13160111Y-19284246D01*
X13160111Y-19284246D02*
X13169634Y-19265198D01*
X13293444Y-19179484D02*
X13312492Y-19179484D01*
X13312492Y-19179484D02*
X13331539Y-19189008D01*
X13331539Y-19189008D02*
X13341063Y-19198531D01*
X13341063Y-19198531D02*
X13350587Y-19217579D01*
X13350587Y-19217579D02*
X13360111Y-19255674D01*
X13360111Y-19255674D02*
X13360111Y-19303293D01*
X13360111Y-19303293D02*
X13350587Y-19341389D01*
X13350587Y-19341389D02*
X13341063Y-19360436D01*
X13341063Y-19360436D02*
X13331539Y-19369960D01*
X13331539Y-19369960D02*
X13312492Y-19379484D01*
X13312492Y-19379484D02*
X13293444Y-19379484D01*
X13293444Y-19379484D02*
X13274396Y-19369960D01*
X13274396Y-19369960D02*
X13264873Y-19360436D01*
X13264873Y-19360436D02*
X13255349Y-19341389D01*
X13255349Y-19341389D02*
X13245825Y-19303293D01*
X13245825Y-19303293D02*
X13245825Y-19255674D01*
X13245825Y-19255674D02*
X13255349Y-19217579D01*
X13255349Y-19217579D02*
X13264873Y-19198531D01*
X13264873Y-19198531D02*
X13274396Y-19189008D01*
X13274396Y-19189008D02*
X13293444Y-19179484D01*
X13483920Y-19179484D02*
X13502968Y-19179484D01*
X13502968Y-19179484D02*
X13522015Y-19189008D01*
X13522015Y-19189008D02*
X13531539Y-19198531D01*
X13531539Y-19198531D02*
X13541063Y-19217579D01*
X13541063Y-19217579D02*
X13550587Y-19255674D01*
X13550587Y-19255674D02*
X13550587Y-19303293D01*
X13550587Y-19303293D02*
X13541063Y-19341389D01*
X13541063Y-19341389D02*
X13531539Y-19360436D01*
X13531539Y-19360436D02*
X13522015Y-19369960D01*
X13522015Y-19369960D02*
X13502968Y-19379484D01*
X13502968Y-19379484D02*
X13483920Y-19379484D01*
X13483920Y-19379484D02*
X13464873Y-19369960D01*
X13464873Y-19369960D02*
X13455349Y-19360436D01*
X13455349Y-19360436D02*
X13445825Y-19341389D01*
X13445825Y-19341389D02*
X13436301Y-19303293D01*
X13436301Y-19303293D02*
X13436301Y-19255674D01*
X13436301Y-19255674D02*
X13445825Y-19217579D01*
X13445825Y-19217579D02*
X13455349Y-19198531D01*
X13455349Y-19198531D02*
X13464873Y-19189008D01*
X13464873Y-19189008D02*
X13483920Y-19179484D01*
X13636301Y-19379484D02*
X13636301Y-19246150D01*
X13636301Y-19265198D02*
X13645825Y-19255674D01*
X13645825Y-19255674D02*
X13664873Y-19246150D01*
X13664873Y-19246150D02*
X13693444Y-19246150D01*
X13693444Y-19246150D02*
X13712492Y-19255674D01*
X13712492Y-19255674D02*
X13722015Y-19274722D01*
X13722015Y-19274722D02*
X13722015Y-19379484D01*
X13722015Y-19274722D02*
X13731539Y-19255674D01*
X13731539Y-19255674D02*
X13750587Y-19246150D01*
X13750587Y-19246150D02*
X13779158Y-19246150D01*
X13779158Y-19246150D02*
X13798206Y-19255674D01*
X13798206Y-19255674D02*
X13807730Y-19274722D01*
X13807730Y-19274722D02*
X13807730Y-19379484D01*
X13902968Y-19379484D02*
X13902968Y-19246150D01*
X13902968Y-19265198D02*
X13912492Y-19255674D01*
X13912492Y-19255674D02*
X13931539Y-19246150D01*
X13931539Y-19246150D02*
X13960111Y-19246150D01*
X13960111Y-19246150D02*
X13979158Y-19255674D01*
X13979158Y-19255674D02*
X13988682Y-19274722D01*
X13988682Y-19274722D02*
X13988682Y-19379484D01*
X13988682Y-19274722D02*
X13998206Y-19255674D01*
X13998206Y-19255674D02*
X14017254Y-19246150D01*
X14017254Y-19246150D02*
X14045825Y-19246150D01*
X14045825Y-19246150D02*
X14064873Y-19255674D01*
X14064873Y-19255674D02*
X14074396Y-19274722D01*
X14074396Y-19274722D02*
X14074396Y-19379484D01*
X14464873Y-19169960D02*
X14293444Y-19427103D01*
X14722016Y-19179484D02*
X14741063Y-19179484D01*
X14741063Y-19179484D02*
X14760111Y-19189008D01*
X14760111Y-19189008D02*
X14769635Y-19198531D01*
X14769635Y-19198531D02*
X14779158Y-19217579D01*
X14779158Y-19217579D02*
X14788682Y-19255674D01*
X14788682Y-19255674D02*
X14788682Y-19303293D01*
X14788682Y-19303293D02*
X14779158Y-19341389D01*
X14779158Y-19341389D02*
X14769635Y-19360436D01*
X14769635Y-19360436D02*
X14760111Y-19369960D01*
X14760111Y-19369960D02*
X14741063Y-19379484D01*
X14741063Y-19379484D02*
X14722016Y-19379484D01*
X14722016Y-19379484D02*
X14702968Y-19369960D01*
X14702968Y-19369960D02*
X14693444Y-19360436D01*
X14693444Y-19360436D02*
X14683920Y-19341389D01*
X14683920Y-19341389D02*
X14674397Y-19303293D01*
X14674397Y-19303293D02*
X14674397Y-19255674D01*
X14674397Y-19255674D02*
X14683920Y-19217579D01*
X14683920Y-19217579D02*
X14693444Y-19198531D01*
X14693444Y-19198531D02*
X14702968Y-19189008D01*
X14702968Y-19189008D02*
X14722016Y-19179484D01*
X14874397Y-19360436D02*
X14883920Y-19369960D01*
X14883920Y-19369960D02*
X14874397Y-19379484D01*
X14874397Y-19379484D02*
X14864873Y-19369960D01*
X14864873Y-19369960D02*
X14874397Y-19360436D01*
X14874397Y-19360436D02*
X14874397Y-19379484D01*
X15007730Y-19179484D02*
X15026778Y-19179484D01*
X15026778Y-19179484D02*
X15045825Y-19189008D01*
X15045825Y-19189008D02*
X15055349Y-19198531D01*
X15055349Y-19198531D02*
X15064873Y-19217579D01*
X15064873Y-19217579D02*
X15074397Y-19255674D01*
X15074397Y-19255674D02*
X15074397Y-19303293D01*
X15074397Y-19303293D02*
X15064873Y-19341389D01*
X15064873Y-19341389D02*
X15055349Y-19360436D01*
X15055349Y-19360436D02*
X15045825Y-19369960D01*
X15045825Y-19369960D02*
X15026778Y-19379484D01*
X15026778Y-19379484D02*
X15007730Y-19379484D01*
X15007730Y-19379484D02*
X14988682Y-19369960D01*
X14988682Y-19369960D02*
X14979158Y-19360436D01*
X14979158Y-19360436D02*
X14969635Y-19341389D01*
X14969635Y-19341389D02*
X14960111Y-19303293D01*
X14960111Y-19303293D02*
X14960111Y-19255674D01*
X14960111Y-19255674D02*
X14969635Y-19217579D01*
X14969635Y-19217579D02*
X14979158Y-19198531D01*
X14979158Y-19198531D02*
X14988682Y-19189008D01*
X14988682Y-19189008D02*
X15007730Y-19179484D01*
X15141063Y-19179484D02*
X15264873Y-19179484D01*
X15264873Y-19179484D02*
X15198206Y-19255674D01*
X15198206Y-19255674D02*
X15226778Y-19255674D01*
X15226778Y-19255674D02*
X15245825Y-19265198D01*
X15245825Y-19265198D02*
X15255349Y-19274722D01*
X15255349Y-19274722D02*
X15264873Y-19293770D01*
X15264873Y-19293770D02*
X15264873Y-19341389D01*
X15264873Y-19341389D02*
X15255349Y-19360436D01*
X15255349Y-19360436D02*
X15245825Y-19369960D01*
X15245825Y-19369960D02*
X15226778Y-19379484D01*
X15226778Y-19379484D02*
X15169635Y-19379484D01*
X15169635Y-19379484D02*
X15150587Y-19369960D01*
X15150587Y-19369960D02*
X15141063Y-19360436D01*
X15445825Y-19179484D02*
X15350587Y-19179484D01*
X15350587Y-19179484D02*
X15341063Y-19274722D01*
X15341063Y-19274722D02*
X15350587Y-19265198D01*
X15350587Y-19265198D02*
X15369635Y-19255674D01*
X15369635Y-19255674D02*
X15417254Y-19255674D01*
X15417254Y-19255674D02*
X15436301Y-19265198D01*
X15436301Y-19265198D02*
X15445825Y-19274722D01*
X15445825Y-19274722D02*
X15455349Y-19293770D01*
X15455349Y-19293770D02*
X15455349Y-19341389D01*
X15455349Y-19341389D02*
X15445825Y-19360436D01*
X15445825Y-19360436D02*
X15436301Y-19369960D01*
X15436301Y-19369960D02*
X15417254Y-19379484D01*
X15417254Y-19379484D02*
X15369635Y-19379484D01*
X15369635Y-19379484D02*
X15350587Y-19369960D01*
X15350587Y-19369960D02*
X15341063Y-19360436D01*
X15626778Y-19246150D02*
X15626778Y-19379484D01*
X15579158Y-19169960D02*
X15531539Y-19312817D01*
X15531539Y-19312817D02*
X15655349Y-19312817D01*
X15722016Y-19179484D02*
X15722016Y-19217579D01*
X15798206Y-19179484D02*
X15798206Y-19217579D01*
X16093444Y-19455674D02*
X16083920Y-19446150D01*
X16083920Y-19446150D02*
X16064873Y-19417579D01*
X16064873Y-19417579D02*
X16055349Y-19398531D01*
X16055349Y-19398531D02*
X16045825Y-19369960D01*
X16045825Y-19369960D02*
X16036301Y-19322341D01*
X16036301Y-19322341D02*
X16036301Y-19284246D01*
X16036301Y-19284246D02*
X16045825Y-19236627D01*
X16045825Y-19236627D02*
X16055349Y-19208055D01*
X16055349Y-19208055D02*
X16064873Y-19189008D01*
X16064873Y-19189008D02*
X16083920Y-19160436D01*
X16083920Y-19160436D02*
X16093444Y-19150912D01*
X16150587Y-19179484D02*
X16274397Y-19179484D01*
X16274397Y-19179484D02*
X16207730Y-19255674D01*
X16207730Y-19255674D02*
X16236301Y-19255674D01*
X16236301Y-19255674D02*
X16255349Y-19265198D01*
X16255349Y-19265198D02*
X16264873Y-19274722D01*
X16264873Y-19274722D02*
X16274397Y-19293770D01*
X16274397Y-19293770D02*
X16274397Y-19341389D01*
X16274397Y-19341389D02*
X16264873Y-19360436D01*
X16264873Y-19360436D02*
X16255349Y-19369960D01*
X16255349Y-19369960D02*
X16236301Y-19379484D01*
X16236301Y-19379484D02*
X16179159Y-19379484D01*
X16179159Y-19379484D02*
X16160111Y-19369960D01*
X16160111Y-19369960D02*
X16150587Y-19360436D01*
X16512492Y-19379484D02*
X16512492Y-19179484D01*
X16598206Y-19379484D02*
X16598206Y-19274722D01*
X16598206Y-19274722D02*
X16588682Y-19255674D01*
X16588682Y-19255674D02*
X16569635Y-19246150D01*
X16569635Y-19246150D02*
X16541063Y-19246150D01*
X16541063Y-19246150D02*
X16522016Y-19255674D01*
X16522016Y-19255674D02*
X16512492Y-19265198D01*
X16722016Y-19379484D02*
X16702968Y-19369960D01*
X16702968Y-19369960D02*
X16693444Y-19360436D01*
X16693444Y-19360436D02*
X16683921Y-19341389D01*
X16683921Y-19341389D02*
X16683921Y-19284246D01*
X16683921Y-19284246D02*
X16693444Y-19265198D01*
X16693444Y-19265198D02*
X16702968Y-19255674D01*
X16702968Y-19255674D02*
X16722016Y-19246150D01*
X16722016Y-19246150D02*
X16750587Y-19246150D01*
X16750587Y-19246150D02*
X16769635Y-19255674D01*
X16769635Y-19255674D02*
X16779159Y-19265198D01*
X16779159Y-19265198D02*
X16788683Y-19284246D01*
X16788683Y-19284246D02*
X16788683Y-19341389D01*
X16788683Y-19341389D02*
X16779159Y-19360436D01*
X16779159Y-19360436D02*
X16769635Y-19369960D01*
X16769635Y-19369960D02*
X16750587Y-19379484D01*
X16750587Y-19379484D02*
X16722016Y-19379484D01*
X16902968Y-19379484D02*
X16883921Y-19369960D01*
X16883921Y-19369960D02*
X16874397Y-19350912D01*
X16874397Y-19350912D02*
X16874397Y-19179484D01*
X17055349Y-19369960D02*
X17036302Y-19379484D01*
X17036302Y-19379484D02*
X16998206Y-19379484D01*
X16998206Y-19379484D02*
X16979159Y-19369960D01*
X16979159Y-19369960D02*
X16969635Y-19350912D01*
X16969635Y-19350912D02*
X16969635Y-19274722D01*
X16969635Y-19274722D02*
X16979159Y-19255674D01*
X16979159Y-19255674D02*
X16998206Y-19246150D01*
X16998206Y-19246150D02*
X17036302Y-19246150D01*
X17036302Y-19246150D02*
X17055349Y-19255674D01*
X17055349Y-19255674D02*
X17064873Y-19274722D01*
X17064873Y-19274722D02*
X17064873Y-19293770D01*
X17064873Y-19293770D02*
X16969635Y-19312817D01*
X17141064Y-19369960D02*
X17160111Y-19379484D01*
X17160111Y-19379484D02*
X17198206Y-19379484D01*
X17198206Y-19379484D02*
X17217254Y-19369960D01*
X17217254Y-19369960D02*
X17226778Y-19350912D01*
X17226778Y-19350912D02*
X17226778Y-19341389D01*
X17226778Y-19341389D02*
X17217254Y-19322341D01*
X17217254Y-19322341D02*
X17198206Y-19312817D01*
X17198206Y-19312817D02*
X17169635Y-19312817D01*
X17169635Y-19312817D02*
X17150587Y-19303293D01*
X17150587Y-19303293D02*
X17141064Y-19284246D01*
X17141064Y-19284246D02*
X17141064Y-19274722D01*
X17141064Y-19274722D02*
X17150587Y-19255674D01*
X17150587Y-19255674D02*
X17169635Y-19246150D01*
X17169635Y-19246150D02*
X17198206Y-19246150D01*
X17198206Y-19246150D02*
X17217254Y-19255674D01*
X17293445Y-19455674D02*
X17302968Y-19446150D01*
X17302968Y-19446150D02*
X17322016Y-19417579D01*
X17322016Y-19417579D02*
X17331540Y-19398531D01*
X17331540Y-19398531D02*
X17341064Y-19369960D01*
X17341064Y-19369960D02*
X17350587Y-19322341D01*
X17350587Y-19322341D02*
X17350587Y-19284246D01*
X17350587Y-19284246D02*
X17341064Y-19236627D01*
X17341064Y-19236627D02*
X17331540Y-19208055D01*
X17331540Y-19208055D02*
X17322016Y-19189008D01*
X17322016Y-19189008D02*
X17302968Y-19160436D01*
X17302968Y-19160436D02*
X17293445Y-19150912D01*
D13*
X12503737Y-19587356D02*
X12503737Y-19516644D01*
X12433026Y-19516644D01*
X12433026Y-19587356D01*
X12503737Y-19587356D01*
D11*
X12883920Y-19643484D02*
X12769634Y-19643484D01*
X12826777Y-19643484D02*
X12826777Y-19443484D01*
X12826777Y-19443484D02*
X12807730Y-19472055D01*
X12807730Y-19472055D02*
X12788682Y-19491103D01*
X12788682Y-19491103D02*
X12769634Y-19500627D01*
X12969634Y-19624436D02*
X12979158Y-19633960D01*
X12979158Y-19633960D02*
X12969634Y-19643484D01*
X12969634Y-19643484D02*
X12960111Y-19633960D01*
X12960111Y-19633960D02*
X12969634Y-19624436D01*
X12969634Y-19624436D02*
X12969634Y-19643484D01*
X13102968Y-19443484D02*
X13122015Y-19443484D01*
X13122015Y-19443484D02*
X13141063Y-19453008D01*
X13141063Y-19453008D02*
X13150587Y-19462531D01*
X13150587Y-19462531D02*
X13160111Y-19481579D01*
X13160111Y-19481579D02*
X13169634Y-19519674D01*
X13169634Y-19519674D02*
X13169634Y-19567293D01*
X13169634Y-19567293D02*
X13160111Y-19605389D01*
X13160111Y-19605389D02*
X13150587Y-19624436D01*
X13150587Y-19624436D02*
X13141063Y-19633960D01*
X13141063Y-19633960D02*
X13122015Y-19643484D01*
X13122015Y-19643484D02*
X13102968Y-19643484D01*
X13102968Y-19643484D02*
X13083920Y-19633960D01*
X13083920Y-19633960D02*
X13074396Y-19624436D01*
X13074396Y-19624436D02*
X13064873Y-19605389D01*
X13064873Y-19605389D02*
X13055349Y-19567293D01*
X13055349Y-19567293D02*
X13055349Y-19519674D01*
X13055349Y-19519674D02*
X13064873Y-19481579D01*
X13064873Y-19481579D02*
X13074396Y-19462531D01*
X13074396Y-19462531D02*
X13083920Y-19453008D01*
X13083920Y-19453008D02*
X13102968Y-19443484D01*
X13293444Y-19443484D02*
X13312492Y-19443484D01*
X13312492Y-19443484D02*
X13331539Y-19453008D01*
X13331539Y-19453008D02*
X13341063Y-19462531D01*
X13341063Y-19462531D02*
X13350587Y-19481579D01*
X13350587Y-19481579D02*
X13360111Y-19519674D01*
X13360111Y-19519674D02*
X13360111Y-19567293D01*
X13360111Y-19567293D02*
X13350587Y-19605389D01*
X13350587Y-19605389D02*
X13341063Y-19624436D01*
X13341063Y-19624436D02*
X13331539Y-19633960D01*
X13331539Y-19633960D02*
X13312492Y-19643484D01*
X13312492Y-19643484D02*
X13293444Y-19643484D01*
X13293444Y-19643484D02*
X13274396Y-19633960D01*
X13274396Y-19633960D02*
X13264873Y-19624436D01*
X13264873Y-19624436D02*
X13255349Y-19605389D01*
X13255349Y-19605389D02*
X13245825Y-19567293D01*
X13245825Y-19567293D02*
X13245825Y-19519674D01*
X13245825Y-19519674D02*
X13255349Y-19481579D01*
X13255349Y-19481579D02*
X13264873Y-19462531D01*
X13264873Y-19462531D02*
X13274396Y-19453008D01*
X13274396Y-19453008D02*
X13293444Y-19443484D01*
X13483920Y-19443484D02*
X13502968Y-19443484D01*
X13502968Y-19443484D02*
X13522015Y-19453008D01*
X13522015Y-19453008D02*
X13531539Y-19462531D01*
X13531539Y-19462531D02*
X13541063Y-19481579D01*
X13541063Y-19481579D02*
X13550587Y-19519674D01*
X13550587Y-19519674D02*
X13550587Y-19567293D01*
X13550587Y-19567293D02*
X13541063Y-19605389D01*
X13541063Y-19605389D02*
X13531539Y-19624436D01*
X13531539Y-19624436D02*
X13522015Y-19633960D01*
X13522015Y-19633960D02*
X13502968Y-19643484D01*
X13502968Y-19643484D02*
X13483920Y-19643484D01*
X13483920Y-19643484D02*
X13464873Y-19633960D01*
X13464873Y-19633960D02*
X13455349Y-19624436D01*
X13455349Y-19624436D02*
X13445825Y-19605389D01*
X13445825Y-19605389D02*
X13436301Y-19567293D01*
X13436301Y-19567293D02*
X13436301Y-19519674D01*
X13436301Y-19519674D02*
X13445825Y-19481579D01*
X13445825Y-19481579D02*
X13455349Y-19462531D01*
X13455349Y-19462531D02*
X13464873Y-19453008D01*
X13464873Y-19453008D02*
X13483920Y-19443484D01*
X13636301Y-19643484D02*
X13636301Y-19510150D01*
X13636301Y-19529198D02*
X13645825Y-19519674D01*
X13645825Y-19519674D02*
X13664873Y-19510150D01*
X13664873Y-19510150D02*
X13693444Y-19510150D01*
X13693444Y-19510150D02*
X13712492Y-19519674D01*
X13712492Y-19519674D02*
X13722015Y-19538722D01*
X13722015Y-19538722D02*
X13722015Y-19643484D01*
X13722015Y-19538722D02*
X13731539Y-19519674D01*
X13731539Y-19519674D02*
X13750587Y-19510150D01*
X13750587Y-19510150D02*
X13779158Y-19510150D01*
X13779158Y-19510150D02*
X13798206Y-19519674D01*
X13798206Y-19519674D02*
X13807730Y-19538722D01*
X13807730Y-19538722D02*
X13807730Y-19643484D01*
X13902968Y-19643484D02*
X13902968Y-19510150D01*
X13902968Y-19529198D02*
X13912492Y-19519674D01*
X13912492Y-19519674D02*
X13931539Y-19510150D01*
X13931539Y-19510150D02*
X13960111Y-19510150D01*
X13960111Y-19510150D02*
X13979158Y-19519674D01*
X13979158Y-19519674D02*
X13988682Y-19538722D01*
X13988682Y-19538722D02*
X13988682Y-19643484D01*
X13988682Y-19538722D02*
X13998206Y-19519674D01*
X13998206Y-19519674D02*
X14017254Y-19510150D01*
X14017254Y-19510150D02*
X14045825Y-19510150D01*
X14045825Y-19510150D02*
X14064873Y-19519674D01*
X14064873Y-19519674D02*
X14074396Y-19538722D01*
X14074396Y-19538722D02*
X14074396Y-19643484D01*
X14464873Y-19433960D02*
X14293444Y-19691103D01*
X14722016Y-19443484D02*
X14741063Y-19443484D01*
X14741063Y-19443484D02*
X14760111Y-19453008D01*
X14760111Y-19453008D02*
X14769635Y-19462531D01*
X14769635Y-19462531D02*
X14779158Y-19481579D01*
X14779158Y-19481579D02*
X14788682Y-19519674D01*
X14788682Y-19519674D02*
X14788682Y-19567293D01*
X14788682Y-19567293D02*
X14779158Y-19605389D01*
X14779158Y-19605389D02*
X14769635Y-19624436D01*
X14769635Y-19624436D02*
X14760111Y-19633960D01*
X14760111Y-19633960D02*
X14741063Y-19643484D01*
X14741063Y-19643484D02*
X14722016Y-19643484D01*
X14722016Y-19643484D02*
X14702968Y-19633960D01*
X14702968Y-19633960D02*
X14693444Y-19624436D01*
X14693444Y-19624436D02*
X14683920Y-19605389D01*
X14683920Y-19605389D02*
X14674397Y-19567293D01*
X14674397Y-19567293D02*
X14674397Y-19519674D01*
X14674397Y-19519674D02*
X14683920Y-19481579D01*
X14683920Y-19481579D02*
X14693444Y-19462531D01*
X14693444Y-19462531D02*
X14702968Y-19453008D01*
X14702968Y-19453008D02*
X14722016Y-19443484D01*
X14874397Y-19624436D02*
X14883920Y-19633960D01*
X14883920Y-19633960D02*
X14874397Y-19643484D01*
X14874397Y-19643484D02*
X14864873Y-19633960D01*
X14864873Y-19633960D02*
X14874397Y-19624436D01*
X14874397Y-19624436D02*
X14874397Y-19643484D01*
X15007730Y-19443484D02*
X15026778Y-19443484D01*
X15026778Y-19443484D02*
X15045825Y-19453008D01*
X15045825Y-19453008D02*
X15055349Y-19462531D01*
X15055349Y-19462531D02*
X15064873Y-19481579D01*
X15064873Y-19481579D02*
X15074397Y-19519674D01*
X15074397Y-19519674D02*
X15074397Y-19567293D01*
X15074397Y-19567293D02*
X15064873Y-19605389D01*
X15064873Y-19605389D02*
X15055349Y-19624436D01*
X15055349Y-19624436D02*
X15045825Y-19633960D01*
X15045825Y-19633960D02*
X15026778Y-19643484D01*
X15026778Y-19643484D02*
X15007730Y-19643484D01*
X15007730Y-19643484D02*
X14988682Y-19633960D01*
X14988682Y-19633960D02*
X14979158Y-19624436D01*
X14979158Y-19624436D02*
X14969635Y-19605389D01*
X14969635Y-19605389D02*
X14960111Y-19567293D01*
X14960111Y-19567293D02*
X14960111Y-19519674D01*
X14960111Y-19519674D02*
X14969635Y-19481579D01*
X14969635Y-19481579D02*
X14979158Y-19462531D01*
X14979158Y-19462531D02*
X14988682Y-19453008D01*
X14988682Y-19453008D02*
X15007730Y-19443484D01*
X15141063Y-19443484D02*
X15264873Y-19443484D01*
X15264873Y-19443484D02*
X15198206Y-19519674D01*
X15198206Y-19519674D02*
X15226778Y-19519674D01*
X15226778Y-19519674D02*
X15245825Y-19529198D01*
X15245825Y-19529198D02*
X15255349Y-19538722D01*
X15255349Y-19538722D02*
X15264873Y-19557770D01*
X15264873Y-19557770D02*
X15264873Y-19605389D01*
X15264873Y-19605389D02*
X15255349Y-19624436D01*
X15255349Y-19624436D02*
X15245825Y-19633960D01*
X15245825Y-19633960D02*
X15226778Y-19643484D01*
X15226778Y-19643484D02*
X15169635Y-19643484D01*
X15169635Y-19643484D02*
X15150587Y-19633960D01*
X15150587Y-19633960D02*
X15141063Y-19624436D01*
X15360111Y-19643484D02*
X15398206Y-19643484D01*
X15398206Y-19643484D02*
X15417254Y-19633960D01*
X15417254Y-19633960D02*
X15426778Y-19624436D01*
X15426778Y-19624436D02*
X15445825Y-19595865D01*
X15445825Y-19595865D02*
X15455349Y-19557770D01*
X15455349Y-19557770D02*
X15455349Y-19481579D01*
X15455349Y-19481579D02*
X15445825Y-19462531D01*
X15445825Y-19462531D02*
X15436301Y-19453008D01*
X15436301Y-19453008D02*
X15417254Y-19443484D01*
X15417254Y-19443484D02*
X15379158Y-19443484D01*
X15379158Y-19443484D02*
X15360111Y-19453008D01*
X15360111Y-19453008D02*
X15350587Y-19462531D01*
X15350587Y-19462531D02*
X15341063Y-19481579D01*
X15341063Y-19481579D02*
X15341063Y-19529198D01*
X15341063Y-19529198D02*
X15350587Y-19548246D01*
X15350587Y-19548246D02*
X15360111Y-19557770D01*
X15360111Y-19557770D02*
X15379158Y-19567293D01*
X15379158Y-19567293D02*
X15417254Y-19567293D01*
X15417254Y-19567293D02*
X15436301Y-19557770D01*
X15436301Y-19557770D02*
X15445825Y-19548246D01*
X15445825Y-19548246D02*
X15455349Y-19529198D01*
X15626778Y-19510150D02*
X15626778Y-19643484D01*
X15579158Y-19433960D02*
X15531539Y-19576817D01*
X15531539Y-19576817D02*
X15655349Y-19576817D01*
X15722016Y-19443484D02*
X15722016Y-19481579D01*
X15798206Y-19443484D02*
X15798206Y-19481579D01*
X16093444Y-19719674D02*
X16083920Y-19710150D01*
X16083920Y-19710150D02*
X16064873Y-19681579D01*
X16064873Y-19681579D02*
X16055349Y-19662531D01*
X16055349Y-19662531D02*
X16045825Y-19633960D01*
X16045825Y-19633960D02*
X16036301Y-19586341D01*
X16036301Y-19586341D02*
X16036301Y-19548246D01*
X16036301Y-19548246D02*
X16045825Y-19500627D01*
X16045825Y-19500627D02*
X16055349Y-19472055D01*
X16055349Y-19472055D02*
X16064873Y-19453008D01*
X16064873Y-19453008D02*
X16083920Y-19424436D01*
X16083920Y-19424436D02*
X16093444Y-19414912D01*
X16274397Y-19643484D02*
X16160111Y-19643484D01*
X16217254Y-19643484D02*
X16217254Y-19443484D01*
X16217254Y-19443484D02*
X16198206Y-19472055D01*
X16198206Y-19472055D02*
X16179159Y-19491103D01*
X16179159Y-19491103D02*
X16160111Y-19500627D01*
X16398206Y-19443484D02*
X16417254Y-19443484D01*
X16417254Y-19443484D02*
X16436301Y-19453008D01*
X16436301Y-19453008D02*
X16445825Y-19462531D01*
X16445825Y-19462531D02*
X16455349Y-19481579D01*
X16455349Y-19481579D02*
X16464873Y-19519674D01*
X16464873Y-19519674D02*
X16464873Y-19567293D01*
X16464873Y-19567293D02*
X16455349Y-19605389D01*
X16455349Y-19605389D02*
X16445825Y-19624436D01*
X16445825Y-19624436D02*
X16436301Y-19633960D01*
X16436301Y-19633960D02*
X16417254Y-19643484D01*
X16417254Y-19643484D02*
X16398206Y-19643484D01*
X16398206Y-19643484D02*
X16379159Y-19633960D01*
X16379159Y-19633960D02*
X16369635Y-19624436D01*
X16369635Y-19624436D02*
X16360111Y-19605389D01*
X16360111Y-19605389D02*
X16350587Y-19567293D01*
X16350587Y-19567293D02*
X16350587Y-19519674D01*
X16350587Y-19519674D02*
X16360111Y-19481579D01*
X16360111Y-19481579D02*
X16369635Y-19462531D01*
X16369635Y-19462531D02*
X16379159Y-19453008D01*
X16379159Y-19453008D02*
X16398206Y-19443484D01*
X16702968Y-19643484D02*
X16702968Y-19443484D01*
X16788683Y-19643484D02*
X16788683Y-19538722D01*
X16788683Y-19538722D02*
X16779159Y-19519674D01*
X16779159Y-19519674D02*
X16760111Y-19510150D01*
X16760111Y-19510150D02*
X16731540Y-19510150D01*
X16731540Y-19510150D02*
X16712492Y-19519674D01*
X16712492Y-19519674D02*
X16702968Y-19529198D01*
X16912492Y-19643484D02*
X16893444Y-19633960D01*
X16893444Y-19633960D02*
X16883921Y-19624436D01*
X16883921Y-19624436D02*
X16874397Y-19605389D01*
X16874397Y-19605389D02*
X16874397Y-19548246D01*
X16874397Y-19548246D02*
X16883921Y-19529198D01*
X16883921Y-19529198D02*
X16893444Y-19519674D01*
X16893444Y-19519674D02*
X16912492Y-19510150D01*
X16912492Y-19510150D02*
X16941064Y-19510150D01*
X16941064Y-19510150D02*
X16960111Y-19519674D01*
X16960111Y-19519674D02*
X16969635Y-19529198D01*
X16969635Y-19529198D02*
X16979159Y-19548246D01*
X16979159Y-19548246D02*
X16979159Y-19605389D01*
X16979159Y-19605389D02*
X16969635Y-19624436D01*
X16969635Y-19624436D02*
X16960111Y-19633960D01*
X16960111Y-19633960D02*
X16941064Y-19643484D01*
X16941064Y-19643484D02*
X16912492Y-19643484D01*
X17093444Y-19643484D02*
X17074397Y-19633960D01*
X17074397Y-19633960D02*
X17064873Y-19614912D01*
X17064873Y-19614912D02*
X17064873Y-19443484D01*
X17245825Y-19633960D02*
X17226778Y-19643484D01*
X17226778Y-19643484D02*
X17188683Y-19643484D01*
X17188683Y-19643484D02*
X17169635Y-19633960D01*
X17169635Y-19633960D02*
X17160111Y-19614912D01*
X17160111Y-19614912D02*
X17160111Y-19538722D01*
X17160111Y-19538722D02*
X17169635Y-19519674D01*
X17169635Y-19519674D02*
X17188683Y-19510150D01*
X17188683Y-19510150D02*
X17226778Y-19510150D01*
X17226778Y-19510150D02*
X17245825Y-19519674D01*
X17245825Y-19519674D02*
X17255349Y-19538722D01*
X17255349Y-19538722D02*
X17255349Y-19557770D01*
X17255349Y-19557770D02*
X17160111Y-19576817D01*
X17331540Y-19633960D02*
X17350587Y-19643484D01*
X17350587Y-19643484D02*
X17388683Y-19643484D01*
X17388683Y-19643484D02*
X17407730Y-19633960D01*
X17407730Y-19633960D02*
X17417254Y-19614912D01*
X17417254Y-19614912D02*
X17417254Y-19605389D01*
X17417254Y-19605389D02*
X17407730Y-19586341D01*
X17407730Y-19586341D02*
X17388683Y-19576817D01*
X17388683Y-19576817D02*
X17360111Y-19576817D01*
X17360111Y-19576817D02*
X17341064Y-19567293D01*
X17341064Y-19567293D02*
X17331540Y-19548246D01*
X17331540Y-19548246D02*
X17331540Y-19538722D01*
X17331540Y-19538722D02*
X17341064Y-19519674D01*
X17341064Y-19519674D02*
X17360111Y-19510150D01*
X17360111Y-19510150D02*
X17388683Y-19510150D01*
X17388683Y-19510150D02*
X17407730Y-19519674D01*
X17483921Y-19719674D02*
X17493445Y-19710150D01*
X17493445Y-19710150D02*
X17512492Y-19681579D01*
X17512492Y-19681579D02*
X17522016Y-19662531D01*
X17522016Y-19662531D02*
X17531540Y-19633960D01*
X17531540Y-19633960D02*
X17541064Y-19586341D01*
X17541064Y-19586341D02*
X17541064Y-19548246D01*
X17541064Y-19548246D02*
X17531540Y-19500627D01*
X17531540Y-19500627D02*
X17522016Y-19472055D01*
X17522016Y-19472055D02*
X17512492Y-19453008D01*
X17512492Y-19453008D02*
X17493445Y-19424436D01*
X17493445Y-19424436D02*
X17483921Y-19414912D01*
D14*
X12453381Y-19881000D02*
X12518381Y-19816000D01*
X12453381Y-19751000D01*
X12388381Y-19816000D01*
X12453381Y-19881000D01*
D11*
X12883920Y-19907484D02*
X12769634Y-19907484D01*
X12826777Y-19907484D02*
X12826777Y-19707484D01*
X12826777Y-19707484D02*
X12807730Y-19736055D01*
X12807730Y-19736055D02*
X12788682Y-19755103D01*
X12788682Y-19755103D02*
X12769634Y-19764627D01*
X12969634Y-19888436D02*
X12979158Y-19897960D01*
X12979158Y-19897960D02*
X12969634Y-19907484D01*
X12969634Y-19907484D02*
X12960111Y-19897960D01*
X12960111Y-19897960D02*
X12969634Y-19888436D01*
X12969634Y-19888436D02*
X12969634Y-19907484D01*
X13045825Y-19707484D02*
X13169634Y-19707484D01*
X13169634Y-19707484D02*
X13102968Y-19783674D01*
X13102968Y-19783674D02*
X13131539Y-19783674D01*
X13131539Y-19783674D02*
X13150587Y-19793198D01*
X13150587Y-19793198D02*
X13160111Y-19802722D01*
X13160111Y-19802722D02*
X13169634Y-19821770D01*
X13169634Y-19821770D02*
X13169634Y-19869389D01*
X13169634Y-19869389D02*
X13160111Y-19888436D01*
X13160111Y-19888436D02*
X13150587Y-19897960D01*
X13150587Y-19897960D02*
X13131539Y-19907484D01*
X13131539Y-19907484D02*
X13074396Y-19907484D01*
X13074396Y-19907484D02*
X13055349Y-19897960D01*
X13055349Y-19897960D02*
X13045825Y-19888436D01*
X13293444Y-19707484D02*
X13312492Y-19707484D01*
X13312492Y-19707484D02*
X13331539Y-19717008D01*
X13331539Y-19717008D02*
X13341063Y-19726531D01*
X13341063Y-19726531D02*
X13350587Y-19745579D01*
X13350587Y-19745579D02*
X13360111Y-19783674D01*
X13360111Y-19783674D02*
X13360111Y-19831293D01*
X13360111Y-19831293D02*
X13350587Y-19869389D01*
X13350587Y-19869389D02*
X13341063Y-19888436D01*
X13341063Y-19888436D02*
X13331539Y-19897960D01*
X13331539Y-19897960D02*
X13312492Y-19907484D01*
X13312492Y-19907484D02*
X13293444Y-19907484D01*
X13293444Y-19907484D02*
X13274396Y-19897960D01*
X13274396Y-19897960D02*
X13264873Y-19888436D01*
X13264873Y-19888436D02*
X13255349Y-19869389D01*
X13255349Y-19869389D02*
X13245825Y-19831293D01*
X13245825Y-19831293D02*
X13245825Y-19783674D01*
X13245825Y-19783674D02*
X13255349Y-19745579D01*
X13255349Y-19745579D02*
X13264873Y-19726531D01*
X13264873Y-19726531D02*
X13274396Y-19717008D01*
X13274396Y-19717008D02*
X13293444Y-19707484D01*
X13483920Y-19707484D02*
X13502968Y-19707484D01*
X13502968Y-19707484D02*
X13522015Y-19717008D01*
X13522015Y-19717008D02*
X13531539Y-19726531D01*
X13531539Y-19726531D02*
X13541063Y-19745579D01*
X13541063Y-19745579D02*
X13550587Y-19783674D01*
X13550587Y-19783674D02*
X13550587Y-19831293D01*
X13550587Y-19831293D02*
X13541063Y-19869389D01*
X13541063Y-19869389D02*
X13531539Y-19888436D01*
X13531539Y-19888436D02*
X13522015Y-19897960D01*
X13522015Y-19897960D02*
X13502968Y-19907484D01*
X13502968Y-19907484D02*
X13483920Y-19907484D01*
X13483920Y-19907484D02*
X13464873Y-19897960D01*
X13464873Y-19897960D02*
X13455349Y-19888436D01*
X13455349Y-19888436D02*
X13445825Y-19869389D01*
X13445825Y-19869389D02*
X13436301Y-19831293D01*
X13436301Y-19831293D02*
X13436301Y-19783674D01*
X13436301Y-19783674D02*
X13445825Y-19745579D01*
X13445825Y-19745579D02*
X13455349Y-19726531D01*
X13455349Y-19726531D02*
X13464873Y-19717008D01*
X13464873Y-19717008D02*
X13483920Y-19707484D01*
X13636301Y-19907484D02*
X13636301Y-19774150D01*
X13636301Y-19793198D02*
X13645825Y-19783674D01*
X13645825Y-19783674D02*
X13664873Y-19774150D01*
X13664873Y-19774150D02*
X13693444Y-19774150D01*
X13693444Y-19774150D02*
X13712492Y-19783674D01*
X13712492Y-19783674D02*
X13722015Y-19802722D01*
X13722015Y-19802722D02*
X13722015Y-19907484D01*
X13722015Y-19802722D02*
X13731539Y-19783674D01*
X13731539Y-19783674D02*
X13750587Y-19774150D01*
X13750587Y-19774150D02*
X13779158Y-19774150D01*
X13779158Y-19774150D02*
X13798206Y-19783674D01*
X13798206Y-19783674D02*
X13807730Y-19802722D01*
X13807730Y-19802722D02*
X13807730Y-19907484D01*
X13902968Y-19907484D02*
X13902968Y-19774150D01*
X13902968Y-19793198D02*
X13912492Y-19783674D01*
X13912492Y-19783674D02*
X13931539Y-19774150D01*
X13931539Y-19774150D02*
X13960111Y-19774150D01*
X13960111Y-19774150D02*
X13979158Y-19783674D01*
X13979158Y-19783674D02*
X13988682Y-19802722D01*
X13988682Y-19802722D02*
X13988682Y-19907484D01*
X13988682Y-19802722D02*
X13998206Y-19783674D01*
X13998206Y-19783674D02*
X14017254Y-19774150D01*
X14017254Y-19774150D02*
X14045825Y-19774150D01*
X14045825Y-19774150D02*
X14064873Y-19783674D01*
X14064873Y-19783674D02*
X14074396Y-19802722D01*
X14074396Y-19802722D02*
X14074396Y-19907484D01*
X14464873Y-19697960D02*
X14293444Y-19955103D01*
X14722016Y-19707484D02*
X14741063Y-19707484D01*
X14741063Y-19707484D02*
X14760111Y-19717008D01*
X14760111Y-19717008D02*
X14769635Y-19726531D01*
X14769635Y-19726531D02*
X14779158Y-19745579D01*
X14779158Y-19745579D02*
X14788682Y-19783674D01*
X14788682Y-19783674D02*
X14788682Y-19831293D01*
X14788682Y-19831293D02*
X14779158Y-19869389D01*
X14779158Y-19869389D02*
X14769635Y-19888436D01*
X14769635Y-19888436D02*
X14760111Y-19897960D01*
X14760111Y-19897960D02*
X14741063Y-19907484D01*
X14741063Y-19907484D02*
X14722016Y-19907484D01*
X14722016Y-19907484D02*
X14702968Y-19897960D01*
X14702968Y-19897960D02*
X14693444Y-19888436D01*
X14693444Y-19888436D02*
X14683920Y-19869389D01*
X14683920Y-19869389D02*
X14674397Y-19831293D01*
X14674397Y-19831293D02*
X14674397Y-19783674D01*
X14674397Y-19783674D02*
X14683920Y-19745579D01*
X14683920Y-19745579D02*
X14693444Y-19726531D01*
X14693444Y-19726531D02*
X14702968Y-19717008D01*
X14702968Y-19717008D02*
X14722016Y-19707484D01*
X14874397Y-19888436D02*
X14883920Y-19897960D01*
X14883920Y-19897960D02*
X14874397Y-19907484D01*
X14874397Y-19907484D02*
X14864873Y-19897960D01*
X14864873Y-19897960D02*
X14874397Y-19888436D01*
X14874397Y-19888436D02*
X14874397Y-19907484D01*
X15007730Y-19707484D02*
X15026778Y-19707484D01*
X15026778Y-19707484D02*
X15045825Y-19717008D01*
X15045825Y-19717008D02*
X15055349Y-19726531D01*
X15055349Y-19726531D02*
X15064873Y-19745579D01*
X15064873Y-19745579D02*
X15074397Y-19783674D01*
X15074397Y-19783674D02*
X15074397Y-19831293D01*
X15074397Y-19831293D02*
X15064873Y-19869389D01*
X15064873Y-19869389D02*
X15055349Y-19888436D01*
X15055349Y-19888436D02*
X15045825Y-19897960D01*
X15045825Y-19897960D02*
X15026778Y-19907484D01*
X15026778Y-19907484D02*
X15007730Y-19907484D01*
X15007730Y-19907484D02*
X14988682Y-19897960D01*
X14988682Y-19897960D02*
X14979158Y-19888436D01*
X14979158Y-19888436D02*
X14969635Y-19869389D01*
X14969635Y-19869389D02*
X14960111Y-19831293D01*
X14960111Y-19831293D02*
X14960111Y-19783674D01*
X14960111Y-19783674D02*
X14969635Y-19745579D01*
X14969635Y-19745579D02*
X14979158Y-19726531D01*
X14979158Y-19726531D02*
X14988682Y-19717008D01*
X14988682Y-19717008D02*
X15007730Y-19707484D01*
X15255349Y-19707484D02*
X15160111Y-19707484D01*
X15160111Y-19707484D02*
X15150587Y-19802722D01*
X15150587Y-19802722D02*
X15160111Y-19793198D01*
X15160111Y-19793198D02*
X15179158Y-19783674D01*
X15179158Y-19783674D02*
X15226778Y-19783674D01*
X15226778Y-19783674D02*
X15245825Y-19793198D01*
X15245825Y-19793198D02*
X15255349Y-19802722D01*
X15255349Y-19802722D02*
X15264873Y-19821770D01*
X15264873Y-19821770D02*
X15264873Y-19869389D01*
X15264873Y-19869389D02*
X15255349Y-19888436D01*
X15255349Y-19888436D02*
X15245825Y-19897960D01*
X15245825Y-19897960D02*
X15226778Y-19907484D01*
X15226778Y-19907484D02*
X15179158Y-19907484D01*
X15179158Y-19907484D02*
X15160111Y-19897960D01*
X15160111Y-19897960D02*
X15150587Y-19888436D01*
X15455349Y-19907484D02*
X15341063Y-19907484D01*
X15398206Y-19907484D02*
X15398206Y-19707484D01*
X15398206Y-19707484D02*
X15379158Y-19736055D01*
X15379158Y-19736055D02*
X15360111Y-19755103D01*
X15360111Y-19755103D02*
X15341063Y-19764627D01*
X15531539Y-19726531D02*
X15541063Y-19717008D01*
X15541063Y-19717008D02*
X15560111Y-19707484D01*
X15560111Y-19707484D02*
X15607730Y-19707484D01*
X15607730Y-19707484D02*
X15626778Y-19717008D01*
X15626778Y-19717008D02*
X15636301Y-19726531D01*
X15636301Y-19726531D02*
X15645825Y-19745579D01*
X15645825Y-19745579D02*
X15645825Y-19764627D01*
X15645825Y-19764627D02*
X15636301Y-19793198D01*
X15636301Y-19793198D02*
X15522016Y-19907484D01*
X15522016Y-19907484D02*
X15645825Y-19907484D01*
X15722016Y-19707484D02*
X15722016Y-19745579D01*
X15798206Y-19707484D02*
X15798206Y-19745579D01*
X16093444Y-19983674D02*
X16083920Y-19974150D01*
X16083920Y-19974150D02*
X16064873Y-19945579D01*
X16064873Y-19945579D02*
X16055349Y-19926531D01*
X16055349Y-19926531D02*
X16045825Y-19897960D01*
X16045825Y-19897960D02*
X16036301Y-19850341D01*
X16036301Y-19850341D02*
X16036301Y-19812246D01*
X16036301Y-19812246D02*
X16045825Y-19764627D01*
X16045825Y-19764627D02*
X16055349Y-19736055D01*
X16055349Y-19736055D02*
X16064873Y-19717008D01*
X16064873Y-19717008D02*
X16083920Y-19688436D01*
X16083920Y-19688436D02*
X16093444Y-19678912D01*
X16255349Y-19707484D02*
X16217254Y-19707484D01*
X16217254Y-19707484D02*
X16198206Y-19717008D01*
X16198206Y-19717008D02*
X16188682Y-19726531D01*
X16188682Y-19726531D02*
X16169635Y-19755103D01*
X16169635Y-19755103D02*
X16160111Y-19793198D01*
X16160111Y-19793198D02*
X16160111Y-19869389D01*
X16160111Y-19869389D02*
X16169635Y-19888436D01*
X16169635Y-19888436D02*
X16179159Y-19897960D01*
X16179159Y-19897960D02*
X16198206Y-19907484D01*
X16198206Y-19907484D02*
X16236301Y-19907484D01*
X16236301Y-19907484D02*
X16255349Y-19897960D01*
X16255349Y-19897960D02*
X16264873Y-19888436D01*
X16264873Y-19888436D02*
X16274397Y-19869389D01*
X16274397Y-19869389D02*
X16274397Y-19821770D01*
X16274397Y-19821770D02*
X16264873Y-19802722D01*
X16264873Y-19802722D02*
X16255349Y-19793198D01*
X16255349Y-19793198D02*
X16236301Y-19783674D01*
X16236301Y-19783674D02*
X16198206Y-19783674D01*
X16198206Y-19783674D02*
X16179159Y-19793198D01*
X16179159Y-19793198D02*
X16169635Y-19802722D01*
X16169635Y-19802722D02*
X16160111Y-19821770D01*
X16512492Y-19907484D02*
X16512492Y-19707484D01*
X16598206Y-19907484D02*
X16598206Y-19802722D01*
X16598206Y-19802722D02*
X16588682Y-19783674D01*
X16588682Y-19783674D02*
X16569635Y-19774150D01*
X16569635Y-19774150D02*
X16541063Y-19774150D01*
X16541063Y-19774150D02*
X16522016Y-19783674D01*
X16522016Y-19783674D02*
X16512492Y-19793198D01*
X16722016Y-19907484D02*
X16702968Y-19897960D01*
X16702968Y-19897960D02*
X16693444Y-19888436D01*
X16693444Y-19888436D02*
X16683921Y-19869389D01*
X16683921Y-19869389D02*
X16683921Y-19812246D01*
X16683921Y-19812246D02*
X16693444Y-19793198D01*
X16693444Y-19793198D02*
X16702968Y-19783674D01*
X16702968Y-19783674D02*
X16722016Y-19774150D01*
X16722016Y-19774150D02*
X16750587Y-19774150D01*
X16750587Y-19774150D02*
X16769635Y-19783674D01*
X16769635Y-19783674D02*
X16779159Y-19793198D01*
X16779159Y-19793198D02*
X16788683Y-19812246D01*
X16788683Y-19812246D02*
X16788683Y-19869389D01*
X16788683Y-19869389D02*
X16779159Y-19888436D01*
X16779159Y-19888436D02*
X16769635Y-19897960D01*
X16769635Y-19897960D02*
X16750587Y-19907484D01*
X16750587Y-19907484D02*
X16722016Y-19907484D01*
X16902968Y-19907484D02*
X16883921Y-19897960D01*
X16883921Y-19897960D02*
X16874397Y-19878912D01*
X16874397Y-19878912D02*
X16874397Y-19707484D01*
X17055349Y-19897960D02*
X17036302Y-19907484D01*
X17036302Y-19907484D02*
X16998206Y-19907484D01*
X16998206Y-19907484D02*
X16979159Y-19897960D01*
X16979159Y-19897960D02*
X16969635Y-19878912D01*
X16969635Y-19878912D02*
X16969635Y-19802722D01*
X16969635Y-19802722D02*
X16979159Y-19783674D01*
X16979159Y-19783674D02*
X16998206Y-19774150D01*
X16998206Y-19774150D02*
X17036302Y-19774150D01*
X17036302Y-19774150D02*
X17055349Y-19783674D01*
X17055349Y-19783674D02*
X17064873Y-19802722D01*
X17064873Y-19802722D02*
X17064873Y-19821770D01*
X17064873Y-19821770D02*
X16969635Y-19840817D01*
X17141064Y-19897960D02*
X17160111Y-19907484D01*
X17160111Y-19907484D02*
X17198206Y-19907484D01*
X17198206Y-19907484D02*
X17217254Y-19897960D01*
X17217254Y-19897960D02*
X17226778Y-19878912D01*
X17226778Y-19878912D02*
X17226778Y-19869389D01*
X17226778Y-19869389D02*
X17217254Y-19850341D01*
X17217254Y-19850341D02*
X17198206Y-19840817D01*
X17198206Y-19840817D02*
X17169635Y-19840817D01*
X17169635Y-19840817D02*
X17150587Y-19831293D01*
X17150587Y-19831293D02*
X17141064Y-19812246D01*
X17141064Y-19812246D02*
X17141064Y-19802722D01*
X17141064Y-19802722D02*
X17150587Y-19783674D01*
X17150587Y-19783674D02*
X17169635Y-19774150D01*
X17169635Y-19774150D02*
X17198206Y-19774150D01*
X17198206Y-19774150D02*
X17217254Y-19783674D01*
X17293445Y-19983674D02*
X17302968Y-19974150D01*
X17302968Y-19974150D02*
X17322016Y-19945579D01*
X17322016Y-19945579D02*
X17331540Y-19926531D01*
X17331540Y-19926531D02*
X17341064Y-19897960D01*
X17341064Y-19897960D02*
X17350587Y-19850341D01*
X17350587Y-19850341D02*
X17350587Y-19812246D01*
X17350587Y-19812246D02*
X17341064Y-19764627D01*
X17341064Y-19764627D02*
X17331540Y-19736055D01*
X17331540Y-19736055D02*
X17322016Y-19717008D01*
X17322016Y-19717008D02*
X17302968Y-19688436D01*
X17302968Y-19688436D02*
X17293445Y-19678912D01*
D15*
X12368381Y-20005000D02*
X12518381Y-20155000D01*
X12518381Y-20005000D02*
X12368381Y-20155000D01*
X12518381Y-20080000D02*
G75*
G02*
X12368381Y-20080000I-75000J0D01*
G01*
X12368381Y-20080000D02*
G75*
G02*
X12518381Y-20080000I75000J0D01*
G01*
D11*
X12883920Y-20171484D02*
X12769634Y-20171484D01*
X12826777Y-20171484D02*
X12826777Y-19971484D01*
X12826777Y-19971484D02*
X12807730Y-20000055D01*
X12807730Y-20000055D02*
X12788682Y-20019103D01*
X12788682Y-20019103D02*
X12769634Y-20028627D01*
X12969634Y-20152436D02*
X12979158Y-20161960D01*
X12979158Y-20161960D02*
X12969634Y-20171484D01*
X12969634Y-20171484D02*
X12960111Y-20161960D01*
X12960111Y-20161960D02*
X12969634Y-20152436D01*
X12969634Y-20152436D02*
X12969634Y-20171484D01*
X13160111Y-19971484D02*
X13064873Y-19971484D01*
X13064873Y-19971484D02*
X13055349Y-20066722D01*
X13055349Y-20066722D02*
X13064873Y-20057198D01*
X13064873Y-20057198D02*
X13083920Y-20047674D01*
X13083920Y-20047674D02*
X13131539Y-20047674D01*
X13131539Y-20047674D02*
X13150587Y-20057198D01*
X13150587Y-20057198D02*
X13160111Y-20066722D01*
X13160111Y-20066722D02*
X13169634Y-20085770D01*
X13169634Y-20085770D02*
X13169634Y-20133389D01*
X13169634Y-20133389D02*
X13160111Y-20152436D01*
X13160111Y-20152436D02*
X13150587Y-20161960D01*
X13150587Y-20161960D02*
X13131539Y-20171484D01*
X13131539Y-20171484D02*
X13083920Y-20171484D01*
X13083920Y-20171484D02*
X13064873Y-20161960D01*
X13064873Y-20161960D02*
X13055349Y-20152436D01*
X13293444Y-19971484D02*
X13312492Y-19971484D01*
X13312492Y-19971484D02*
X13331539Y-19981008D01*
X13331539Y-19981008D02*
X13341063Y-19990531D01*
X13341063Y-19990531D02*
X13350587Y-20009579D01*
X13350587Y-20009579D02*
X13360111Y-20047674D01*
X13360111Y-20047674D02*
X13360111Y-20095293D01*
X13360111Y-20095293D02*
X13350587Y-20133389D01*
X13350587Y-20133389D02*
X13341063Y-20152436D01*
X13341063Y-20152436D02*
X13331539Y-20161960D01*
X13331539Y-20161960D02*
X13312492Y-20171484D01*
X13312492Y-20171484D02*
X13293444Y-20171484D01*
X13293444Y-20171484D02*
X13274396Y-20161960D01*
X13274396Y-20161960D02*
X13264873Y-20152436D01*
X13264873Y-20152436D02*
X13255349Y-20133389D01*
X13255349Y-20133389D02*
X13245825Y-20095293D01*
X13245825Y-20095293D02*
X13245825Y-20047674D01*
X13245825Y-20047674D02*
X13255349Y-20009579D01*
X13255349Y-20009579D02*
X13264873Y-19990531D01*
X13264873Y-19990531D02*
X13274396Y-19981008D01*
X13274396Y-19981008D02*
X13293444Y-19971484D01*
X13483920Y-19971484D02*
X13502968Y-19971484D01*
X13502968Y-19971484D02*
X13522015Y-19981008D01*
X13522015Y-19981008D02*
X13531539Y-19990531D01*
X13531539Y-19990531D02*
X13541063Y-20009579D01*
X13541063Y-20009579D02*
X13550587Y-20047674D01*
X13550587Y-20047674D02*
X13550587Y-20095293D01*
X13550587Y-20095293D02*
X13541063Y-20133389D01*
X13541063Y-20133389D02*
X13531539Y-20152436D01*
X13531539Y-20152436D02*
X13522015Y-20161960D01*
X13522015Y-20161960D02*
X13502968Y-20171484D01*
X13502968Y-20171484D02*
X13483920Y-20171484D01*
X13483920Y-20171484D02*
X13464873Y-20161960D01*
X13464873Y-20161960D02*
X13455349Y-20152436D01*
X13455349Y-20152436D02*
X13445825Y-20133389D01*
X13445825Y-20133389D02*
X13436301Y-20095293D01*
X13436301Y-20095293D02*
X13436301Y-20047674D01*
X13436301Y-20047674D02*
X13445825Y-20009579D01*
X13445825Y-20009579D02*
X13455349Y-19990531D01*
X13455349Y-19990531D02*
X13464873Y-19981008D01*
X13464873Y-19981008D02*
X13483920Y-19971484D01*
X13636301Y-20171484D02*
X13636301Y-20038150D01*
X13636301Y-20057198D02*
X13645825Y-20047674D01*
X13645825Y-20047674D02*
X13664873Y-20038150D01*
X13664873Y-20038150D02*
X13693444Y-20038150D01*
X13693444Y-20038150D02*
X13712492Y-20047674D01*
X13712492Y-20047674D02*
X13722015Y-20066722D01*
X13722015Y-20066722D02*
X13722015Y-20171484D01*
X13722015Y-20066722D02*
X13731539Y-20047674D01*
X13731539Y-20047674D02*
X13750587Y-20038150D01*
X13750587Y-20038150D02*
X13779158Y-20038150D01*
X13779158Y-20038150D02*
X13798206Y-20047674D01*
X13798206Y-20047674D02*
X13807730Y-20066722D01*
X13807730Y-20066722D02*
X13807730Y-20171484D01*
X13902968Y-20171484D02*
X13902968Y-20038150D01*
X13902968Y-20057198D02*
X13912492Y-20047674D01*
X13912492Y-20047674D02*
X13931539Y-20038150D01*
X13931539Y-20038150D02*
X13960111Y-20038150D01*
X13960111Y-20038150D02*
X13979158Y-20047674D01*
X13979158Y-20047674D02*
X13988682Y-20066722D01*
X13988682Y-20066722D02*
X13988682Y-20171484D01*
X13988682Y-20066722D02*
X13998206Y-20047674D01*
X13998206Y-20047674D02*
X14017254Y-20038150D01*
X14017254Y-20038150D02*
X14045825Y-20038150D01*
X14045825Y-20038150D02*
X14064873Y-20047674D01*
X14064873Y-20047674D02*
X14074396Y-20066722D01*
X14074396Y-20066722D02*
X14074396Y-20171484D01*
X14464873Y-19961960D02*
X14293444Y-20219103D01*
X14722016Y-19971484D02*
X14741063Y-19971484D01*
X14741063Y-19971484D02*
X14760111Y-19981008D01*
X14760111Y-19981008D02*
X14769635Y-19990531D01*
X14769635Y-19990531D02*
X14779158Y-20009579D01*
X14779158Y-20009579D02*
X14788682Y-20047674D01*
X14788682Y-20047674D02*
X14788682Y-20095293D01*
X14788682Y-20095293D02*
X14779158Y-20133389D01*
X14779158Y-20133389D02*
X14769635Y-20152436D01*
X14769635Y-20152436D02*
X14760111Y-20161960D01*
X14760111Y-20161960D02*
X14741063Y-20171484D01*
X14741063Y-20171484D02*
X14722016Y-20171484D01*
X14722016Y-20171484D02*
X14702968Y-20161960D01*
X14702968Y-20161960D02*
X14693444Y-20152436D01*
X14693444Y-20152436D02*
X14683920Y-20133389D01*
X14683920Y-20133389D02*
X14674397Y-20095293D01*
X14674397Y-20095293D02*
X14674397Y-20047674D01*
X14674397Y-20047674D02*
X14683920Y-20009579D01*
X14683920Y-20009579D02*
X14693444Y-19990531D01*
X14693444Y-19990531D02*
X14702968Y-19981008D01*
X14702968Y-19981008D02*
X14722016Y-19971484D01*
X14874397Y-20152436D02*
X14883920Y-20161960D01*
X14883920Y-20161960D02*
X14874397Y-20171484D01*
X14874397Y-20171484D02*
X14864873Y-20161960D01*
X14864873Y-20161960D02*
X14874397Y-20152436D01*
X14874397Y-20152436D02*
X14874397Y-20171484D01*
X15007730Y-19971484D02*
X15026778Y-19971484D01*
X15026778Y-19971484D02*
X15045825Y-19981008D01*
X15045825Y-19981008D02*
X15055349Y-19990531D01*
X15055349Y-19990531D02*
X15064873Y-20009579D01*
X15064873Y-20009579D02*
X15074397Y-20047674D01*
X15074397Y-20047674D02*
X15074397Y-20095293D01*
X15074397Y-20095293D02*
X15064873Y-20133389D01*
X15064873Y-20133389D02*
X15055349Y-20152436D01*
X15055349Y-20152436D02*
X15045825Y-20161960D01*
X15045825Y-20161960D02*
X15026778Y-20171484D01*
X15026778Y-20171484D02*
X15007730Y-20171484D01*
X15007730Y-20171484D02*
X14988682Y-20161960D01*
X14988682Y-20161960D02*
X14979158Y-20152436D01*
X14979158Y-20152436D02*
X14969635Y-20133389D01*
X14969635Y-20133389D02*
X14960111Y-20095293D01*
X14960111Y-20095293D02*
X14960111Y-20047674D01*
X14960111Y-20047674D02*
X14969635Y-20009579D01*
X14969635Y-20009579D02*
X14979158Y-19990531D01*
X14979158Y-19990531D02*
X14988682Y-19981008D01*
X14988682Y-19981008D02*
X15007730Y-19971484D01*
X15255349Y-19971484D02*
X15160111Y-19971484D01*
X15160111Y-19971484D02*
X15150587Y-20066722D01*
X15150587Y-20066722D02*
X15160111Y-20057198D01*
X15160111Y-20057198D02*
X15179158Y-20047674D01*
X15179158Y-20047674D02*
X15226778Y-20047674D01*
X15226778Y-20047674D02*
X15245825Y-20057198D01*
X15245825Y-20057198D02*
X15255349Y-20066722D01*
X15255349Y-20066722D02*
X15264873Y-20085770D01*
X15264873Y-20085770D02*
X15264873Y-20133389D01*
X15264873Y-20133389D02*
X15255349Y-20152436D01*
X15255349Y-20152436D02*
X15245825Y-20161960D01*
X15245825Y-20161960D02*
X15226778Y-20171484D01*
X15226778Y-20171484D02*
X15179158Y-20171484D01*
X15179158Y-20171484D02*
X15160111Y-20161960D01*
X15160111Y-20161960D02*
X15150587Y-20152436D01*
X15360111Y-20171484D02*
X15398206Y-20171484D01*
X15398206Y-20171484D02*
X15417254Y-20161960D01*
X15417254Y-20161960D02*
X15426778Y-20152436D01*
X15426778Y-20152436D02*
X15445825Y-20123865D01*
X15445825Y-20123865D02*
X15455349Y-20085770D01*
X15455349Y-20085770D02*
X15455349Y-20009579D01*
X15455349Y-20009579D02*
X15445825Y-19990531D01*
X15445825Y-19990531D02*
X15436301Y-19981008D01*
X15436301Y-19981008D02*
X15417254Y-19971484D01*
X15417254Y-19971484D02*
X15379158Y-19971484D01*
X15379158Y-19971484D02*
X15360111Y-19981008D01*
X15360111Y-19981008D02*
X15350587Y-19990531D01*
X15350587Y-19990531D02*
X15341063Y-20009579D01*
X15341063Y-20009579D02*
X15341063Y-20057198D01*
X15341063Y-20057198D02*
X15350587Y-20076246D01*
X15350587Y-20076246D02*
X15360111Y-20085770D01*
X15360111Y-20085770D02*
X15379158Y-20095293D01*
X15379158Y-20095293D02*
X15417254Y-20095293D01*
X15417254Y-20095293D02*
X15436301Y-20085770D01*
X15436301Y-20085770D02*
X15445825Y-20076246D01*
X15445825Y-20076246D02*
X15455349Y-20057198D01*
X15645825Y-20171484D02*
X15531539Y-20171484D01*
X15588682Y-20171484D02*
X15588682Y-19971484D01*
X15588682Y-19971484D02*
X15569635Y-20000055D01*
X15569635Y-20000055D02*
X15550587Y-20019103D01*
X15550587Y-20019103D02*
X15531539Y-20028627D01*
X15722016Y-19971484D02*
X15722016Y-20009579D01*
X15798206Y-19971484D02*
X15798206Y-20009579D01*
X16093444Y-20247674D02*
X16083920Y-20238150D01*
X16083920Y-20238150D02*
X16064873Y-20209579D01*
X16064873Y-20209579D02*
X16055349Y-20190531D01*
X16055349Y-20190531D02*
X16045825Y-20161960D01*
X16045825Y-20161960D02*
X16036301Y-20114341D01*
X16036301Y-20114341D02*
X16036301Y-20076246D01*
X16036301Y-20076246D02*
X16045825Y-20028627D01*
X16045825Y-20028627D02*
X16055349Y-20000055D01*
X16055349Y-20000055D02*
X16064873Y-19981008D01*
X16064873Y-19981008D02*
X16083920Y-19952436D01*
X16083920Y-19952436D02*
X16093444Y-19942912D01*
X16160111Y-19990531D02*
X16169635Y-19981008D01*
X16169635Y-19981008D02*
X16188682Y-19971484D01*
X16188682Y-19971484D02*
X16236301Y-19971484D01*
X16236301Y-19971484D02*
X16255349Y-19981008D01*
X16255349Y-19981008D02*
X16264873Y-19990531D01*
X16264873Y-19990531D02*
X16274397Y-20009579D01*
X16274397Y-20009579D02*
X16274397Y-20028627D01*
X16274397Y-20028627D02*
X16264873Y-20057198D01*
X16264873Y-20057198D02*
X16150587Y-20171484D01*
X16150587Y-20171484D02*
X16274397Y-20171484D01*
X16512492Y-20171484D02*
X16512492Y-19971484D01*
X16598206Y-20171484D02*
X16598206Y-20066722D01*
X16598206Y-20066722D02*
X16588682Y-20047674D01*
X16588682Y-20047674D02*
X16569635Y-20038150D01*
X16569635Y-20038150D02*
X16541063Y-20038150D01*
X16541063Y-20038150D02*
X16522016Y-20047674D01*
X16522016Y-20047674D02*
X16512492Y-20057198D01*
X16722016Y-20171484D02*
X16702968Y-20161960D01*
X16702968Y-20161960D02*
X16693444Y-20152436D01*
X16693444Y-20152436D02*
X16683921Y-20133389D01*
X16683921Y-20133389D02*
X16683921Y-20076246D01*
X16683921Y-20076246D02*
X16693444Y-20057198D01*
X16693444Y-20057198D02*
X16702968Y-20047674D01*
X16702968Y-20047674D02*
X16722016Y-20038150D01*
X16722016Y-20038150D02*
X16750587Y-20038150D01*
X16750587Y-20038150D02*
X16769635Y-20047674D01*
X16769635Y-20047674D02*
X16779159Y-20057198D01*
X16779159Y-20057198D02*
X16788683Y-20076246D01*
X16788683Y-20076246D02*
X16788683Y-20133389D01*
X16788683Y-20133389D02*
X16779159Y-20152436D01*
X16779159Y-20152436D02*
X16769635Y-20161960D01*
X16769635Y-20161960D02*
X16750587Y-20171484D01*
X16750587Y-20171484D02*
X16722016Y-20171484D01*
X16902968Y-20171484D02*
X16883921Y-20161960D01*
X16883921Y-20161960D02*
X16874397Y-20142912D01*
X16874397Y-20142912D02*
X16874397Y-19971484D01*
X17055349Y-20161960D02*
X17036302Y-20171484D01*
X17036302Y-20171484D02*
X16998206Y-20171484D01*
X16998206Y-20171484D02*
X16979159Y-20161960D01*
X16979159Y-20161960D02*
X16969635Y-20142912D01*
X16969635Y-20142912D02*
X16969635Y-20066722D01*
X16969635Y-20066722D02*
X16979159Y-20047674D01*
X16979159Y-20047674D02*
X16998206Y-20038150D01*
X16998206Y-20038150D02*
X17036302Y-20038150D01*
X17036302Y-20038150D02*
X17055349Y-20047674D01*
X17055349Y-20047674D02*
X17064873Y-20066722D01*
X17064873Y-20066722D02*
X17064873Y-20085770D01*
X17064873Y-20085770D02*
X16969635Y-20104817D01*
X17141064Y-20161960D02*
X17160111Y-20171484D01*
X17160111Y-20171484D02*
X17198206Y-20171484D01*
X17198206Y-20171484D02*
X17217254Y-20161960D01*
X17217254Y-20161960D02*
X17226778Y-20142912D01*
X17226778Y-20142912D02*
X17226778Y-20133389D01*
X17226778Y-20133389D02*
X17217254Y-20114341D01*
X17217254Y-20114341D02*
X17198206Y-20104817D01*
X17198206Y-20104817D02*
X17169635Y-20104817D01*
X17169635Y-20104817D02*
X17150587Y-20095293D01*
X17150587Y-20095293D02*
X17141064Y-20076246D01*
X17141064Y-20076246D02*
X17141064Y-20066722D01*
X17141064Y-20066722D02*
X17150587Y-20047674D01*
X17150587Y-20047674D02*
X17169635Y-20038150D01*
X17169635Y-20038150D02*
X17198206Y-20038150D01*
X17198206Y-20038150D02*
X17217254Y-20047674D01*
X17293445Y-20247674D02*
X17302968Y-20238150D01*
X17302968Y-20238150D02*
X17322016Y-20209579D01*
X17322016Y-20209579D02*
X17331540Y-20190531D01*
X17331540Y-20190531D02*
X17341064Y-20161960D01*
X17341064Y-20161960D02*
X17350587Y-20114341D01*
X17350587Y-20114341D02*
X17350587Y-20076246D01*
X17350587Y-20076246D02*
X17341064Y-20028627D01*
X17341064Y-20028627D02*
X17331540Y-20000055D01*
X17331540Y-20000055D02*
X17322016Y-19981008D01*
X17322016Y-19981008D02*
X17302968Y-19952436D01*
X17302968Y-19952436D02*
X17293445Y-19942912D01*
X12318381Y-20250000D02*
X12518381Y-20450000D01*
X12518381Y-20250000D02*
X12318381Y-20450000D01*
X12418381Y-20250000D02*
X12418381Y-20450000D01*
X12318381Y-20350000D02*
X12518381Y-20350000D01*
X12769634Y-20260531D02*
X12779158Y-20251008D01*
X12779158Y-20251008D02*
X12798206Y-20241484D01*
X12798206Y-20241484D02*
X12845825Y-20241484D01*
X12845825Y-20241484D02*
X12864873Y-20251008D01*
X12864873Y-20251008D02*
X12874396Y-20260531D01*
X12874396Y-20260531D02*
X12883920Y-20279579D01*
X12883920Y-20279579D02*
X12883920Y-20298627D01*
X12883920Y-20298627D02*
X12874396Y-20327198D01*
X12874396Y-20327198D02*
X12760111Y-20441484D01*
X12760111Y-20441484D02*
X12883920Y-20441484D01*
X12969634Y-20422436D02*
X12979158Y-20431960D01*
X12979158Y-20431960D02*
X12969634Y-20441484D01*
X12969634Y-20441484D02*
X12960111Y-20431960D01*
X12960111Y-20431960D02*
X12969634Y-20422436D01*
X12969634Y-20422436D02*
X12969634Y-20441484D01*
X13150587Y-20308150D02*
X13150587Y-20441484D01*
X13102968Y-20231960D02*
X13055349Y-20374817D01*
X13055349Y-20374817D02*
X13179158Y-20374817D01*
X13293444Y-20241484D02*
X13312492Y-20241484D01*
X13312492Y-20241484D02*
X13331539Y-20251008D01*
X13331539Y-20251008D02*
X13341063Y-20260531D01*
X13341063Y-20260531D02*
X13350587Y-20279579D01*
X13350587Y-20279579D02*
X13360111Y-20317674D01*
X13360111Y-20317674D02*
X13360111Y-20365293D01*
X13360111Y-20365293D02*
X13350587Y-20403389D01*
X13350587Y-20403389D02*
X13341063Y-20422436D01*
X13341063Y-20422436D02*
X13331539Y-20431960D01*
X13331539Y-20431960D02*
X13312492Y-20441484D01*
X13312492Y-20441484D02*
X13293444Y-20441484D01*
X13293444Y-20441484D02*
X13274396Y-20431960D01*
X13274396Y-20431960D02*
X13264873Y-20422436D01*
X13264873Y-20422436D02*
X13255349Y-20403389D01*
X13255349Y-20403389D02*
X13245825Y-20365293D01*
X13245825Y-20365293D02*
X13245825Y-20317674D01*
X13245825Y-20317674D02*
X13255349Y-20279579D01*
X13255349Y-20279579D02*
X13264873Y-20260531D01*
X13264873Y-20260531D02*
X13274396Y-20251008D01*
X13274396Y-20251008D02*
X13293444Y-20241484D01*
X13483920Y-20241484D02*
X13502968Y-20241484D01*
X13502968Y-20241484D02*
X13522015Y-20251008D01*
X13522015Y-20251008D02*
X13531539Y-20260531D01*
X13531539Y-20260531D02*
X13541063Y-20279579D01*
X13541063Y-20279579D02*
X13550587Y-20317674D01*
X13550587Y-20317674D02*
X13550587Y-20365293D01*
X13550587Y-20365293D02*
X13541063Y-20403389D01*
X13541063Y-20403389D02*
X13531539Y-20422436D01*
X13531539Y-20422436D02*
X13522015Y-20431960D01*
X13522015Y-20431960D02*
X13502968Y-20441484D01*
X13502968Y-20441484D02*
X13483920Y-20441484D01*
X13483920Y-20441484D02*
X13464873Y-20431960D01*
X13464873Y-20431960D02*
X13455349Y-20422436D01*
X13455349Y-20422436D02*
X13445825Y-20403389D01*
X13445825Y-20403389D02*
X13436301Y-20365293D01*
X13436301Y-20365293D02*
X13436301Y-20317674D01*
X13436301Y-20317674D02*
X13445825Y-20279579D01*
X13445825Y-20279579D02*
X13455349Y-20260531D01*
X13455349Y-20260531D02*
X13464873Y-20251008D01*
X13464873Y-20251008D02*
X13483920Y-20241484D01*
X13636301Y-20441484D02*
X13636301Y-20308150D01*
X13636301Y-20327198D02*
X13645825Y-20317674D01*
X13645825Y-20317674D02*
X13664873Y-20308150D01*
X13664873Y-20308150D02*
X13693444Y-20308150D01*
X13693444Y-20308150D02*
X13712492Y-20317674D01*
X13712492Y-20317674D02*
X13722015Y-20336722D01*
X13722015Y-20336722D02*
X13722015Y-20441484D01*
X13722015Y-20336722D02*
X13731539Y-20317674D01*
X13731539Y-20317674D02*
X13750587Y-20308150D01*
X13750587Y-20308150D02*
X13779158Y-20308150D01*
X13779158Y-20308150D02*
X13798206Y-20317674D01*
X13798206Y-20317674D02*
X13807730Y-20336722D01*
X13807730Y-20336722D02*
X13807730Y-20441484D01*
X13902968Y-20441484D02*
X13902968Y-20308150D01*
X13902968Y-20327198D02*
X13912492Y-20317674D01*
X13912492Y-20317674D02*
X13931539Y-20308150D01*
X13931539Y-20308150D02*
X13960111Y-20308150D01*
X13960111Y-20308150D02*
X13979158Y-20317674D01*
X13979158Y-20317674D02*
X13988682Y-20336722D01*
X13988682Y-20336722D02*
X13988682Y-20441484D01*
X13988682Y-20336722D02*
X13998206Y-20317674D01*
X13998206Y-20317674D02*
X14017254Y-20308150D01*
X14017254Y-20308150D02*
X14045825Y-20308150D01*
X14045825Y-20308150D02*
X14064873Y-20317674D01*
X14064873Y-20317674D02*
X14074396Y-20336722D01*
X14074396Y-20336722D02*
X14074396Y-20441484D01*
X14464873Y-20231960D02*
X14293444Y-20489103D01*
X14722016Y-20241484D02*
X14741063Y-20241484D01*
X14741063Y-20241484D02*
X14760111Y-20251008D01*
X14760111Y-20251008D02*
X14769635Y-20260531D01*
X14769635Y-20260531D02*
X14779158Y-20279579D01*
X14779158Y-20279579D02*
X14788682Y-20317674D01*
X14788682Y-20317674D02*
X14788682Y-20365293D01*
X14788682Y-20365293D02*
X14779158Y-20403389D01*
X14779158Y-20403389D02*
X14769635Y-20422436D01*
X14769635Y-20422436D02*
X14760111Y-20431960D01*
X14760111Y-20431960D02*
X14741063Y-20441484D01*
X14741063Y-20441484D02*
X14722016Y-20441484D01*
X14722016Y-20441484D02*
X14702968Y-20431960D01*
X14702968Y-20431960D02*
X14693444Y-20422436D01*
X14693444Y-20422436D02*
X14683920Y-20403389D01*
X14683920Y-20403389D02*
X14674397Y-20365293D01*
X14674397Y-20365293D02*
X14674397Y-20317674D01*
X14674397Y-20317674D02*
X14683920Y-20279579D01*
X14683920Y-20279579D02*
X14693444Y-20260531D01*
X14693444Y-20260531D02*
X14702968Y-20251008D01*
X14702968Y-20251008D02*
X14722016Y-20241484D01*
X14874397Y-20422436D02*
X14883920Y-20431960D01*
X14883920Y-20431960D02*
X14874397Y-20441484D01*
X14874397Y-20441484D02*
X14864873Y-20431960D01*
X14864873Y-20431960D02*
X14874397Y-20422436D01*
X14874397Y-20422436D02*
X14874397Y-20441484D01*
X15007730Y-20241484D02*
X15026778Y-20241484D01*
X15026778Y-20241484D02*
X15045825Y-20251008D01*
X15045825Y-20251008D02*
X15055349Y-20260531D01*
X15055349Y-20260531D02*
X15064873Y-20279579D01*
X15064873Y-20279579D02*
X15074397Y-20317674D01*
X15074397Y-20317674D02*
X15074397Y-20365293D01*
X15074397Y-20365293D02*
X15064873Y-20403389D01*
X15064873Y-20403389D02*
X15055349Y-20422436D01*
X15055349Y-20422436D02*
X15045825Y-20431960D01*
X15045825Y-20431960D02*
X15026778Y-20441484D01*
X15026778Y-20441484D02*
X15007730Y-20441484D01*
X15007730Y-20441484D02*
X14988682Y-20431960D01*
X14988682Y-20431960D02*
X14979158Y-20422436D01*
X14979158Y-20422436D02*
X14969635Y-20403389D01*
X14969635Y-20403389D02*
X14960111Y-20365293D01*
X14960111Y-20365293D02*
X14960111Y-20317674D01*
X14960111Y-20317674D02*
X14969635Y-20279579D01*
X14969635Y-20279579D02*
X14979158Y-20260531D01*
X14979158Y-20260531D02*
X14988682Y-20251008D01*
X14988682Y-20251008D02*
X15007730Y-20241484D01*
X15169635Y-20441484D02*
X15207730Y-20441484D01*
X15207730Y-20441484D02*
X15226778Y-20431960D01*
X15226778Y-20431960D02*
X15236301Y-20422436D01*
X15236301Y-20422436D02*
X15255349Y-20393865D01*
X15255349Y-20393865D02*
X15264873Y-20355770D01*
X15264873Y-20355770D02*
X15264873Y-20279579D01*
X15264873Y-20279579D02*
X15255349Y-20260531D01*
X15255349Y-20260531D02*
X15245825Y-20251008D01*
X15245825Y-20251008D02*
X15226778Y-20241484D01*
X15226778Y-20241484D02*
X15188682Y-20241484D01*
X15188682Y-20241484D02*
X15169635Y-20251008D01*
X15169635Y-20251008D02*
X15160111Y-20260531D01*
X15160111Y-20260531D02*
X15150587Y-20279579D01*
X15150587Y-20279579D02*
X15150587Y-20327198D01*
X15150587Y-20327198D02*
X15160111Y-20346246D01*
X15160111Y-20346246D02*
X15169635Y-20355770D01*
X15169635Y-20355770D02*
X15188682Y-20365293D01*
X15188682Y-20365293D02*
X15226778Y-20365293D01*
X15226778Y-20365293D02*
X15245825Y-20355770D01*
X15245825Y-20355770D02*
X15255349Y-20346246D01*
X15255349Y-20346246D02*
X15264873Y-20327198D01*
X15436301Y-20308150D02*
X15436301Y-20441484D01*
X15388682Y-20231960D02*
X15341063Y-20374817D01*
X15341063Y-20374817D02*
X15464873Y-20374817D01*
X15636301Y-20241484D02*
X15541063Y-20241484D01*
X15541063Y-20241484D02*
X15531539Y-20336722D01*
X15531539Y-20336722D02*
X15541063Y-20327198D01*
X15541063Y-20327198D02*
X15560111Y-20317674D01*
X15560111Y-20317674D02*
X15607730Y-20317674D01*
X15607730Y-20317674D02*
X15626778Y-20327198D01*
X15626778Y-20327198D02*
X15636301Y-20336722D01*
X15636301Y-20336722D02*
X15645825Y-20355770D01*
X15645825Y-20355770D02*
X15645825Y-20403389D01*
X15645825Y-20403389D02*
X15636301Y-20422436D01*
X15636301Y-20422436D02*
X15626778Y-20431960D01*
X15626778Y-20431960D02*
X15607730Y-20441484D01*
X15607730Y-20441484D02*
X15560111Y-20441484D01*
X15560111Y-20441484D02*
X15541063Y-20431960D01*
X15541063Y-20431960D02*
X15531539Y-20422436D01*
X15722016Y-20241484D02*
X15722016Y-20279579D01*
X15798206Y-20241484D02*
X15798206Y-20279579D01*
X16093444Y-20517674D02*
X16083920Y-20508150D01*
X16083920Y-20508150D02*
X16064873Y-20479579D01*
X16064873Y-20479579D02*
X16055349Y-20460531D01*
X16055349Y-20460531D02*
X16045825Y-20431960D01*
X16045825Y-20431960D02*
X16036301Y-20384341D01*
X16036301Y-20384341D02*
X16036301Y-20346246D01*
X16036301Y-20346246D02*
X16045825Y-20298627D01*
X16045825Y-20298627D02*
X16055349Y-20270055D01*
X16055349Y-20270055D02*
X16064873Y-20251008D01*
X16064873Y-20251008D02*
X16083920Y-20222436D01*
X16083920Y-20222436D02*
X16093444Y-20212912D01*
X16160111Y-20260531D02*
X16169635Y-20251008D01*
X16169635Y-20251008D02*
X16188682Y-20241484D01*
X16188682Y-20241484D02*
X16236301Y-20241484D01*
X16236301Y-20241484D02*
X16255349Y-20251008D01*
X16255349Y-20251008D02*
X16264873Y-20260531D01*
X16264873Y-20260531D02*
X16274397Y-20279579D01*
X16274397Y-20279579D02*
X16274397Y-20298627D01*
X16274397Y-20298627D02*
X16264873Y-20327198D01*
X16264873Y-20327198D02*
X16150587Y-20441484D01*
X16150587Y-20441484D02*
X16274397Y-20441484D01*
X16512492Y-20441484D02*
X16512492Y-20241484D01*
X16598206Y-20441484D02*
X16598206Y-20336722D01*
X16598206Y-20336722D02*
X16588682Y-20317674D01*
X16588682Y-20317674D02*
X16569635Y-20308150D01*
X16569635Y-20308150D02*
X16541063Y-20308150D01*
X16541063Y-20308150D02*
X16522016Y-20317674D01*
X16522016Y-20317674D02*
X16512492Y-20327198D01*
X16722016Y-20441484D02*
X16702968Y-20431960D01*
X16702968Y-20431960D02*
X16693444Y-20422436D01*
X16693444Y-20422436D02*
X16683921Y-20403389D01*
X16683921Y-20403389D02*
X16683921Y-20346246D01*
X16683921Y-20346246D02*
X16693444Y-20327198D01*
X16693444Y-20327198D02*
X16702968Y-20317674D01*
X16702968Y-20317674D02*
X16722016Y-20308150D01*
X16722016Y-20308150D02*
X16750587Y-20308150D01*
X16750587Y-20308150D02*
X16769635Y-20317674D01*
X16769635Y-20317674D02*
X16779159Y-20327198D01*
X16779159Y-20327198D02*
X16788683Y-20346246D01*
X16788683Y-20346246D02*
X16788683Y-20403389D01*
X16788683Y-20403389D02*
X16779159Y-20422436D01*
X16779159Y-20422436D02*
X16769635Y-20431960D01*
X16769635Y-20431960D02*
X16750587Y-20441484D01*
X16750587Y-20441484D02*
X16722016Y-20441484D01*
X16902968Y-20441484D02*
X16883921Y-20431960D01*
X16883921Y-20431960D02*
X16874397Y-20412912D01*
X16874397Y-20412912D02*
X16874397Y-20241484D01*
X17055349Y-20431960D02*
X17036302Y-20441484D01*
X17036302Y-20441484D02*
X16998206Y-20441484D01*
X16998206Y-20441484D02*
X16979159Y-20431960D01*
X16979159Y-20431960D02*
X16969635Y-20412912D01*
X16969635Y-20412912D02*
X16969635Y-20336722D01*
X16969635Y-20336722D02*
X16979159Y-20317674D01*
X16979159Y-20317674D02*
X16998206Y-20308150D01*
X16998206Y-20308150D02*
X17036302Y-20308150D01*
X17036302Y-20308150D02*
X17055349Y-20317674D01*
X17055349Y-20317674D02*
X17064873Y-20336722D01*
X17064873Y-20336722D02*
X17064873Y-20355770D01*
X17064873Y-20355770D02*
X16969635Y-20374817D01*
X17141064Y-20431960D02*
X17160111Y-20441484D01*
X17160111Y-20441484D02*
X17198206Y-20441484D01*
X17198206Y-20441484D02*
X17217254Y-20431960D01*
X17217254Y-20431960D02*
X17226778Y-20412912D01*
X17226778Y-20412912D02*
X17226778Y-20403389D01*
X17226778Y-20403389D02*
X17217254Y-20384341D01*
X17217254Y-20384341D02*
X17198206Y-20374817D01*
X17198206Y-20374817D02*
X17169635Y-20374817D01*
X17169635Y-20374817D02*
X17150587Y-20365293D01*
X17150587Y-20365293D02*
X17141064Y-20346246D01*
X17141064Y-20346246D02*
X17141064Y-20336722D01*
X17141064Y-20336722D02*
X17150587Y-20317674D01*
X17150587Y-20317674D02*
X17169635Y-20308150D01*
X17169635Y-20308150D02*
X17198206Y-20308150D01*
X17198206Y-20308150D02*
X17217254Y-20317674D01*
X17293445Y-20517674D02*
X17302968Y-20508150D01*
X17302968Y-20508150D02*
X17322016Y-20479579D01*
X17322016Y-20479579D02*
X17331540Y-20460531D01*
X17331540Y-20460531D02*
X17341064Y-20431960D01*
X17341064Y-20431960D02*
X17350587Y-20384341D01*
X17350587Y-20384341D02*
X17350587Y-20346246D01*
X17350587Y-20346246D02*
X17341064Y-20298627D01*
X17341064Y-20298627D02*
X17331540Y-20270055D01*
X17331540Y-20270055D02*
X17322016Y-20251008D01*
X17322016Y-20251008D02*
X17302968Y-20222436D01*
X17302968Y-20222436D02*
X17293445Y-20212912D01*
M02*
