%TF.GenerationSoftware,KiCad,Pcbnew,8.0.5*%
%TF.CreationDate,2025-02-18T01:30:19+08:00*%
%TF.ProjectId,troubleSeeker,74726f75-626c-4655-9365-656b65722e6b,rev?*%
%TF.SameCoordinates,Original*%
%TF.FileFunction,Legend,Bot*%
%TF.FilePolarity,Positive*%
%FSLAX46Y46*%
G04 Gerber Fmt 4.6, Leading zero omitted, Abs format (unit mm)*
G04 Created by KiCad (PCBNEW 8.0.5) date 2025-02-18 01:30:19*
%MOMM*%
%LPD*%
G01*
G04 APERTURE LIST*
%ADD10C,0.000000*%
%ADD11C,0.120000*%
G04 APERTURE END LIST*
D10*
G36*
X146037609Y-79418022D02*
G01*
X146532060Y-79458798D01*
X147001307Y-79537179D01*
X147225421Y-79591436D01*
X147441960Y-79656252D01*
X147650503Y-79732014D01*
X147850624Y-79819112D01*
X148041905Y-79917932D01*
X148223915Y-80028858D01*
X148396231Y-80152274D01*
X148558436Y-80288574D01*
X148710096Y-80438138D01*
X148850792Y-80601353D01*
X148980102Y-80778612D01*
X149097600Y-80970296D01*
X149202861Y-81176796D01*
X149295464Y-81398491D01*
X149374983Y-81635774D01*
X149440995Y-81889032D01*
X149493076Y-82158647D01*
X149530802Y-82445010D01*
X149553746Y-82748502D01*
X149561490Y-83069517D01*
X149552002Y-83372545D01*
X149523796Y-83676654D01*
X149477250Y-83980765D01*
X149412744Y-84283791D01*
X149330658Y-84584646D01*
X149231369Y-84882244D01*
X149115261Y-85175504D01*
X148982714Y-85463337D01*
X148834103Y-85744658D01*
X148669813Y-86018383D01*
X148490220Y-86283425D01*
X148295707Y-86538701D01*
X148086651Y-86783127D01*
X147863434Y-87015612D01*
X147626435Y-87235079D01*
X147376035Y-87440437D01*
X147510981Y-87506306D01*
X147641489Y-87575419D01*
X147767568Y-87647757D01*
X147889227Y-87723315D01*
X148006478Y-87802071D01*
X148119332Y-87884015D01*
X148227794Y-87969132D01*
X148331883Y-88057413D01*
X148431601Y-88148838D01*
X148526961Y-88243399D01*
X148617975Y-88341076D01*
X148704650Y-88441862D01*
X148786999Y-88545741D01*
X148865030Y-88652700D01*
X148938753Y-88762726D01*
X149008182Y-88875800D01*
X149073324Y-88991916D01*
X149134190Y-89111056D01*
X149190788Y-89233207D01*
X149243130Y-89358355D01*
X149291226Y-89486490D01*
X149335091Y-89617595D01*
X149374724Y-89751655D01*
X149410143Y-89888659D01*
X149441361Y-90028597D01*
X149468380Y-90171447D01*
X149491214Y-90317201D01*
X149509875Y-90465845D01*
X149524370Y-90617365D01*
X149534712Y-90771747D01*
X149542973Y-91089045D01*
X149532587Y-91351808D01*
X149508501Y-91611968D01*
X149470902Y-91869089D01*
X149419983Y-92122739D01*
X149355935Y-92372479D01*
X149278944Y-92617883D01*
X149189202Y-92858506D01*
X149086898Y-93093927D01*
X148972224Y-93323699D01*
X148845367Y-93547395D01*
X148706519Y-93764583D01*
X148555870Y-93974823D01*
X148393607Y-94177683D01*
X148219927Y-94372733D01*
X148035010Y-94559532D01*
X147839054Y-94737652D01*
X147839054Y-94830241D01*
X147857563Y-94830242D01*
X149098462Y-94626516D01*
X149098461Y-98589970D01*
X135226357Y-100793944D01*
X135226357Y-96830489D01*
X142042021Y-95756280D01*
X142649122Y-95662700D01*
X143339351Y-95535478D01*
X143699834Y-95453082D01*
X144062135Y-95354867D01*
X144419930Y-95238363D01*
X144766903Y-95101108D01*
X145096728Y-94940628D01*
X145253234Y-94850909D01*
X145403085Y-94754456D01*
X145545490Y-94650966D01*
X145679655Y-94540124D01*
X145804793Y-94421625D01*
X145920113Y-94295161D01*
X146024828Y-94160423D01*
X146118142Y-94017101D01*
X146199269Y-93864887D01*
X146267415Y-93703472D01*
X146321795Y-93532548D01*
X146361616Y-93351805D01*
X146386087Y-93160937D01*
X146394421Y-92959635D01*
X146386410Y-92774622D01*
X146362892Y-92604676D01*
X146324634Y-92449242D01*
X146272408Y-92307753D01*
X146206983Y-92179651D01*
X146129128Y-92064382D01*
X146039616Y-91961380D01*
X145939214Y-91870091D01*
X145828692Y-91789947D01*
X145708821Y-91720398D01*
X145580368Y-91660880D01*
X145444108Y-91610835D01*
X145300805Y-91569700D01*
X145151232Y-91536918D01*
X144996160Y-91511931D01*
X144836355Y-91494176D01*
X144672592Y-91483095D01*
X144505635Y-91478129D01*
X144165229Y-91484301D01*
X143821298Y-91508215D01*
X143479995Y-91545399D01*
X143147483Y-91591370D01*
X142829920Y-91641654D01*
X142264274Y-91737261D01*
X135226357Y-92848508D01*
X135226359Y-88885054D01*
X142042021Y-87810849D01*
X142643806Y-87713396D01*
X142980129Y-87650915D01*
X143331537Y-87576444D01*
X143691624Y-87487864D01*
X144053993Y-87383058D01*
X144412238Y-87259914D01*
X144759955Y-87116314D01*
X145090746Y-86950141D01*
X145247790Y-86857930D01*
X145398202Y-86759281D01*
X145541181Y-86653933D01*
X145675924Y-86541618D01*
X145801634Y-86422071D01*
X145917509Y-86295031D01*
X146022749Y-86160231D01*
X146116555Y-86017411D01*
X146198124Y-85866299D01*
X146266656Y-85706633D01*
X146321352Y-85538152D01*
X146361412Y-85360589D01*
X146386037Y-85173681D01*
X146394421Y-84977159D01*
X146387154Y-84801926D01*
X146365804Y-84640515D01*
X146331044Y-84492420D01*
X146283548Y-84357148D01*
X146223995Y-84234192D01*
X146153059Y-84123049D01*
X146071410Y-84023224D01*
X145979728Y-83934210D01*
X145878687Y-83855501D01*
X145768959Y-83786603D01*
X145651220Y-83727009D01*
X145526148Y-83676220D01*
X145394414Y-83633730D01*
X145256696Y-83599044D01*
X145113666Y-83571652D01*
X144966003Y-83551059D01*
X144814376Y-83536761D01*
X144659461Y-83528249D01*
X144342477Y-83526605D01*
X144020447Y-83542105D01*
X143698770Y-83570737D01*
X143382844Y-83608481D01*
X143078069Y-83651328D01*
X142523566Y-83736261D01*
X135226359Y-84884562D01*
X135226356Y-80921099D01*
X143875590Y-79569084D01*
X144436945Y-79490381D01*
X144986659Y-79436906D01*
X145521347Y-79411757D01*
X146037609Y-79418022D01*
G37*
G36*
X149246902Y-112213525D02*
G01*
X149282400Y-112301170D01*
X149316001Y-112391423D01*
X149347622Y-112484064D01*
X149377180Y-112578875D01*
X149404595Y-112675639D01*
X149429785Y-112774139D01*
X149452669Y-112874160D01*
X149473166Y-112975482D01*
X149491194Y-113077888D01*
X149506673Y-113181165D01*
X149519520Y-113285093D01*
X149529650Y-113389453D01*
X149536988Y-113494028D01*
X149541452Y-113598605D01*
X149542957Y-113702966D01*
X149534969Y-113975110D01*
X149511161Y-114242746D01*
X149471781Y-114505719D01*
X149417073Y-114763864D01*
X149347279Y-115017016D01*
X149262649Y-115265011D01*
X149163419Y-115507691D01*
X149049839Y-115744890D01*
X148922152Y-115976447D01*
X148780598Y-116202194D01*
X148625427Y-116421977D01*
X148456881Y-116635625D01*
X148275205Y-116842982D01*
X148080640Y-117043881D01*
X147873433Y-117238162D01*
X147653829Y-117425657D01*
X147653830Y-117481215D01*
X147653834Y-117481215D01*
X149098456Y-117258963D01*
X149098457Y-121222422D01*
X135226352Y-123426405D01*
X135226351Y-119462942D01*
X141467881Y-118481341D01*
X141873302Y-118414292D01*
X142281278Y-118336505D01*
X142687839Y-118245472D01*
X143089030Y-118138705D01*
X143480889Y-118013709D01*
X143859454Y-117867984D01*
X144220765Y-117699035D01*
X144560858Y-117504368D01*
X144721711Y-117396609D01*
X144875774Y-117281485D01*
X145022554Y-117158681D01*
X145161555Y-117027889D01*
X145292281Y-116888796D01*
X145414238Y-116741090D01*
X145526926Y-116584456D01*
X145629856Y-116418585D01*
X145722533Y-116243163D01*
X145804458Y-116057881D01*
X145875138Y-115862422D01*
X145934077Y-115656480D01*
X145980780Y-115439740D01*
X146014753Y-115211889D01*
X146035500Y-114972618D01*
X146042525Y-114721610D01*
X146043626Y-114617461D01*
X146040030Y-114513469D01*
X146031822Y-114409808D01*
X146019086Y-114306632D01*
X146001899Y-114204106D01*
X145980342Y-114102396D01*
X145954502Y-114001661D01*
X145924455Y-113902067D01*
X145890286Y-113803778D01*
X145852072Y-113706947D01*
X145809899Y-113611750D01*
X145763843Y-113518339D01*
X145713993Y-113426883D01*
X145660423Y-113337546D01*
X145603221Y-113250485D01*
X145542460Y-113165864D01*
X149209582Y-112128699D01*
X149246902Y-112213525D01*
G37*
G36*
X143986715Y-100306727D02*
G01*
X144256644Y-100309880D01*
X144951529Y-100372605D01*
X145286425Y-100424719D01*
X145612336Y-100490891D01*
X145928794Y-100571279D01*
X146235326Y-100666042D01*
X146531470Y-100775350D01*
X146816751Y-100899361D01*
X147090709Y-101038241D01*
X147352871Y-101192151D01*
X147602770Y-101361254D01*
X147839937Y-101545709D01*
X148063905Y-101745685D01*
X148274210Y-101961342D01*
X148470377Y-102192843D01*
X148651940Y-102440353D01*
X148818434Y-102704029D01*
X148969390Y-102984039D01*
X149104339Y-103280546D01*
X149222813Y-103593708D01*
X149324344Y-103923692D01*
X149408466Y-104270661D01*
X149474707Y-104634776D01*
X149522602Y-105016196D01*
X149551681Y-105415092D01*
X149561478Y-105831621D01*
X149551840Y-106248382D01*
X149523221Y-106654779D01*
X149476064Y-107050751D01*
X149410818Y-107436240D01*
X149327920Y-107811189D01*
X149227818Y-108175541D01*
X149110957Y-108529234D01*
X148977783Y-108872220D01*
X148828735Y-109204432D01*
X148664262Y-109525817D01*
X148484806Y-109836314D01*
X148290811Y-110135867D01*
X148082724Y-110424423D01*
X147860983Y-110701915D01*
X147626039Y-110968295D01*
X147378335Y-111223498D01*
X147118312Y-111467471D01*
X146846417Y-111700152D01*
X146563092Y-111921487D01*
X146268784Y-112131416D01*
X145963935Y-112329885D01*
X145648992Y-112516832D01*
X145324396Y-112692200D01*
X144990592Y-112855937D01*
X144297141Y-113148267D01*
X143572191Y-113393365D01*
X142819300Y-113590772D01*
X142042017Y-113740017D01*
X141651293Y-113792724D01*
X141267646Y-113829364D01*
X140891427Y-113850043D01*
X140522985Y-113854872D01*
X140162668Y-113843948D01*
X139810823Y-113817382D01*
X139467802Y-113775274D01*
X139133957Y-113717737D01*
X138809633Y-113644866D01*
X138495182Y-113556776D01*
X138190952Y-113453566D01*
X137897292Y-113335347D01*
X137614554Y-113202215D01*
X137343085Y-113054282D01*
X137083232Y-112891652D01*
X136835347Y-112714428D01*
X136599781Y-112522715D01*
X136376881Y-112316621D01*
X136166997Y-112096252D01*
X135970475Y-111861708D01*
X135787670Y-111613098D01*
X135618929Y-111350525D01*
X135464598Y-111074100D01*
X135325032Y-110783919D01*
X135200576Y-110480091D01*
X135091580Y-110162725D01*
X134998397Y-109831920D01*
X134921372Y-109487787D01*
X134860855Y-109130425D01*
X134817198Y-108759944D01*
X134790746Y-108376444D01*
X134781852Y-107980038D01*
X134800002Y-107437690D01*
X134854125Y-106902066D01*
X134943737Y-106374694D01*
X135068343Y-105857084D01*
X135227463Y-105350764D01*
X135420601Y-104857249D01*
X135647272Y-104378059D01*
X135906991Y-103914714D01*
X136199262Y-103468731D01*
X136523602Y-103041630D01*
X136879523Y-102634932D01*
X137266534Y-102250155D01*
X137684148Y-101888819D01*
X138131876Y-101552442D01*
X138609229Y-101242544D01*
X139115725Y-100960647D01*
X139708393Y-104516648D01*
X139504048Y-104651662D01*
X139308169Y-104792865D01*
X139121407Y-104940363D01*
X138944408Y-105094262D01*
X138777828Y-105254675D01*
X138622319Y-105421704D01*
X138478528Y-105595465D01*
X138347111Y-105776060D01*
X138228713Y-105963601D01*
X138174603Y-106060013D01*
X138123994Y-106158199D01*
X138076962Y-106258174D01*
X138033594Y-106359957D01*
X137993970Y-106463553D01*
X137958172Y-106568986D01*
X137926282Y-106676260D01*
X137898377Y-106785392D01*
X137874544Y-106896399D01*
X137854860Y-107009286D01*
X137839409Y-107124077D01*
X137828273Y-107240781D01*
X137821531Y-107359408D01*
X137819265Y-107479978D01*
X137821641Y-107671118D01*
X137835433Y-107852262D01*
X137860233Y-108023617D01*
X137895631Y-108185395D01*
X137941217Y-108337797D01*
X137996580Y-108481035D01*
X138061308Y-108615313D01*
X138134994Y-108740839D01*
X138217225Y-108857817D01*
X138307591Y-108966456D01*
X138405682Y-109066964D01*
X138511089Y-109159544D01*
X138623402Y-109244410D01*
X138742207Y-109321760D01*
X138867097Y-109391810D01*
X138997660Y-109454757D01*
X139133485Y-109510815D01*
X139274165Y-109560186D01*
X139419286Y-109603084D01*
X139568440Y-109639712D01*
X139721217Y-109670274D01*
X139877204Y-109694978D01*
X140035992Y-109714035D01*
X140197171Y-109727647D01*
X140360332Y-109736026D01*
X140525061Y-109739372D01*
X140857591Y-109731805D01*
X141191478Y-109706609D01*
X141523436Y-109665426D01*
X141523436Y-103849887D01*
X143986714Y-103849887D01*
X143986715Y-109146842D01*
X144256189Y-109059199D01*
X144521645Y-108956171D01*
X144781244Y-108838005D01*
X145033139Y-108704949D01*
X145275481Y-108557237D01*
X145506432Y-108395120D01*
X145724142Y-108218844D01*
X145926769Y-108028647D01*
X146112466Y-107824780D01*
X146198389Y-107717793D01*
X146279388Y-107607478D01*
X146355234Y-107493870D01*
X146425692Y-107376995D01*
X146490539Y-107256887D01*
X146549533Y-107133570D01*
X146602452Y-107007080D01*
X146649066Y-106877450D01*
X146689138Y-106744703D01*
X146722443Y-106608876D01*
X146748749Y-106469996D01*
X146767824Y-106328092D01*
X146779435Y-106183198D01*
X146783359Y-106035345D01*
X146779332Y-105895405D01*
X146767416Y-105760323D01*
X146747864Y-105630078D01*
X146720925Y-105504646D01*
X146686850Y-105383999D01*
X146645890Y-105268119D01*
X146598298Y-105156979D01*
X146544325Y-105050558D01*
X146484219Y-104948828D01*
X146418233Y-104851771D01*
X146346617Y-104759358D01*
X146269623Y-104671567D01*
X146187501Y-104588376D01*
X146100503Y-104509759D01*
X146008879Y-104435694D01*
X145912880Y-104366156D01*
X145812757Y-104301121D01*
X145708761Y-104240563D01*
X145601144Y-104184466D01*
X145490158Y-104132799D01*
X145376049Y-104085542D01*
X145259072Y-104042669D01*
X145139475Y-104004156D01*
X145017513Y-103969982D01*
X144893435Y-103940121D01*
X144767491Y-103914550D01*
X144511012Y-103876184D01*
X144250084Y-103854695D01*
X143986714Y-103849887D01*
X141523436Y-103849887D01*
X141523436Y-100534660D01*
X142004981Y-100442061D01*
X142779626Y-100345910D01*
X143531429Y-100301416D01*
X143986715Y-100306727D01*
G37*
G36*
X143986713Y-65450606D02*
G01*
X144256644Y-65453791D01*
X144951529Y-65516684D01*
X145286426Y-65568920D01*
X145612337Y-65635245D01*
X145928793Y-65715818D01*
X146235327Y-65810809D01*
X146531469Y-65920382D01*
X146816751Y-66044703D01*
X147090709Y-66183938D01*
X147352872Y-66338255D01*
X147602770Y-66507818D01*
X147839936Y-66692794D01*
X148063905Y-66893352D01*
X148274210Y-67109655D01*
X148470376Y-67341867D01*
X148651941Y-67590160D01*
X148818435Y-67854698D01*
X148969392Y-68135644D01*
X149104339Y-68433167D01*
X149222813Y-68747431D01*
X149324344Y-69078607D01*
X149408465Y-69426857D01*
X149474707Y-69792347D01*
X149522601Y-70175245D01*
X149551681Y-70575716D01*
X149561478Y-70993928D01*
X149551841Y-71410691D01*
X149523223Y-71817088D01*
X149476063Y-72213057D01*
X149410817Y-72598549D01*
X149327919Y-72973497D01*
X149227818Y-73337848D01*
X149110959Y-73691546D01*
X148977783Y-74034527D01*
X148828735Y-74366739D01*
X148664263Y-74688124D01*
X148484807Y-74998620D01*
X148290810Y-75298176D01*
X148082723Y-75586731D01*
X147860983Y-75864225D01*
X147626039Y-76130602D01*
X147378336Y-76385806D01*
X147118312Y-76629778D01*
X146846415Y-76862458D01*
X146563092Y-77083794D01*
X146268783Y-77293724D01*
X145963935Y-77492192D01*
X145648991Y-77679141D01*
X145324396Y-77854511D01*
X144990592Y-78018244D01*
X144297140Y-78310576D01*
X143572192Y-78555673D01*
X142819299Y-78753077D01*
X142042017Y-78902324D01*
X141651294Y-78955030D01*
X141267646Y-78991667D01*
X140891427Y-79012347D01*
X140522983Y-79017175D01*
X140162668Y-79006255D01*
X139810823Y-78979688D01*
X139467802Y-78937580D01*
X139133956Y-78880041D01*
X138809634Y-78807174D01*
X138495182Y-78719085D01*
X138190952Y-78615873D01*
X137897293Y-78497654D01*
X137614553Y-78364522D01*
X137343083Y-78216588D01*
X137083231Y-78053960D01*
X136835347Y-77876735D01*
X136599780Y-77685025D01*
X136376880Y-77478930D01*
X136166995Y-77258559D01*
X135970474Y-77024018D01*
X135787670Y-76775407D01*
X135618930Y-76512838D01*
X135464599Y-76236408D01*
X135325032Y-75946226D01*
X135200578Y-75642403D01*
X135091581Y-75325033D01*
X134998396Y-74994229D01*
X134921373Y-74650095D01*
X134860855Y-74292732D01*
X134817196Y-73922251D01*
X134790745Y-73538755D01*
X134781850Y-73142344D01*
X134800000Y-72600000D01*
X134854125Y-72064412D01*
X134943736Y-71537123D01*
X135068343Y-71019685D01*
X135227462Y-70513639D01*
X135420601Y-70020536D01*
X135647274Y-69541921D01*
X135906991Y-69079336D01*
X136199262Y-68634336D01*
X136523602Y-68208461D01*
X136879523Y-67803257D01*
X137266534Y-67420276D01*
X137684149Y-67061060D01*
X138131877Y-66727155D01*
X138609229Y-66420111D01*
X139115723Y-66141468D01*
X139708394Y-69697471D01*
X139504048Y-69832488D01*
X139308169Y-69973691D01*
X139121408Y-70121191D01*
X138944408Y-70275088D01*
X138777828Y-70435501D01*
X138622320Y-70602532D01*
X138478529Y-70776289D01*
X138347112Y-70956887D01*
X138228713Y-71144427D01*
X138174603Y-71240837D01*
X138123994Y-71339025D01*
X138076962Y-71439000D01*
X138033594Y-71540783D01*
X137993970Y-71644380D01*
X137958172Y-71749808D01*
X137926281Y-71857085D01*
X137898376Y-71966216D01*
X137874543Y-72077224D01*
X137854861Y-72190113D01*
X137839412Y-72304904D01*
X137828272Y-72421607D01*
X137821532Y-72540236D01*
X137819268Y-72660806D01*
X137821640Y-72850207D01*
X137835432Y-73029619D01*
X137860234Y-73199253D01*
X137895631Y-73359314D01*
X137941217Y-73510016D01*
X137996580Y-73651567D01*
X138061310Y-73784183D01*
X138134994Y-73908066D01*
X138217227Y-74023434D01*
X138307590Y-74130486D01*
X138405683Y-74229446D01*
X138511089Y-74320516D01*
X138623401Y-74403910D01*
X138742207Y-74479833D01*
X138867096Y-74548500D01*
X138997660Y-74610123D01*
X139133486Y-74664906D01*
X139274165Y-74713062D01*
X139419286Y-74754803D01*
X139568441Y-74790340D01*
X139721216Y-74819877D01*
X139877203Y-74843630D01*
X140035992Y-74861809D01*
X140197172Y-74874623D01*
X140360332Y-74882283D01*
X140525061Y-74884995D01*
X140857591Y-74876430D01*
X141191476Y-74850612D01*
X141523436Y-74809223D01*
X141523436Y-74309161D01*
X143986714Y-74309161D01*
X144256186Y-74221514D01*
X144521645Y-74118488D01*
X144781243Y-74000324D01*
X145033139Y-73867263D01*
X145275482Y-73719553D01*
X145506432Y-73557439D01*
X145724141Y-73381160D01*
X145926769Y-73190965D01*
X146112466Y-72987094D01*
X146198389Y-72880107D01*
X146279389Y-72769794D01*
X146355233Y-72656186D01*
X146425692Y-72539312D01*
X146490536Y-72419202D01*
X146549535Y-72295888D01*
X146602452Y-72169396D01*
X146649064Y-72039763D01*
X146689138Y-71907017D01*
X146722443Y-71771190D01*
X146748749Y-71632310D01*
X146767822Y-71490404D01*
X146779435Y-71345512D01*
X146783358Y-71197656D01*
X146779331Y-71057716D01*
X146767416Y-70922637D01*
X146747863Y-70792388D01*
X146720923Y-70666955D01*
X146686851Y-70546312D01*
X146645890Y-70430429D01*
X146598300Y-70319294D01*
X146544325Y-70212872D01*
X146484221Y-70111143D01*
X146418232Y-70014083D01*
X146346617Y-69921672D01*
X146269623Y-69833881D01*
X146187501Y-69750690D01*
X146100503Y-69672073D01*
X146008879Y-69598008D01*
X145912880Y-69528470D01*
X145812757Y-69463435D01*
X145708761Y-69402878D01*
X145601145Y-69346778D01*
X145490158Y-69295113D01*
X145376049Y-69247856D01*
X145259072Y-69204983D01*
X145139475Y-69166470D01*
X145017513Y-69132296D01*
X144893435Y-69102435D01*
X144767491Y-69076867D01*
X144511012Y-69038498D01*
X144250084Y-69017009D01*
X143986714Y-69012201D01*
X143986714Y-74309161D01*
X141523436Y-74309161D01*
X141523437Y-65678449D01*
X142004980Y-65585848D01*
X142779626Y-65489702D01*
X143531429Y-65445239D01*
X143986713Y-65450606D01*
G37*
G36*
X149098457Y-141669430D02*
G01*
X141578999Y-142854769D01*
X141280463Y-142907143D01*
X140977397Y-142968174D01*
X140673083Y-143039567D01*
X140370805Y-143123035D01*
X140073843Y-143220281D01*
X139785481Y-143333021D01*
X139509003Y-143462961D01*
X139247688Y-143611808D01*
X139123745Y-143693859D01*
X139004826Y-143781277D01*
X138891338Y-143874277D01*
X138783690Y-143973071D01*
X138682300Y-144077875D01*
X138587572Y-144188904D01*
X138499919Y-144306368D01*
X138419751Y-144430486D01*
X138347476Y-144561461D01*
X138283507Y-144699519D01*
X138228254Y-144844866D01*
X138182127Y-144997718D01*
X138145535Y-145158287D01*
X138118891Y-145326788D01*
X138102604Y-145503439D01*
X138097084Y-145688446D01*
X138102551Y-145870003D01*
X138118688Y-146039859D01*
X138145093Y-146198351D01*
X138181367Y-146345826D01*
X138227109Y-146482628D01*
X138281920Y-146609093D01*
X138345399Y-146725567D01*
X138417147Y-146832396D01*
X138496762Y-146929919D01*
X138583843Y-147018476D01*
X138677992Y-147098417D01*
X138778808Y-147170077D01*
X138885893Y-147233800D01*
X138998846Y-147289934D01*
X139117261Y-147338813D01*
X139240744Y-147380787D01*
X139368896Y-147416194D01*
X139501313Y-147445379D01*
X139637595Y-147468685D01*
X139777344Y-147486451D01*
X139920158Y-147499021D01*
X140065638Y-147506739D01*
X140213383Y-147509947D01*
X140362991Y-147508986D01*
X140666208Y-147495934D01*
X140972081Y-147470318D01*
X141277411Y-147434882D01*
X141578999Y-147392368D01*
X149098457Y-146207029D01*
X149098457Y-150170494D01*
X140930767Y-151466950D01*
X140557843Y-151520668D01*
X140196138Y-151560290D01*
X139845691Y-151585823D01*
X139506544Y-151597283D01*
X139178739Y-151594672D01*
X138862315Y-151578009D01*
X138557310Y-151547295D01*
X138263771Y-151502546D01*
X137981732Y-151443768D01*
X137711239Y-151370975D01*
X137452329Y-151284179D01*
X137205046Y-151183387D01*
X136969428Y-151068608D01*
X136745515Y-150939852D01*
X136533352Y-150797132D01*
X136332976Y-150640458D01*
X136144427Y-150469837D01*
X135967751Y-150285284D01*
X135802981Y-150086804D01*
X135650164Y-149874411D01*
X135509339Y-149648113D01*
X135380545Y-149407920D01*
X135263824Y-149153848D01*
X135159218Y-148885898D01*
X135066765Y-148604083D01*
X134986506Y-148308417D01*
X134918487Y-147998911D01*
X134862739Y-147675565D01*
X134819311Y-147338401D01*
X134788240Y-146987422D01*
X134769568Y-146622643D01*
X134763335Y-146244070D01*
X134788240Y-145489654D01*
X134819311Y-145127456D01*
X134862740Y-144775282D01*
X134918486Y-144433149D01*
X134986507Y-144101063D01*
X135066765Y-143779046D01*
X135159217Y-143467105D01*
X135263824Y-143165259D01*
X135380545Y-142873515D01*
X135509339Y-142591893D01*
X135650165Y-142320405D01*
X135802981Y-142059061D01*
X135967749Y-141807879D01*
X136144428Y-141566873D01*
X136332976Y-141336050D01*
X136533351Y-141115429D01*
X136745515Y-140905025D01*
X136969428Y-140704844D01*
X137205046Y-140514911D01*
X137452329Y-140335228D01*
X137711238Y-140165815D01*
X137981734Y-140006687D01*
X138263770Y-139857851D01*
X138557309Y-139719328D01*
X138862315Y-139591125D01*
X139178740Y-139473262D01*
X139506545Y-139365745D01*
X140196137Y-139181821D01*
X140930769Y-139039462D01*
X149098456Y-137743005D01*
X149098457Y-141669430D01*
G37*
G36*
X154862695Y-151016042D02*
G01*
X154993484Y-151128538D01*
X155121085Y-151248454D01*
X155245426Y-151375432D01*
X155484018Y-151649129D01*
X155708661Y-151946753D01*
X155918766Y-152265434D01*
X156113733Y-152602289D01*
X156292963Y-152954445D01*
X156455861Y-153319030D01*
X156601831Y-153693162D01*
X156730273Y-154073969D01*
X156840595Y-154458575D01*
X156932196Y-154844104D01*
X157004480Y-155227680D01*
X157056849Y-155606425D01*
X157088710Y-155977467D01*
X157099463Y-156337931D01*
X157091171Y-156673196D01*
X157066565Y-157005064D01*
X157026042Y-157333166D01*
X156969996Y-157657140D01*
X156898826Y-157976625D01*
X156812927Y-158291259D01*
X156712696Y-158600673D01*
X156598533Y-158904509D01*
X156470827Y-159202408D01*
X156329983Y-159493998D01*
X156176394Y-159778923D01*
X156010458Y-160056818D01*
X155832572Y-160327320D01*
X155643132Y-160590066D01*
X155442531Y-160844689D01*
X155231172Y-161090835D01*
X155009450Y-161328138D01*
X154777762Y-161556228D01*
X154536500Y-161774754D01*
X154286067Y-161983343D01*
X154026858Y-162181637D01*
X153759269Y-162369275D01*
X153483695Y-162545887D01*
X153200539Y-162711119D01*
X152910189Y-162864600D01*
X152613047Y-163005972D01*
X152309510Y-163134870D01*
X151999974Y-163250931D01*
X151684835Y-163353798D01*
X151364491Y-163443099D01*
X151039337Y-163518477D01*
X150709772Y-163579568D01*
X150404617Y-163623082D01*
X150110540Y-163653110D01*
X149827236Y-163669955D01*
X149554391Y-163673910D01*
X149291692Y-163665280D01*
X149038828Y-163644356D01*
X148795487Y-163611443D01*
X148561357Y-163566836D01*
X148336126Y-163510839D01*
X148119478Y-163443737D01*
X147911109Y-163365843D01*
X147710704Y-163277449D01*
X147517945Y-163178855D01*
X147332525Y-163070354D01*
X147154133Y-162952252D01*
X146982456Y-162824844D01*
X146817182Y-162688429D01*
X146658001Y-162543307D01*
X146504594Y-162389773D01*
X146356655Y-162228125D01*
X146075932Y-161881694D01*
X145813328Y-161506392D01*
X145566354Y-161104613D01*
X145332511Y-160678747D01*
X145109302Y-160231172D01*
X144894231Y-159764283D01*
X144648904Y-159162535D01*
X144521056Y-158858854D01*
X144386646Y-158558399D01*
X144243338Y-158265001D01*
X144088795Y-157982481D01*
X143920686Y-157714664D01*
X143736680Y-157465378D01*
X143637985Y-157348882D01*
X143534442Y-157238448D01*
X143425759Y-157134562D01*
X143311644Y-157037701D01*
X143191800Y-156948337D01*
X143065943Y-156866956D01*
X142933776Y-156794035D01*
X142795011Y-156730047D01*
X142649355Y-156675473D01*
X142496517Y-156630792D01*
X142336204Y-156596481D01*
X142168125Y-156573021D01*
X141991988Y-156560886D01*
X141807501Y-156560555D01*
X141614376Y-156572509D01*
X141412316Y-156597227D01*
X141106147Y-156657842D01*
X140806952Y-156741850D01*
X140516493Y-156848317D01*
X140236532Y-156976325D01*
X139968838Y-157124954D01*
X139715164Y-157293277D01*
X139594139Y-157384537D01*
X139477282Y-157480376D01*
X139364813Y-157580675D01*
X139256953Y-157685326D01*
X139153923Y-157794206D01*
X139055942Y-157907206D01*
X138963230Y-158024202D01*
X138876010Y-158145089D01*
X138794501Y-158269747D01*
X138718922Y-158398060D01*
X138649496Y-158529912D01*
X138586442Y-158665190D01*
X138529980Y-158803781D01*
X138480333Y-158945564D01*
X138437716Y-159090425D01*
X138402354Y-159238250D01*
X138374466Y-159388926D01*
X138354274Y-159542332D01*
X138341998Y-159698358D01*
X138337857Y-159856887D01*
X138342107Y-160021991D01*
X138354692Y-160183873D01*
X138375384Y-160342465D01*
X138403946Y-160497699D01*
X138440145Y-160649500D01*
X138483749Y-160797798D01*
X138534521Y-160942523D01*
X138592229Y-161083600D01*
X138656637Y-161220961D01*
X138727516Y-161354535D01*
X138804624Y-161484248D01*
X138887730Y-161610034D01*
X138976604Y-161731814D01*
X139071009Y-161849524D01*
X139170710Y-161963088D01*
X139275476Y-162072438D01*
X139385068Y-162177499D01*
X139499258Y-162278206D01*
X139617808Y-162374482D01*
X139740485Y-162466260D01*
X139997285Y-162636025D01*
X140267787Y-162786936D01*
X140550118Y-162918425D01*
X140842402Y-163029916D01*
X141142776Y-163120845D01*
X141449356Y-163190636D01*
X138819395Y-166302129D01*
X138366872Y-166091109D01*
X137933904Y-165860633D01*
X137521829Y-165610354D01*
X137131974Y-165339916D01*
X136765668Y-165048970D01*
X136424239Y-164737156D01*
X136263270Y-164573317D01*
X136109019Y-164404131D01*
X135961654Y-164229550D01*
X135821335Y-164049535D01*
X135688237Y-163864038D01*
X135562518Y-163673018D01*
X135444350Y-163476428D01*
X135333898Y-163274224D01*
X135231326Y-163066367D01*
X135136802Y-162852809D01*
X135050490Y-162633503D01*
X134972563Y-162408413D01*
X134903176Y-162177486D01*
X134842503Y-161940682D01*
X134790710Y-161697958D01*
X134747959Y-161449269D01*
X134714420Y-161194569D01*
X134690259Y-160933821D01*
X134675640Y-160666969D01*
X134670729Y-160393980D01*
X134679520Y-159989560D01*
X134705677Y-159592528D01*
X134748879Y-159203107D01*
X134808803Y-158821518D01*
X134885128Y-158447988D01*
X134977531Y-158082741D01*
X135085688Y-157725995D01*
X135209280Y-157377980D01*
X135347983Y-157038918D01*
X135501476Y-156709033D01*
X135669437Y-156388548D01*
X135851542Y-156077687D01*
X136047470Y-155776679D01*
X136256896Y-155485736D01*
X136479505Y-155205095D01*
X136714967Y-154934970D01*
X136962962Y-154675587D01*
X137223171Y-154427174D01*
X137495270Y-154189953D01*
X137778938Y-153964144D01*
X138073849Y-153749975D01*
X138379683Y-153547671D01*
X138696119Y-153357450D01*
X139022836Y-153179543D01*
X139359507Y-153014168D01*
X139705814Y-152861551D01*
X140061432Y-152721918D01*
X140426041Y-152595488D01*
X140799319Y-152482488D01*
X141180941Y-152383141D01*
X141570588Y-152297673D01*
X141967936Y-152226304D01*
X142613240Y-152148618D01*
X143210381Y-152125058D01*
X143761872Y-152152119D01*
X144270235Y-152226307D01*
X144737985Y-152344118D01*
X145167636Y-152502058D01*
X145561707Y-152696620D01*
X145922713Y-152924311D01*
X146253170Y-153181625D01*
X146555594Y-153465066D01*
X146832504Y-153771135D01*
X147086414Y-154096330D01*
X147319842Y-154437154D01*
X147535301Y-154790102D01*
X147922384Y-155518381D01*
X148591664Y-156966480D01*
X148914125Y-157630300D01*
X149081117Y-157934900D01*
X149255304Y-158216633D01*
X149439203Y-158471995D01*
X149635334Y-158697485D01*
X149846208Y-158889606D01*
X150074345Y-159044858D01*
X150322259Y-159159742D01*
X150592469Y-159230755D01*
X150887485Y-159254396D01*
X151209832Y-159227172D01*
X151338951Y-159202792D01*
X151465781Y-159171499D01*
X151590204Y-159133529D01*
X151712101Y-159089131D01*
X151831352Y-159038547D01*
X151947839Y-158982022D01*
X152061443Y-158919798D01*
X152172046Y-158852124D01*
X152279530Y-158779238D01*
X152383774Y-158701387D01*
X152484662Y-158618817D01*
X152582072Y-158531771D01*
X152675889Y-158440490D01*
X152765993Y-158345223D01*
X152852265Y-158246212D01*
X152934584Y-158143701D01*
X153012834Y-158037934D01*
X153086896Y-157929157D01*
X153156652Y-157817613D01*
X153221982Y-157703542D01*
X153282770Y-157587197D01*
X153338890Y-157468812D01*
X153390230Y-157348640D01*
X153436672Y-157226920D01*
X153478094Y-157103898D01*
X153514376Y-156979818D01*
X153545405Y-156854927D01*
X153571057Y-156729462D01*
X153591216Y-156603673D01*
X153605760Y-156477800D01*
X153614577Y-156352095D01*
X153617538Y-156226791D01*
X153603271Y-155971941D01*
X153574566Y-155728103D01*
X153531757Y-155495013D01*
X153475162Y-155272390D01*
X153405114Y-155059970D01*
X153321932Y-154857483D01*
X153225945Y-154664650D01*
X153117480Y-154481206D01*
X152996859Y-154306878D01*
X152864409Y-154141396D01*
X152720457Y-153984482D01*
X152565328Y-153835873D01*
X152399345Y-153695295D01*
X152222837Y-153562475D01*
X152036130Y-153437147D01*
X151839545Y-153319030D01*
X154728793Y-150911328D01*
X154862695Y-151016042D01*
G37*
G36*
X144257227Y-123180044D02*
G01*
X144909566Y-123264932D01*
X145228139Y-123328001D01*
X145540744Y-123404736D01*
X145846713Y-123495077D01*
X146145361Y-123598958D01*
X146436024Y-123716328D01*
X146718021Y-123847121D01*
X146990676Y-123991273D01*
X147253321Y-124148725D01*
X147505274Y-124319417D01*
X147745865Y-124503290D01*
X147974413Y-124700276D01*
X148190251Y-124910320D01*
X148392697Y-125133362D01*
X148581083Y-125369337D01*
X148754729Y-125618186D01*
X148912960Y-125879844D01*
X149055105Y-126154254D01*
X149180485Y-126441357D01*
X149288429Y-126741088D01*
X149378259Y-127053386D01*
X149449303Y-127378193D01*
X149500884Y-127715443D01*
X149532326Y-128065082D01*
X149542956Y-128427040D01*
X149535420Y-128702326D01*
X149513009Y-128978940D01*
X149476057Y-129256041D01*
X149424889Y-129532786D01*
X149359832Y-129808343D01*
X149281207Y-130081860D01*
X149189347Y-130352506D01*
X149084569Y-130619433D01*
X148967204Y-130881803D01*
X148837576Y-131138774D01*
X148696010Y-131389505D01*
X148542833Y-131633157D01*
X148378372Y-131868889D01*
X148202948Y-132095854D01*
X148016889Y-132313214D01*
X147820521Y-132520134D01*
X149098456Y-132316401D01*
X149098456Y-136279868D01*
X127818022Y-139650657D01*
X127818023Y-135687203D01*
X136522814Y-134335182D01*
X136522815Y-134279620D01*
X136418368Y-134218435D01*
X136316874Y-134153036D01*
X136218360Y-134083546D01*
X136122843Y-134010092D01*
X136030354Y-133932799D01*
X135940913Y-133851790D01*
X135854545Y-133767196D01*
X135771274Y-133679141D01*
X135691121Y-133587745D01*
X135614113Y-133493139D01*
X135540272Y-133395446D01*
X135469623Y-133294798D01*
X135402187Y-133191308D01*
X135337991Y-133085111D01*
X135277059Y-132976331D01*
X135219410Y-132865089D01*
X135114069Y-132635740D01*
X135022157Y-132398054D01*
X134943863Y-132153049D01*
X134879379Y-131901719D01*
X134828894Y-131645071D01*
X134792599Y-131384111D01*
X134774687Y-131168114D01*
X138263768Y-131168114D01*
X138269669Y-131355797D01*
X138287103Y-131536849D01*
X138315669Y-131711253D01*
X138354962Y-131878996D01*
X138404574Y-132040065D01*
X138464111Y-132194448D01*
X138533161Y-132342128D01*
X138611323Y-132483094D01*
X138698193Y-132617330D01*
X138793371Y-132744827D01*
X138896448Y-132865567D01*
X139007024Y-132979539D01*
X139124695Y-133086726D01*
X139249056Y-133187121D01*
X139379706Y-133280703D01*
X139516238Y-133367463D01*
X139658251Y-133447385D01*
X139805342Y-133520458D01*
X139957104Y-133586668D01*
X140113138Y-133645998D01*
X140273035Y-133698439D01*
X140436399Y-133743975D01*
X140602819Y-133782594D01*
X140771895Y-133814279D01*
X140943222Y-133839020D01*
X141116397Y-133856799D01*
X141291017Y-133867608D01*
X141466679Y-133871431D01*
X141642978Y-133868255D01*
X141819511Y-133858064D01*
X141995873Y-133840849D01*
X142171664Y-133816591D01*
X142523402Y-133749302D01*
X142875059Y-133652471D01*
X143223514Y-133527368D01*
X143565648Y-133375272D01*
X143898339Y-133197458D01*
X144218471Y-132995198D01*
X144522920Y-132769768D01*
X144808570Y-132522449D01*
X145072296Y-132254508D01*
X145194967Y-132113204D01*
X145310983Y-131967221D01*
X145419961Y-131816725D01*
X145521510Y-131661870D01*
X145615236Y-131502813D01*
X145700752Y-131339721D01*
X145777669Y-131172747D01*
X145845595Y-131002055D01*
X145904143Y-130827803D01*
X145952918Y-130650148D01*
X145991532Y-130469250D01*
X146019601Y-130285271D01*
X146036724Y-130098366D01*
X146042518Y-129908698D01*
X146036725Y-129722699D01*
X146019599Y-129543218D01*
X145991532Y-129370278D01*
X145952917Y-129203890D01*
X145904143Y-129044071D01*
X145845596Y-128890827D01*
X145777669Y-128744176D01*
X145700752Y-128604135D01*
X145615236Y-128470708D01*
X145521510Y-128343920D01*
X145419961Y-128223775D01*
X145310982Y-128110293D01*
X145194965Y-128003483D01*
X145072296Y-127903361D01*
X144943371Y-127809944D01*
X144808569Y-127723236D01*
X144668291Y-127643262D01*
X144522920Y-127570023D01*
X144372850Y-127503543D01*
X144218472Y-127443835D01*
X144060171Y-127390905D01*
X143898339Y-127344772D01*
X143733370Y-127305453D01*
X143565648Y-127272952D01*
X143395567Y-127247290D01*
X143223513Y-127228477D01*
X143049882Y-127216530D01*
X142875059Y-127211458D01*
X142699439Y-127213281D01*
X142523402Y-127222005D01*
X142347349Y-127237646D01*
X142171664Y-127260222D01*
X141819511Y-127327506D01*
X141466679Y-127424341D01*
X141116398Y-127549441D01*
X140771895Y-127701536D01*
X140436400Y-127879353D01*
X140113138Y-128081610D01*
X139805344Y-128307039D01*
X139516237Y-128554361D01*
X139249056Y-128822302D01*
X139124695Y-128963606D01*
X139007024Y-129109589D01*
X138896448Y-129260086D01*
X138793371Y-129414943D01*
X138698194Y-129573997D01*
X138611323Y-129737089D01*
X138533161Y-129904062D01*
X138464110Y-130074755D01*
X138404577Y-130249011D01*
X138354962Y-130426667D01*
X138315669Y-130607563D01*
X138287104Y-130791543D01*
X138269669Y-130978447D01*
X138263768Y-131168114D01*
X134774687Y-131168114D01*
X134770684Y-131119843D01*
X134763337Y-130853267D01*
X134773970Y-130473043D01*
X134805445Y-130099974D01*
X134857113Y-129734265D01*
X134928322Y-129376120D01*
X135018427Y-129025750D01*
X135126783Y-128683358D01*
X135252738Y-128349153D01*
X135395647Y-128023341D01*
X135554861Y-127706127D01*
X135729732Y-127397723D01*
X135919612Y-127098334D01*
X136123856Y-126808163D01*
X136341813Y-126527422D01*
X136572836Y-126256314D01*
X136816279Y-125995048D01*
X137071492Y-125743830D01*
X137337829Y-125502867D01*
X137614643Y-125272368D01*
X137901284Y-125052538D01*
X138197104Y-124843579D01*
X138813693Y-124459123D01*
X139459233Y-124120654D01*
X140128535Y-123829822D01*
X140816424Y-123588287D01*
X141517717Y-123397704D01*
X142227230Y-123259725D01*
X142875060Y-123181263D01*
X142910659Y-123176950D01*
X143589125Y-123150552D01*
X144257227Y-123180044D01*
G37*
D11*
%TO.C,JP4*%
X127500000Y-166050000D02*
X127500000Y-164650000D01*
X128200000Y-163950000D02*
X128800000Y-163950000D01*
X128800000Y-166750000D02*
X128200000Y-166750000D01*
X129500000Y-164650000D02*
X129500000Y-166050000D01*
X127500000Y-164650000D02*
G75*
G02*
X128200000Y-163950000I700000J0D01*
G01*
X128200000Y-166750000D02*
G75*
G02*
X127500000Y-166050000I-1J699999D01*
G01*
X128800000Y-163950000D02*
G75*
G02*
X129500000Y-164650000I0J-700000D01*
G01*
X129500000Y-166050000D02*
G75*
G02*
X128800000Y-166750000I-699999J-1D01*
G01*
%TO.C,JP2*%
X128000000Y-66850000D02*
X128000000Y-65450000D01*
X128700000Y-64750000D02*
X129300000Y-64750000D01*
X129300000Y-67550000D02*
X128700000Y-67550000D01*
X130000000Y-65450000D02*
X130000000Y-66850000D01*
X128000000Y-65450000D02*
G75*
G02*
X128700000Y-64750000I700000J0D01*
G01*
X128700000Y-67550000D02*
G75*
G02*
X128000000Y-66850000I-1J699999D01*
G01*
X129300000Y-64750000D02*
G75*
G02*
X130000000Y-65450000I0J-700000D01*
G01*
X130000000Y-66850000D02*
G75*
G02*
X129300000Y-67550000I-699999J-1D01*
G01*
%TD*%
M02*
