%TF.GenerationSoftware,KiCad,Pcbnew,8.0.5*%
%TF.CreationDate,2025-02-18T01:30:18+08:00*%
%TF.ProjectId,troubleSeeker,74726f75-626c-4655-9365-656b65722e6b,rev?*%
%TF.SameCoordinates,Original*%
%TF.FileFunction,Copper,L1,Top*%
%TF.FilePolarity,Positive*%
%FSLAX46Y46*%
G04 Gerber Fmt 4.6, Leading zero omitted, Abs format (unit mm)*
G04 Created by KiCad (PCBNEW 8.0.5) date 2025-02-18 01:30:18*
%MOMM*%
%LPD*%
G01*
G04 APERTURE LIST*
G04 Aperture macros list*
%AMFreePoly0*
4,1,19,0.500000,-0.750000,0.000000,-0.750000,0.000000,-0.744911,-0.071157,-0.744911,-0.207708,-0.704816,-0.327430,-0.627875,-0.420627,-0.520320,-0.479746,-0.390866,-0.500000,-0.250000,-0.500000,0.250000,-0.479746,0.390866,-0.420627,0.520320,-0.327430,0.627875,-0.207708,0.704816,-0.071157,0.744911,0.000000,0.744911,0.000000,0.750000,0.500000,0.750000,0.500000,-0.750000,0.500000,-0.750000,
$1*%
%AMFreePoly1*
4,1,19,0.000000,0.744911,0.071157,0.744911,0.207708,0.704816,0.327430,0.627875,0.420627,0.520320,0.479746,0.390866,0.500000,0.250000,0.500000,-0.250000,0.479746,-0.390866,0.420627,-0.520320,0.327430,-0.627875,0.207708,-0.704816,0.071157,-0.744911,0.000000,-0.744911,0.000000,-0.750000,-0.500000,-0.750000,-0.500000,0.750000,0.000000,0.750000,0.000000,0.744911,0.000000,0.744911,
$1*%
G04 Aperture macros list end*
%TA.AperFunction,Conductor*%
%ADD10C,0.200000*%
%TD*%
%TA.AperFunction,ComponentPad*%
%ADD11R,1.700000X1.700000*%
%TD*%
%TA.AperFunction,ComponentPad*%
%ADD12O,1.700000X1.700000*%
%TD*%
%TA.AperFunction,ComponentPad*%
%ADD13C,2.600000*%
%TD*%
%TA.AperFunction,SMDPad,CuDef*%
%ADD14FreePoly0,270.000000*%
%TD*%
%TA.AperFunction,SMDPad,CuDef*%
%ADD15FreePoly1,270.000000*%
%TD*%
%TA.AperFunction,ComponentPad*%
%ADD16C,1.600000*%
%TD*%
%TA.AperFunction,ComponentPad*%
%ADD17O,1.600000X1.600000*%
%TD*%
%TA.AperFunction,ComponentPad*%
%ADD18R,2.800000X2.800000*%
%TD*%
%TA.AperFunction,ComponentPad*%
%ADD19C,2.800000*%
%TD*%
%TA.AperFunction,ComponentPad*%
%ADD20R,1.600000X1.600000*%
%TD*%
%TA.AperFunction,ComponentPad*%
%ADD21O,3.500000X2.200000*%
%TD*%
%TA.AperFunction,ComponentPad*%
%ADD22R,2.500000X1.500000*%
%TD*%
%TA.AperFunction,ComponentPad*%
%ADD23O,2.500000X1.500000*%
%TD*%
%TA.AperFunction,ComponentPad*%
%ADD24R,1.600000X2.400000*%
%TD*%
%TA.AperFunction,ComponentPad*%
%ADD25O,1.600000X2.400000*%
%TD*%
%TA.AperFunction,ComponentPad*%
%ADD26O,1.200000X2.200000*%
%TD*%
%TA.AperFunction,ComponentPad*%
%ADD27O,1.600000X2.300000*%
%TD*%
%TA.AperFunction,ComponentPad*%
%ADD28O,2.200000X1.200000*%
%TD*%
%TA.AperFunction,ComponentPad*%
%ADD29O,1.600000X2.500000*%
%TD*%
%TA.AperFunction,ComponentPad*%
%ADD30R,3.000000X3.000000*%
%TD*%
%TA.AperFunction,ComponentPad*%
%ADD31C,3.000000*%
%TD*%
%TA.AperFunction,Conductor*%
%ADD32C,0.500000*%
%TD*%
G04 APERTURE END LIST*
D10*
%TO.N,Net-(C4-Pad1)*%
X129000000Y-58000000D02*
X129025000Y-51950000D01*
%TD*%
D11*
%TO.P,j_breakout2,1,Pin_1*%
%TO.N,unconnected-(j_breakout2-Pin_1-Pad1)*%
X153450000Y-167400000D03*
D12*
%TO.P,j_breakout2,2,Pin_2*%
%TO.N,unconnected-(j_breakout2-Pin_2-Pad2)*%
X153450000Y-169940000D03*
%TO.P,j_breakout2,3,Pin_3*%
%TO.N,unconnected-(j_breakout2-Pin_3-Pad3)*%
X153450000Y-172480000D03*
%TO.P,j_breakout2,4,Pin_4*%
%TO.N,unconnected-(j_breakout2-Pin_4-Pad4)*%
X153450000Y-175020000D03*
%TO.P,j_breakout2,5,Pin_5*%
%TO.N,unconnected-(j_breakout2-Pin_5-Pad5)*%
X153450000Y-177560000D03*
%TD*%
D11*
%TO.P,j_breakout1,1,Pin_1*%
%TO.N,AUDIO_R*%
X133200000Y-167400000D03*
D12*
%TO.P,j_breakout1,2,Pin_2*%
%TO.N,AUDIO_L*%
X133200000Y-169940000D03*
%TO.P,j_breakout1,3,Pin_3*%
%TO.N,VGND2*%
X133200000Y-172480000D03*
%TO.P,j_breakout1,4,Pin_4*%
%TO.N,-4.5V*%
X133200000Y-175020000D03*
%TO.P,j_breakout1,5,Pin_5*%
%TO.N,4.5V*%
X133200000Y-177560000D03*
%TD*%
D13*
%TO.P,L2,1,1*%
%TO.N,Net-(C5-Pad2)*%
X157100000Y-43650000D03*
%TO.P,L2,2,2*%
%TO.N,VGND2*%
X152100000Y-43650000D03*
%TD*%
D14*
%TO.P,JP3,1,A*%
%TO.N,Net-(JP1-B)*%
X158000000Y-164700000D03*
D15*
%TO.P,JP3,2,B*%
%TO.N,unconnected-(JP3-B-Pad2)*%
X158000000Y-166000000D03*
%TD*%
D16*
%TO.P,R4,1*%
%TO.N,Net-(J1-Pin_2)*%
X129120000Y-62000000D03*
D17*
%TO.P,R4,2*%
%TO.N,AUDIO_L*%
X139280000Y-62000000D03*
%TD*%
D14*
%TO.P,JP1,1,A*%
%TO.N,Net-(J1-Pin_1)*%
X158000000Y-65000000D03*
D15*
%TO.P,JP1,2,B*%
%TO.N,Net-(JP1-B)*%
X158000000Y-66300000D03*
%TD*%
D16*
%TO.P,R1,1*%
%TO.N,4.5V*%
X131594749Y-93594749D03*
D17*
%TO.P,R1,2*%
%TO.N,VGND2*%
X141754749Y-93594749D03*
%TD*%
D16*
%TO.P,R6,1*%
%TO.N,Net-(J1-Pin_1)*%
X147820000Y-62125000D03*
D17*
%TO.P,R6,2*%
%TO.N,AUDIO_R*%
X157980000Y-62125000D03*
%TD*%
D16*
%TO.P,R5,1*%
%TO.N,Net-(J1-Pin_1)*%
X147815000Y-58175000D03*
D17*
%TO.P,R5,2*%
%TO.N,Net-(C5-Pad1)*%
X157975000Y-58175000D03*
%TD*%
D16*
%TO.P,C5,1*%
%TO.N,Net-(C5-Pad1)*%
X152250000Y-51825000D03*
%TO.P,C5,2*%
%TO.N,Net-(C5-Pad2)*%
X157250000Y-51825000D03*
%TD*%
D18*
%TO.P,J1,1,Pin_1*%
%TO.N,Net-(J1-Pin_1)*%
X145400000Y-51355000D03*
D19*
%TO.P,J1,2,Pin_2*%
%TO.N,Net-(J1-Pin_2)*%
X140400000Y-51355000D03*
%TD*%
D16*
%TO.P,R2,1*%
%TO.N,VGND2*%
X144354749Y-93594749D03*
D17*
%TO.P,R2,2*%
%TO.N,-4.5V*%
X154514749Y-93594749D03*
%TD*%
D16*
%TO.P,R3,1*%
%TO.N,Net-(J1-Pin_2)*%
X139200000Y-58100000D03*
D17*
%TO.P,R3,2*%
%TO.N,Net-(C4-Pad1)*%
X129040000Y-58100000D03*
%TD*%
D16*
%TO.P,C4,1*%
%TO.N,Net-(C4-Pad1)*%
X129025000Y-51950000D03*
%TO.P,C4,2*%
%TO.N,Net-(C4-Pad2)*%
X134025000Y-51950000D03*
%TD*%
D20*
%TO.P,C2,1*%
%TO.N,VGND2*%
X145974749Y-84094749D03*
D16*
%TO.P,C2,2*%
%TO.N,-4.5V*%
X150974749Y-84094749D03*
%TD*%
D20*
%TO.P,C1,1*%
%TO.N,4.5V*%
X133974749Y-84094749D03*
D16*
%TO.P,C1,2*%
%TO.N,VGND2*%
X138974749Y-84094749D03*
%TD*%
D13*
%TO.P,L1,1,1*%
%TO.N,Net-(C4-Pad2)*%
X134025000Y-43650000D03*
%TO.P,L1,2,2*%
%TO.N,VGND2*%
X129025000Y-43650000D03*
%TD*%
D21*
%TO.P,SW1,*%
%TO.N,*%
X131000000Y-97400000D03*
X131000000Y-105600000D03*
D22*
%TO.P,SW1,1,A*%
%TO.N,unconnected-(SW1-A-Pad1)*%
X131000000Y-99500000D03*
D23*
%TO.P,SW1,2,B*%
%TO.N,Net-(BT1-+)*%
X131000000Y-101500000D03*
%TO.P,SW1,3,C*%
%TO.N,4.5V*%
X131000000Y-103500000D03*
%TD*%
D24*
%TO.P,U1,1*%
%TO.N,AUDIO_L*%
X146400000Y-66800000D03*
D25*
%TO.P,U1,2,-*%
%TO.N,Net-(J1-Pin_2)*%
X143860000Y-66800000D03*
%TO.P,U1,3,+*%
%TO.N,VGND2*%
X141320000Y-66800000D03*
%TO.P,U1,4,V-*%
%TO.N,-4.5V*%
X138780000Y-66800000D03*
%TO.P,U1,5,+*%
%TO.N,VGND2*%
X138780000Y-74420000D03*
%TO.P,U1,6,-*%
%TO.N,Net-(J1-Pin_1)*%
X141320000Y-74420000D03*
%TO.P,U1,7*%
%TO.N,AUDIO_R*%
X143860000Y-74420000D03*
%TO.P,U1,8,V+*%
%TO.N,4.5V*%
X146400000Y-74420000D03*
%TD*%
D26*
%TO.P,J2,R*%
%TO.N,AUDIO_R*%
X138700000Y-171600000D03*
D27*
%TO.P,J2,RN*%
%TO.N,unconnected-(J2-PadRN)*%
X141200000Y-171600000D03*
D28*
%TO.P,J2,S*%
%TO.N,VGND2*%
X143700000Y-176600000D03*
D26*
%TO.P,J2,T*%
%TO.N,AUDIO_L*%
X148700000Y-171600000D03*
D29*
%TO.P,J2,TN*%
%TO.N,unconnected-(J2-PadTN)*%
X146200000Y-171600000D03*
%TD*%
D30*
%TO.P,BT1,1,+*%
%TO.N,Net-(BT1-+)*%
X136650000Y-111250000D03*
D31*
%TO.P,BT1,2,-*%
%TO.N,-4.5V*%
X149350000Y-111250000D03*
%TD*%
D32*
%TO.N,Net-(BT1-+)*%
X135056207Y-104556207D02*
X132353553Y-101853553D01*
X136650000Y-108403963D02*
X136650000Y-110600000D01*
X131500000Y-101500000D02*
X131000000Y-101500000D01*
D10*
X137300000Y-111250000D02*
X137950000Y-111250000D01*
D32*
X136650000Y-110600000D02*
G75*
G03*
X137300000Y-111250000I650000J0D01*
G01*
X132353553Y-101853553D02*
G75*
G03*
X131500000Y-101499998I-853553J-853547D01*
G01*
X135056207Y-104556207D02*
G75*
G02*
X136650011Y-108403963I-3847807J-3847793D01*
G01*
%TO.N,Net-(C4-Pad2)*%
X134025000Y-43650000D02*
X134025000Y-51950000D01*
%TO.N,Net-(C5-Pad2)*%
X157100000Y-51568933D02*
X157100000Y-43650000D01*
X157175000Y-51750000D02*
X157250000Y-51825000D01*
X157100000Y-51568933D02*
G75*
G03*
X157175010Y-51749990I256100J33D01*
G01*
%TO.N,Net-(C5-Pad1)*%
X157754029Y-57329029D02*
X152250000Y-51825000D01*
X157975000Y-57862500D02*
X157975000Y-58175000D01*
X157754029Y-57329029D02*
G75*
G02*
X157975012Y-57862500I-533429J-533471D01*
G01*
%TO.N,VGND2*%
X129025000Y-43650000D02*
X129025000Y-41721231D01*
X129921231Y-40825000D02*
X132900431Y-40825000D01*
X127600000Y-46082627D02*
X127600000Y-66946036D01*
X129193792Y-70793792D02*
X131226207Y-72826207D01*
X137480588Y-74080588D02*
X136810000Y-73410000D01*
X145870752Y-97710752D02*
X145870752Y-169629248D01*
X144950000Y-175350000D02*
X143700000Y-176600000D01*
X144354749Y-93594749D02*
X145164749Y-92784749D01*
X141754749Y-93594749D02*
X145870752Y-97710752D01*
X138780000Y-74420000D02*
X135073963Y-74420000D01*
X135800000Y-66707106D02*
X135800000Y-70971644D01*
X136400000Y-44324568D02*
X136400000Y-44915075D01*
X141754749Y-93594749D02*
X144354749Y-93594749D01*
X144996036Y-48500000D02*
X139984924Y-48500000D01*
X128312500Y-44362500D02*
X129025000Y-43650000D01*
X140569705Y-66049705D02*
X141320000Y-66800000D01*
X138300000Y-74420000D02*
X138780000Y-74420000D01*
X138780000Y-74420000D02*
X138780000Y-78842118D01*
X138974749Y-79312284D02*
X138974749Y-84094749D01*
X144950000Y-170550000D02*
X144950000Y-175350000D01*
X148843792Y-46906207D02*
X152100000Y-43650000D01*
X137507106Y-65000000D02*
X139717157Y-65000000D01*
X138974749Y-84094749D02*
X145974749Y-84094749D01*
X145870752Y-169629248D02*
X144950000Y-170550000D01*
X140230294Y-65230294D02*
X140200000Y-65200000D01*
X145974749Y-90829236D02*
X145974749Y-84094749D01*
X135375000Y-41850000D02*
G75*
G03*
X132900431Y-40824987I-2474600J-2474600D01*
G01*
X128312500Y-44362500D02*
G75*
G03*
X127600011Y-46082627I1720100J-1720100D01*
G01*
X135375000Y-41850000D02*
G75*
G02*
X136400013Y-44324568I-2474600J-2474600D01*
G01*
X135800000Y-70971644D02*
G75*
G03*
X136810013Y-73409987I3448400J44D01*
G01*
X136300000Y-65500000D02*
G75*
G03*
X135800003Y-66707106I1207100J-1207100D01*
G01*
X129921231Y-40825000D02*
G75*
G03*
X129287491Y-41087491I-31J-896200D01*
G01*
X145974749Y-90829236D02*
G75*
G02*
X145164738Y-92784738I-2765549J36D01*
G01*
X137507106Y-65000000D02*
G75*
G03*
X136299998Y-65499998I-6J-1707100D01*
G01*
X140400000Y-65640000D02*
G75*
G03*
X140569707Y-66049703I579400J0D01*
G01*
X140230294Y-65230294D02*
G75*
G02*
X140400003Y-65640000I-409694J-409706D01*
G01*
X131226207Y-72826207D02*
G75*
G03*
X135073963Y-74420011I3847793J3847807D01*
G01*
X137480588Y-74080588D02*
G75*
G03*
X138300000Y-74420007I819412J819388D01*
G01*
X129287500Y-41087500D02*
G75*
G03*
X129025013Y-41721231I633700J-633700D01*
G01*
X138877374Y-79077201D02*
G75*
G02*
X138974763Y-79312284I-235074J-235099D01*
G01*
X127600000Y-66946036D02*
G75*
G03*
X129193800Y-70793784I5441600J36D01*
G01*
X148843792Y-46906207D02*
G75*
G02*
X144996036Y-48500010I-3847792J3847807D01*
G01*
X140200000Y-65200000D02*
G75*
G03*
X139717157Y-65000018I-482800J-482800D01*
G01*
X138780000Y-78842118D02*
G75*
G03*
X138877374Y-79077201I332500J18D01*
G01*
X136400000Y-44915075D02*
G75*
G03*
X137449993Y-47450007I3584900J-25D01*
G01*
X137450000Y-47450000D02*
G75*
G03*
X139984924Y-48499990I2534900J2534900D01*
G01*
%TO.N,AUDIO_L*%
X146400000Y-66800000D02*
X142420243Y-62820243D01*
X154906207Y-75306207D02*
X146400000Y-66800000D01*
X148700000Y-169253963D02*
X148700000Y-171600000D01*
X140440000Y-62000000D02*
X139280000Y-62000000D01*
X156500000Y-79153963D02*
X156500000Y-156946036D01*
X150293792Y-165406207D02*
X154906207Y-160793792D01*
X142420243Y-62820243D02*
G75*
G03*
X140440000Y-62000004I-1980243J-1980257D01*
G01*
X150293792Y-165406207D02*
G75*
G03*
X148699959Y-169253963I3847708J-3847793D01*
G01*
X154906207Y-75306207D02*
G75*
G02*
X156500011Y-79153963I-3847807J-3847793D01*
G01*
X156500000Y-156946036D02*
G75*
G02*
X154906200Y-160793785I-5441600J36D01*
G01*
%TO.N,-4.5V*%
X150974749Y-77866567D02*
X150974749Y-84094749D01*
X147900000Y-71000000D02*
X147900000Y-71763604D01*
X140486207Y-68506207D02*
X138780000Y-66800000D01*
X151954559Y-92614939D02*
X152375620Y-93036000D01*
X154514749Y-93989844D02*
X154514749Y-104231287D01*
X150355309Y-75355309D02*
X148703553Y-73703553D01*
X150974749Y-90249468D02*
X150974749Y-84094749D01*
X152920956Y-108079043D02*
X149350000Y-111650000D01*
X146999999Y-70100000D02*
X144333963Y-70100000D01*
X154119654Y-93594749D02*
X153724559Y-93594749D01*
X151000000Y-77805605D02*
X151000000Y-76911730D01*
X150974749Y-90249468D02*
G75*
G03*
X151954549Y-92614949I3345251J-32D01*
G01*
X152375620Y-93036000D02*
G75*
G03*
X153724559Y-93594789I1348980J1348900D01*
G01*
X150987374Y-77836086D02*
G75*
G03*
X150974738Y-77866567I30526J-30514D01*
G01*
X154514749Y-93989844D02*
G75*
G03*
X154119654Y-93594751I-395049J44D01*
G01*
X147636396Y-70363604D02*
G75*
G02*
X147900000Y-71000000I-636396J-636396D01*
G01*
X154514749Y-104231287D02*
G75*
G02*
X152920963Y-108079050I-5441549J-13D01*
G01*
X151000000Y-77805605D02*
G75*
G02*
X150987370Y-77836082I-43100J5D01*
G01*
X150355309Y-75355309D02*
G75*
G02*
X150999982Y-76911730I-1556409J-1556391D01*
G01*
X140486207Y-68506207D02*
G75*
G03*
X144333963Y-70100011I3847793J3847807D01*
G01*
X147636396Y-70363604D02*
G75*
G03*
X146999999Y-70100000I-636396J-636396D01*
G01*
X147900000Y-71763604D02*
G75*
G03*
X148703556Y-73703550I2743500J4D01*
G01*
%TO.N,4.5V*%
X127500000Y-101792893D02*
X127500000Y-97700769D01*
X130750000Y-93594749D02*
X131594749Y-93594749D01*
X130793792Y-175153792D02*
X133200000Y-177560000D01*
X128631281Y-104118718D02*
X128295495Y-104454504D01*
X129307923Y-94192076D02*
X128702625Y-94797374D01*
X128350000Y-108350000D02*
X128295495Y-108295495D01*
X131594749Y-93594749D02*
X132591992Y-93594749D01*
X129200000Y-110402081D02*
X129200000Y-171306036D01*
X133974749Y-92211992D02*
X133974749Y-84094749D01*
X129207106Y-103500000D02*
X130125000Y-103500000D01*
X133569749Y-93189749D02*
G75*
G03*
X133974746Y-92211992I-977749J977749D01*
G01*
X130125000Y-103500000D02*
X130125000Y-103500000D01*
X128702625Y-94797374D02*
G75*
G03*
X127499972Y-97700769I2903375J-2903426D01*
G01*
X133569749Y-93189749D02*
G75*
G02*
X132591992Y-93594746I-977749J977749D01*
G01*
X128000000Y-103000000D02*
G75*
G03*
X129207106Y-103499997I1207100J1207100D01*
G01*
X128350000Y-108350000D02*
G75*
G02*
X129200008Y-110402081I-2052100J-2052100D01*
G01*
X128295495Y-104454504D02*
G75*
G03*
X127500002Y-106375000I1920505J-1920496D01*
G01*
X127500000Y-101792893D02*
G75*
G03*
X127999998Y-103000002I1707100J-7D01*
G01*
X130750000Y-93594749D02*
G75*
G03*
X129307914Y-94192067I0J-2039451D01*
G01*
X127500000Y-106375000D02*
G75*
G03*
X128295493Y-108295497I2716000J0D01*
G01*
X130125000Y-103500000D02*
G75*
G03*
X128631289Y-104118726I0J-2112400D01*
G01*
X129200000Y-171306036D02*
G75*
G03*
X130793800Y-175153784I5441600J36D01*
G01*
%TO.N,Net-(J1-Pin_1)*%
X147815000Y-62116464D02*
X147815000Y-58175000D01*
X145400000Y-57993801D02*
X145400000Y-51355000D01*
X146610000Y-60915000D02*
X147817500Y-62122500D01*
X151062500Y-63562500D02*
X150263163Y-62763163D01*
X147823535Y-62125000D02*
X148722500Y-62125000D01*
X154532931Y-65000000D02*
X158000000Y-65000000D01*
X150263163Y-62763163D02*
G75*
G03*
X148722500Y-62124992I-1540663J-1540637D01*
G01*
X145400000Y-57993801D02*
G75*
G03*
X146610000Y-60915000I4131200J1D01*
G01*
X151062500Y-63562500D02*
G75*
G03*
X154532931Y-64999987I3470400J3470400D01*
G01*
%TO.N,Net-(J1-Pin_2)*%
X130220000Y-63100000D02*
X129120000Y-62000000D01*
X133720101Y-60900000D02*
X130220000Y-60900000D01*
X130220000Y-60900000D02*
X129120000Y-62000000D01*
X133779506Y-57975493D02*
X140400000Y-51355000D01*
X139200000Y-58100000D02*
X138850000Y-58100000D01*
X138252512Y-58347487D02*
X137099999Y-59499999D01*
X133554999Y-58200000D02*
X133779506Y-57975493D01*
X132875634Y-64200000D02*
X139421522Y-64200000D01*
X132695493Y-58424506D02*
X132695493Y-58424507D01*
X142560000Y-65500000D02*
X143860000Y-66800000D01*
X133237500Y-58200000D02*
X133554999Y-58200000D01*
X132695493Y-58424507D02*
X129120000Y-62000000D01*
X130220000Y-63100000D02*
G75*
G03*
X132875634Y-64199986I2655600J2655600D01*
G01*
X137099999Y-59499999D02*
G75*
G02*
X133720101Y-60899999I-3379899J3379899D01*
G01*
X142560000Y-65500000D02*
G75*
G03*
X139421522Y-64199991I-3138500J-3138500D01*
G01*
X133237500Y-58200000D02*
G75*
G03*
X132695496Y-58424509I0J-766500D01*
G01*
X138850000Y-58100000D02*
G75*
G03*
X138252507Y-58347482I0J-845000D01*
G01*
%TO.N,Net-(JP1-B)*%
X158000000Y-66300000D02*
X158000000Y-164700000D01*
%TD*%
M02*
