%TF.GenerationSoftware,KiCad,Pcbnew,8.0.2-1*%
%TF.CreationDate,2024-06-20T14:35:33+08:00*%
%TF.ProjectId,troubleSeeker,74726f75-626c-4655-9365-656b65722e6b,rev?*%
%TF.SameCoordinates,Original*%
%TF.FileFunction,Copper,L1,Top*%
%TF.FilePolarity,Positive*%
%FSLAX46Y46*%
G04 Gerber Fmt 4.6, Leading zero omitted, Abs format (unit mm)*
G04 Created by KiCad (PCBNEW 8.0.2-1) date 2024-06-20 14:35:33*
%MOMM*%
%LPD*%
G01*
G04 APERTURE LIST*
%TA.AperFunction,ComponentPad*%
%ADD10O,1.600000X1.600000*%
%TD*%
%TA.AperFunction,ComponentPad*%
%ADD11C,1.600000*%
%TD*%
%TA.AperFunction,ComponentPad*%
%ADD12C,2.600000*%
%TD*%
%TA.AperFunction,ComponentPad*%
%ADD13R,1.600000X1.600000*%
%TD*%
%TA.AperFunction,ComponentPad*%
%ADD14R,1.600000X2.400000*%
%TD*%
%TA.AperFunction,ComponentPad*%
%ADD15O,1.600000X2.400000*%
%TD*%
%TA.AperFunction,ComponentPad*%
%ADD16C,2.130000*%
%TD*%
%TA.AperFunction,ComponentPad*%
%ADD17R,1.830000X1.930000*%
%TD*%
%TA.AperFunction,ComponentPad*%
%ADD18C,2.400000*%
%TD*%
%TA.AperFunction,ComponentPad*%
%ADD19R,2.400000X2.400000*%
%TD*%
%TA.AperFunction,Conductor*%
%ADD20C,0.800000*%
%TD*%
%TA.AperFunction,Conductor*%
%ADD21C,0.200000*%
%TD*%
G04 APERTURE END LIST*
D10*
%TO.P,R4,2*%
%TO.N,Net-(C3-Pad2)*%
X137180000Y-68000000D03*
D11*
%TO.P,R4,1*%
%TO.N,Net-(U1A--)*%
X127020000Y-68000000D03*
%TD*%
D10*
%TO.P,R3,2*%
%TO.N,Net-(C4-Pad1)*%
X137080000Y-62900000D03*
D11*
%TO.P,R3,1*%
%TO.N,Net-(U1A--)*%
X126920000Y-62900000D03*
%TD*%
D10*
%TO.P,R2,2*%
%TO.N,Net-(BT1--)*%
X144040000Y-100000000D03*
D11*
%TO.P,R2,1*%
%TO.N,/VGND*%
X133880000Y-100000000D03*
%TD*%
D10*
%TO.P,R1,2*%
%TO.N,/VGND*%
X131280000Y-100000000D03*
D11*
%TO.P,R1,1*%
%TO.N,Net-(BT1-+)*%
X121120000Y-100000000D03*
%TD*%
D12*
%TO.P,L1,2,2*%
%TO.N,/VGND*%
X129310000Y-45500000D03*
%TO.P,L1,1,1*%
%TO.N,Net-(C4-Pad2)*%
X134310000Y-45500000D03*
%TD*%
D13*
%TO.P,C2,1*%
%TO.N,/VGND*%
X135500000Y-90500000D03*
D11*
%TO.P,C2,2*%
%TO.N,Net-(BT1--)*%
X140500000Y-90500000D03*
%TD*%
%TO.P,C1,2*%
%TO.N,/VGND*%
X128500000Y-90500000D03*
D13*
%TO.P,C1,1*%
%TO.N,Net-(BT1-+)*%
X123500000Y-90500000D03*
%TD*%
D14*
%TO.P,U1,1*%
%TO.N,Net-(C3-Pad2)*%
X135300000Y-73700000D03*
D15*
%TO.P,U1,2,-*%
%TO.N,Net-(U1A--)*%
X132760000Y-73700000D03*
%TO.P,U1,3,+*%
%TO.N,/VGND*%
X130220000Y-73700000D03*
%TO.P,U1,4,V-*%
%TO.N,Net-(BT1--)*%
X127680000Y-73700000D03*
%TO.P,U1,5,+*%
%TO.N,/VGND*%
X127680000Y-81320000D03*
%TO.P,U1,6,-*%
%TO.N,unconnected-(U1B---Pad6)*%
X130220000Y-81320000D03*
%TO.P,U1,7*%
%TO.N,unconnected-(U1-Pad7)*%
X132760000Y-81320000D03*
%TO.P,U1,8,V+*%
%TO.N,Net-(BT1-+)*%
X135300000Y-81320000D03*
%TD*%
D16*
%TO.P,Audio Out,TN*%
%TO.N,N/C*%
X128400000Y-174000000D03*
%TO.P,Audio Out,T*%
%TO.N,Net-(C3-Pad1)*%
X136700000Y-174000000D03*
D17*
%TO.P,Audio Out,S*%
%TO.N,/VGND*%
X125300000Y-174000000D03*
%TD*%
D11*
%TO.P,C4,2*%
%TO.N,Net-(C4-Pad2)*%
X129310000Y-57000000D03*
%TO.P,C4,1*%
%TO.N,Net-(C4-Pad1)*%
X134310000Y-57000000D03*
%TD*%
%TO.P,C3,2*%
%TO.N,Net-(C3-Pad2)*%
X134900000Y-166100000D03*
%TO.P,C3,1*%
%TO.N,Net-(C3-Pad1)*%
X129900000Y-166100000D03*
%TD*%
D18*
%TO.P,9V Battery,2,-*%
%TO.N,Net-(BT1--)*%
X134750000Y-108700000D03*
D19*
%TO.P,9V Battery,1,+*%
%TO.N,Net-(BT1-+)*%
X129750000Y-108700000D03*
%TD*%
D20*
%TO.N,Net-(BT1--)*%
X140500000Y-96654719D02*
G75*
G03*
X141479816Y-99020184I3345300J19D01*
G01*
X141900871Y-99441251D02*
G75*
G03*
X143249810Y-99999989I1348929J1348951D01*
G01*
X143249810Y-100000000D02*
X144040000Y-100000000D01*
X141479810Y-99020190D02*
X141900871Y-99441251D01*
X140500000Y-96654719D02*
X140500000Y-90500000D01*
D21*
%TO.N,Net-(U1A--)*%
X126970000Y-62950000D02*
G75*
G02*
X127019996Y-63070710I-120700J-120700D01*
G01*
D20*
X128460000Y-68000000D02*
G75*
G02*
X130918240Y-69018226I0J-3476500D01*
G01*
X132760000Y-72280000D02*
G75*
G03*
X131755911Y-69855905I-3428200J0D01*
G01*
%TO.N,Net-(C4-Pad2)*%
X129000000Y-55250000D02*
G75*
G02*
X130237432Y-52262558I4224900J0D01*
G01*
X132939339Y-49560660D02*
G75*
G03*
X134000005Y-47000000I-2560639J2560660D01*
G01*
%TO.N,Net-(C4-Pad1)*%
X135973377Y-58663377D02*
G75*
G02*
X137080013Y-61335000I-2671577J-2671623D01*
G01*
%TO.N,Net-(C3-Pad2)*%
X135300000Y-73707071D02*
G75*
G02*
X135305008Y-73695008I17100J-29D01*
G01*
X135300000Y-73692928D02*
G75*
G03*
X135304951Y-73694951I2900J28D01*
G01*
X135300000Y-71209360D02*
G75*
G02*
X136240011Y-68940011I3209400J-40D01*
G01*
X135300000Y-73692928D02*
X135300000Y-73707071D01*
%TO.N,/VGND*%
X130220000Y-71687695D02*
G75*
G03*
X129959999Y-71060001I-887700J-5D01*
G01*
X128155000Y-50845000D02*
G75*
G03*
X129309993Y-48056583I-2788400J2788400D01*
G01*
X125712132Y-70700000D02*
G75*
G02*
X125349991Y-70550009I-32J512100D01*
G01*
X128500000Y-85579827D02*
G75*
G03*
X128090008Y-84589992I-1399800J27D01*
G01*
X126129289Y-70700000D02*
G75*
G02*
X126250003Y-70749997I11J-170700D01*
G01*
X126370710Y-70800000D02*
G75*
G02*
X126249997Y-70750003I-10J170700D01*
G01*
X127000000Y-53633416D02*
G75*
G02*
X128154995Y-50844995I3943400J16D01*
G01*
X127680000Y-83600172D02*
G75*
G03*
X128089992Y-84590008I1399800J-28D01*
G01*
X125200000Y-70187867D02*
G75*
G03*
X125349991Y-70550009I512100J-33D01*
G01*
X129332304Y-70800000D02*
G75*
G02*
X129959999Y-71060001I-4J-887700D01*
G01*
X135500000Y-97234487D02*
G75*
G02*
X134690004Y-99190004I-2765500J-13D01*
G01*
X125200000Y-62072792D02*
G75*
G02*
X126100002Y-59900002I3072800J-8D01*
G01*
X127000000Y-57727207D02*
G75*
G02*
X126099998Y-59899998I-3072800J7D01*
G01*
%TO.N,Net-(BT1--)*%
X132746036Y-76500000D02*
G75*
G02*
X136593784Y-78093800I-36J-5441600D01*
G01*
X129079827Y-76500000D02*
G75*
G02*
X128089992Y-76090008I-27J1399800D01*
G01*
X127680000Y-75100172D02*
G75*
G03*
X128089992Y-76090008I1399800J-28D01*
G01*
%TO.N,Net-(BT1-+)*%
X123095000Y-99595000D02*
G75*
G02*
X122117243Y-100000018I-977800J977800D01*
G01*
X123500000Y-82414213D02*
G75*
G02*
X124499996Y-79999996I3414200J13D01*
G01*
X134900000Y-79400000D02*
G75*
G03*
X133934314Y-78999994I-965700J-965700D01*
G01*
X126914213Y-79000000D02*
G75*
G03*
X124499996Y-79999996I-13J-3414200D01*
G01*
X123095000Y-99595000D02*
G75*
G03*
X123500018Y-98617243I-977800J977800D01*
G01*
X134900000Y-79400000D02*
G75*
G02*
X135300006Y-80365685I-965700J-965700D01*
G01*
X129725251Y-108605251D02*
G75*
G02*
X129749999Y-108665000I-59751J-59749D01*
G01*
%TO.N,Net-(C4-Pad1)*%
X137080000Y-61335000D02*
X137080000Y-62900000D01*
X135973377Y-58663377D02*
X134310000Y-57000000D01*
%TO.N,/VGND*%
X129310000Y-48056583D02*
X129310000Y-45500000D01*
X127000000Y-57727207D02*
X127000000Y-53633416D01*
X125200000Y-70187867D02*
X125200000Y-62072792D01*
X125712132Y-70700000D02*
X126129289Y-70700000D01*
X129332304Y-70800000D02*
X126370710Y-70800000D01*
X130220000Y-71687695D02*
X130220000Y-73700000D01*
%TO.N,Net-(U1A--)*%
X127020000Y-63070710D02*
X127020000Y-68000000D01*
D21*
X126970000Y-62950000D02*
X126920000Y-62900000D01*
D20*
X132760000Y-72280000D02*
X132760000Y-73700000D01*
X130918233Y-69018233D02*
X131755908Y-69855908D01*
X128460000Y-68000000D02*
X127020000Y-68000000D01*
%TO.N,Net-(C3-Pad2)*%
X135300000Y-71209360D02*
X135300000Y-73692928D01*
X136240000Y-68940000D02*
X137180000Y-68000000D01*
%TO.N,/VGND*%
X133880000Y-100000000D02*
X131280000Y-100000000D01*
%TO.N,Net-(BT1-+)*%
X122117243Y-100000000D02*
X121120000Y-100000000D01*
D21*
X129750000Y-108665000D02*
X129750000Y-108700000D01*
D20*
X129725251Y-108605251D02*
X121120000Y-100000000D01*
%TO.N,Net-(C3-Pad2)*%
X135300000Y-73707071D02*
X135300000Y-73800000D01*
%TO.N,Net-(BT1-+)*%
X123500000Y-98617243D02*
X123500000Y-90500000D01*
X126914213Y-79000000D02*
X133934314Y-79000000D01*
X123500000Y-82414213D02*
X123500000Y-90500000D01*
X135300000Y-80365685D02*
X135300000Y-81320000D01*
%TO.N,/VGND*%
X128500000Y-85579827D02*
X128500000Y-90500000D01*
X127680000Y-83600172D02*
X127680000Y-81320000D01*
X135500000Y-90500000D02*
X128500000Y-90500000D01*
X135500000Y-90500000D02*
X135500000Y-97234487D01*
X133880000Y-100000000D02*
X134690000Y-99190000D01*
%TO.N,Net-(BT1--)*%
X140500000Y-84253963D02*
X140500000Y-90500000D01*
X136593792Y-78093792D02*
X138906207Y-80406207D01*
X132746036Y-76500000D02*
X129079827Y-76500000D01*
X127680000Y-75100172D02*
X127680000Y-73700000D01*
%TO.N,Net-(C3-Pad2)*%
X135305000Y-73695000D02*
X135310000Y-73690000D01*
%TO.N,Net-(C4-Pad2)*%
X134000000Y-47000000D02*
X134000000Y-45500000D01*
X132939339Y-49560660D02*
X130237436Y-52262562D01*
X129000000Y-55250000D02*
X129000000Y-57000000D01*
%TO.N,Net-(BT1--)*%
X140500000Y-84253963D02*
G75*
G03*
X138906199Y-80406215I-5441600J-37D01*
G01*
%TD*%
M02*
